<?xml version="1.0" encoding="utf-8"?>
<!-- Generator: Adobe Illustrator 19.0.0, SVG Export Plug-In . SVG Version: 6.00 Build 0)  -->
<svg version="1.1" id="Layer_1" xmlns="http://www.w3.org/2000/svg" xmlns:xlink="http://www.w3.org/1999/xlink" x="0px" y="0px"
	 viewBox="-283 435.8 512 210.2" style="enable-background:new -283 435.8 512 210.2;" xml:space="preserve">
<style type="text/css">
	.st0{fill:#FFFFFF;}
</style>
<path id="XMLID_34_" class="st0" d="M-189.4,462.9c-6,7.1-15.6,12.7-25.2,11.9c-1.2-9.6,3.5-19.8,9-26.1c6-7.3,16.5-12.5,25-12.9
	C-179.6,445.8-183.5,455.6-189.4,462.9 M-180.7,476.7c-13.9-0.8-25.8,7.9-32.4,7.9c-6.7,0-16.8-7.5-27.8-7.3
	c-14.3,0.2-27.6,8.3-34.9,21.2c-15,25.8-3.9,64,10.6,85c7.1,10.4,15.6,21.8,26.8,21.4c10.6-0.4,14.8-6.9,27.6-6.9
	c12.9,0,16.6,6.9,27.8,6.7c11.6-0.2,18.9-10.4,26-20.8c8.1-11.8,11.4-23.3,11.6-23.9c-0.2-0.2-22.4-8.7-22.6-34.3
	c-0.2-21.4,17.5-31.6,18.3-32.2C-159.7,478.7-175.3,477.1-180.7,476.7 M-100.4,447.7v155.9h24.2v-53.3h33.5
	c30.6,0,52.1-21,52.1-51.4c0-30.4-21.1-51.2-51.3-51.2H-100.4L-100.4,447.7z M-76.2,468.1h27.9c21,0,33,11.2,33,30.9
	c0,19.7-12,31-33.1,31h-27.8V468.1z M53.6,604.8c15.2,0,29.3-7.7,35.7-19.9h0.5v18.7h22.4V526c0-22.5-18-37-45.7-37
	c-25.7,0-44.7,14.7-45.4,34.9h21.8c1.8-9.6,10.7-15.9,22.9-15.9c14.8,0,23.1,6.9,23.1,19.6v8.6L58.7,538
	c-28.1,1.7-43.3,13.2-43.3,33.2C15.4,591.4,31.1,604.8,53.6,604.8z M60.1,586.3c-12.9,0-21.1-6.2-21.1-15.7c0-9.8,7.9-15.5,23-16.4
	l26.9-1.7v8.8C88.9,575.9,76.5,586.3,60.1,586.3z M142.1,646c23.6,0,34.7-9,44.4-36.3L229,490.5h-24.6l-28.5,92.1h-0.5l-28.5-92.1
	h-25.3l41,113.5l-2.2,6.9c-3.7,11.7-9.7,16.2-20.4,16.2c-1.9,0-5.6-0.2-7.1-0.4v18.7C134.3,645.8,140.3,646,142.1,646z"/>
</svg>
