<?xml version="1.0" encoding="utf-8"?>
<!-- Generator: Adobe Illustrator 19.0.0, SVG Export Plug-In . SVG Version: 6.00 Build 0)  -->
<svg version="1.1" id="Layer_1" xmlns="http://www.w3.org/2000/svg" xmlns:xlink="http://www.w3.org/1999/xlink" x="0px" y="0px"
	 viewBox="-99 772.9 879.4 376.1" style="enable-background:new -99 772.9 879.4 376.1;" xml:space="preserve">
<style type="text/css">
	.st0{font-family:'Manrope-Bold';}
	.st1{font-size:404.4478px;}
	.st2{font-size:161.7791px;}
	.st3{fill:#FF1A1A;}
</style>
<text transform="matrix(1 0 0 1 -2.0894 1124.6926)" class="st0 st1">299</text>
<text transform="matrix(1 0 0 1 -103.2002 915.7239)" class="st0 st2">$</text>
<g>
	<path class="st3" d="M5.8,1121.8c0,0,0.4-0.7,1.4-2.2c1-1.4,2.4-3.5,4.3-6.2c3.8-5.3,9.6-13,17.4-22.2c3.9-4.7,8.3-9.6,13.2-15
		c2.4-2.7,5-5.4,7.7-8.2c2.7-2.8,5.5-5.8,8.5-8.7c11.7-11.9,25.5-24.6,41.1-37.9c15.6-13.2,32.9-26.9,52-40.4
		c9.5-6.8,19.4-13.5,29.7-20.2c5.1-3.3,10.5-6.5,15.8-9.7c2.7-1.6,5.4-3.2,8.1-4.7c2.7-1.6,5.5-3.1,8.3-4.6
		c11.2-6,22.7-11.9,34.6-17.4c6-2.7,12-5.4,18-8.1c6.1-2.6,12.2-5.1,18.4-7.7c24.7-10.3,50-20,75-30.3c6.3-2.5,12.6-5,18.9-7.5
		s12.5-5,18.8-7.4c12.6-4.7,25.1-9.5,37.7-13.8c6.3-2.2,12.5-4.3,18.8-6.5c3.1-1.1,6.2-2.1,9.3-3.2c3.1-1,6.2-2,9.3-3
		c6.2-2,12.4-3.9,18.5-5.8c3.1-1,6.1-1.9,9.2-2.9c3.1-0.9,6.1-1.8,9.1-2.7c6.1-1.7,12.1-3.5,18.1-5.2c3-0.9,6-1.7,8.9-2.6
		c2.9-0.9,5.9-1.6,8.9-2.4c11.8-3.1,23.2-6.2,34.5-8.9c11.3-2.6,22.2-5.2,32.8-7.7c10.6-2.3,21-4.4,30.8-6.4c2.5-0.5,4.9-1,7.3-1.5
		c1.2-0.2,2.4-0.5,3.6-0.7c1.2-0.2,2.4-0.4,3.6-0.6c4.8-0.8,9.4-1.6,13.9-2.4c4.5-0.8,8.9-1.6,13.2-2.3c2.1-0.4,4.2-0.7,6.3-1.1
		c1-0.2,2.1-0.4,3.1-0.5c1-0.2,2-0.3,3.1-0.4c16.2-2.3,30.3-4.5,41.9-5.9c11.6-1.3,20.8-2.3,27-3s9.6-1,9.6-1l1.4,7.9
		c0,0-3.2,0.9-9.2,2.7c-6,1.7-14.8,4.2-25.9,7.4c-1.4,0.4-2.8,0.8-4.3,1.2c-1.5,0.5-3,0.9-4.5,1.4c-3.1,1-6.3,2-9.6,3
		c-6.7,2-13.9,4.3-21.6,6.6c-1,0.3-1.9,0.6-2.9,0.9c-1,0.3-2,0.7-2.9,1c-2,0.7-4,1.3-6,2c-4.1,1.4-8.2,2.8-12.5,4.2
		s-8.7,2.9-13.2,4.4c-1.1,0.4-2.3,0.8-3.4,1.1c-1.1,0.4-2.3,0.8-3.4,1.2c-2.3,0.8-4.6,1.6-6.9,2.5c-9.3,3.4-19,6.8-29,10.5
		c-9.9,3.8-20.2,7.8-30.8,11.8c-2.6,1-5.3,2.1-7.9,3.2c-2.7,1.1-5.3,2.2-8,3.3c-5.4,2.2-10.8,4.4-16.3,6.6c-2.7,1.1-5.5,2.2-8.3,3.4
		s-5.5,2.4-8.3,3.6c-5.6,2.4-11.2,4.8-16.8,7.3c-2.8,1.2-5.7,2.4-8.5,3.7s-5.7,2.6-8.5,3.9c-5.7,2.6-11.4,5.2-17.2,7.8
		c-2.9,1.3-5.8,2.6-8.7,4s-5.8,2.7-8.7,4.1c-5.8,2.7-11.6,5.5-17.4,8.2c-5.9,2.7-11.6,5.6-17.5,8.5c-5.8,2.8-11.7,5.7-17.5,8.6
		c-5.9,2.9-11.6,5.9-17.5,8.9c-5.8,3-11.7,5.9-17.5,9s-11.6,6.2-17.3,9.3c-2.9,1.6-5.7,3.2-8.6,4.7c-2.9,1.6-5.7,3.3-8.5,4.9
		c-11.3,6.6-22.4,13.2-33.3,20.1c-5.5,3.4-10.9,6.8-16.4,10.1c-5.4,3.4-10.8,6.8-16.1,10.1c-5.4,3.2-10.7,6.5-16.1,9.7
		c-5.3,3.2-10.7,6.3-16,9.3s-10.6,6-15.8,8.9c-2.6,1.4-5.3,2.8-7.9,4.2s-5.2,2.8-7.8,4.1c-10.4,5.6-20.8,10.6-30.8,15.7
		c-2.5,1.3-5,2.5-7.5,3.7s-5,2.4-7.4,3.6c-4.9,2.5-9.7,4.8-14.5,7.2c-4.8,2.3-9.5,4.6-14.1,6.8c-4.6,2.2-9.2,4.4-13.7,6.5
		c-8.9,4.3-17.6,8.2-25.8,12c-4.1,1.9-8.2,3.7-12.1,5.5c-3.9,1.8-7.7,3.5-11.5,5.1c-7.5,3.2-14.4,6.3-21,9.1
		c-6.5,2.8-12.6,5.3-18.1,7.5c-11,4.5-19.7,7.9-25.8,10.2c-1.5,0.6-2.8,1.1-4,1.5c-1.2,0.4-2.1,0.8-2.9,1.1
		c-1.6,0.6-2.4,0.9-2.4,0.9L5.8,1121.8z"/>
</g>
<g>
	<path class="st3" d="M-70.2,809.7c0,0,3.4-0.3,9.9-0.5c3.2-0.1,7.2-0.2,11.9-0.3c2.3,0,4.8,0,7.5,0c2.7,0,5.5,0.1,8.5,0.1
		c12,0.2,26.6,0.7,43.3,1.9c16.7,1,35.4,2.9,55.9,5.3c5.1,0.7,10.3,1.3,15.6,2s10.7,1.5,16.2,2.3s11.1,1.7,16.7,2.6
		c5.6,0.9,11.4,2,17.2,3c2.9,0.5,5.8,1,8.8,1.6c2.9,0.6,5.9,1.1,8.8,1.7c5.9,1.1,11.9,2.3,18,3.6c6,1.3,12.2,2.6,18.3,4
		c6.2,1.4,12.4,2.7,18.6,4.3c6.2,1.5,12.5,3.1,18.9,4.6c3.2,0.8,6.3,1.6,9.5,2.5c3.2,0.8,6.4,1.7,9.6,2.5c6.4,1.8,12.8,3.4,19.3,5.3
		c6.4,1.9,12.9,3.8,19.3,5.7c3.2,1,6.5,1.9,9.7,2.9s6.5,2.1,9.7,3.1c6.5,2.1,13,4.1,19.5,6.3c13,4.3,25.9,8.9,38.8,13.5
		c6.4,2.4,12.8,4.9,19.3,7.3c6.4,2.4,12.8,4.8,19.1,7.5c6.3,2.6,12.7,5.1,18.9,7.8c3.1,1.3,6.3,2.6,9.4,3.9c3.1,1.4,6.2,2.7,9.3,4.1
		c12.4,5.5,24.7,10.8,36.6,16.6c11.9,5.8,23.8,11.3,35.2,17.3c23,11.7,44.7,23.8,65,35.8c10.1,6.1,19.9,12.1,29.3,17.9
		c9.3,6.1,18.3,12,26.8,17.7c4.3,2.9,8.5,5.6,12.5,8.6c4,2.9,7.9,5.7,11.7,8.4c3.8,2.8,7.5,5.5,11.1,8.1c3.6,2.6,7.1,5.1,10.3,7.8
		c6.6,5.2,12.8,10,18.4,14.6c5.6,4.6,10.9,8.6,15.3,12.7c2.3,2,4.4,3.8,6.4,5.6c2,1.8,3.9,3.4,5.6,5c3.5,3.1,6.4,5.8,8.8,8
		c4.7,4.3,7.2,6.7,7.2,6.7s-3.2-1.3-9.1-3.8c-3-1.3-6.6-2.8-10.8-4.7c-2.1-0.9-4.4-2-6.8-3c-2.4-1.1-5-2.3-7.7-3.5
		c-1.4-0.6-2.7-1.3-4.2-1.9c-1.4-0.6-2.9-1.3-4.4-1.9c-3-1.3-6.2-2.7-9.4-4.2c-6.6-2.8-13.6-6.1-21.1-9.5c-3.7-1.7-7.7-3.4-11.7-5.1
		c-4-1.8-8.1-3.6-12.4-5.4c-8.5-3.7-17.2-7.8-26.5-11.7c-9.3-4-18.9-8.2-28.8-12.6c-10-4.2-20.4-8.6-30.9-13.1
		c-21.2-8.9-43.6-18.3-66.8-27.7c-11.5-4.8-23.5-9.4-35.4-14.2c-3-1.2-6-2.4-9-3.6c-3-1.2-6.1-2.3-9.1-3.5
		c-6.1-2.4-12.2-4.7-18.3-7.1c-3.1-1.2-6.1-2.4-9.2-3.6c-3.1-1.2-6.2-2.3-9.3-3.5c-6.2-2.3-12.4-4.7-18.6-7.1
		c-6.2-2.4-12.5-4.6-18.7-7c-6.2-2.3-12.5-4.6-18.8-7c-12.6-4.5-25.1-9.1-37.6-13.6c-12.6-4.3-25-9-37.5-13.2
		c-6.2-2.2-12.4-4.3-18.6-6.4c-6.1-2.2-12.3-4.2-18.4-6.3c-12.2-4.3-24.3-8.2-36.2-12.2c-11.9-4-23.7-7.7-35.1-11.6
		c-11.5-3.6-22.7-7.5-33.8-10.9c-5.5-1.8-10.9-3.5-16.2-5.2s-10.6-3.4-15.8-5c-10.4-3.4-20.4-6.4-30-9.5
		c-19.3-6-37.1-11.6-52.8-16.5c-15.8-4.9-29.6-9.2-40.9-12.7C-57.1,813.8-70.2,809.7-70.2,809.7z"/>
</g>
</svg>
