<?xml version="1.0" encoding="utf-8"?>
<!-- Generator: Adobe Illustrator 19.0.0, SVG Export Plug-In . SVG Version: 6.00 Build 0)  -->
<svg version="1.1" id="Layer_1" xmlns="http://www.w3.org/2000/svg" xmlns:xlink="http://www.w3.org/1999/xlink" x="0px" y="0px"
	 viewBox="-737 989 24 24" style="enable-background:new -737 989 24 24;" xml:space="preserve">
<style type="text/css">
	.st0{fill:#FFFFFF;}
</style>
<g transform="matrix(1, 0, 0, 1, 27.009001, -39.238998)">
	<path class="st0" d="M-740.3,1040.5c0-0.8-0.1-1.5-0.2-2.3h-11.3v4.5h6.5c-0.3,1.5-1.1,2.7-2.4,3.6v3h3.9
		C-741.6,1047.2-740.3,1044.2-740.3,1040.5z"/>
	<path class="st0" d="M-751.8,1052.2c3.2,0,6-1.1,7.9-2.9l-3.9-3c-1.1,0.7-2.4,1.2-4.1,1.2c-3.1,0-5.8-2.1-6.7-5h-4v3.1
		C-760.5,1049.5-756.4,1052.2-751.8,1052.2z"/>
	<path class="st0" d="M-758.5,1042.5c-0.2-0.7-0.4-1.5-0.4-2.3c0-0.8,0.1-1.6,0.4-2.3v-3.1h-4c-0.8,1.6-1.3,3.4-1.3,5.4
		c0,1.9,0.5,3.8,1.3,5.4L-758.5,1042.5z"/>
	<path class="st0" d="M-751.8,1033c1.8,0,3.4,0.6,4.6,1.8l3.4-3.4c-2.1-1.9-4.8-3.1-8-3.1c-4.7,0-8.7,2.7-10.7,6.6l4,3.1
		C-757.5,1035.1-754.9,1033-751.8,1033z"/>
</g>
</svg>
