<?xml version="1.0" encoding="utf-8"?>
<!-- Generator: Adobe Illustrator 19.0.0, SVG Export Plug-In . SVG Version: 6.00 Build 0)  -->
<svg version="1.1" id="Layer_1" xmlns="http://www.w3.org/2000/svg" xmlns:xlink="http://www.w3.org/1999/xlink" x="0px" y="0px"
	 viewBox="-389 391 300 300" style="enable-background:new -389 391 300 300;" xml:space="preserve">
<style type="text/css">
	.st0{fill:#95B9C2;}
	.st1{fill:#6C7E8D;}
	.st2{fill:#FFDABD;}
</style>
<g id="Layer_2">
</g>
<g id="Layer_1_1_">
	<g id="XMLID_42_">
		<path id="XMLID_46_" class="st0" d="M-304.7,464v139.5c0,0,1.1,14.4,18,14.4s108.7,0,108.7,0s15.3-5.3,15.3-19.1
			c0-13.9,0-13.9,0-13.9h-112.8v15.3c0,0,0.8,9.7-9.7,9.7s-10-10-10-10V474.6H-192v100.7h10V464H-304.7z"/>
		<rect id="XMLID_45_" x="-276" y="493.5" class="st1" width="65.1" height="10"/>
		<rect id="XMLID_44_" x="-276" y="521.8" class="st1" width="65.1" height="10"/>
		<rect id="XMLID_43_" x="-276" y="550.9" class="st1" width="65.1" height="10"/>
	</g>
</g>
<g id="Layer_1_2_">
	<path id="XMLID_29_" class="st2" d="M-197.7,517.7l7.7-6.9l15.6,12.3c0,0,16.9-21.3,43.6-32.7l3.1,4.4c0,0-28.3,15-45.9,48.1
		L-197.7,517.7z"/>
</g>
</svg>
