<?xml version="1.0" encoding="utf-8"?>
<!-- Generator: Adobe Illustrator 19.0.0, SVG Export Plug-In . SVG Version: 6.00 Build 0)  -->
<svg version="1.1" id="Layer_1" xmlns="http://www.w3.org/2000/svg" xmlns:xlink="http://www.w3.org/1999/xlink" x="0px" y="0px"
	 viewBox="-326 748.9 426.5 424.1" style="enable-background:new -326 748.9 426.5 424.1;" xml:space="preserve">
<style type="text/css">
	.st0{fill:#ACD3DD;}
	.st1{fill:#002646;}
</style>
<g id="Layer_1_2_">
	<g id="Layer_2">
	</g>
	<g id="Layer_1_1_">
		<g id="XMLID_3_">
		</g>
		<g id="XMLID_4_">
		</g>
		<g id="XMLID_5_">
		</g>
		<g id="XMLID_6_">
		</g>
		<g id="XMLID_7_">
		</g>
		<g id="XMLID_8_">
		</g>
	</g>
	<path class="st0" d="M-112.8,758.4c-111.8,0-202.5,90.8-202.5,202.6c0,111.8,90.7,202.5,202.5,202.5S89.7,1072.8,89.7,961
		C89.8,849-0.9,758.4-112.8,758.4z"/>
</g>
<g id="XMLID_431_">
	<circle id="XMLID_441_" class="st0" cx="-113" cy="922.8" r="68.7"/>
	<polygon id="XMLID_440_" class="st1" points="-105,1000.1 -133.5,983 -136.5,981.4 -165,964.1 -232.6,1076.6 -184.8,1064.8 
		-173,1112.8 	"/>
	<polygon id="XMLID_439_" class="st1" points="-121.1,1000.1 -92.6,983 -89.6,981.4 -61.3,964.1 6.6,1076.6 -41.2,1064.8 
		-53.1,1112.8 	"/>
	<g>
		<path id="XMLID_1_" class="st0" d="M-17.2,896.8c-2.4-8.6-0.8-18.9-5.1-26.7c-4.5-7.7-14.2-11.6-20.5-17.9
			c-6.3-6.3-10.1-16.1-17.9-20.5c-7.5-4.5-17.9-2.8-26.7-5.1c-8.4-2.2-16.6-8.8-25.6-8.8c-9.1,0-17.3,6.7-25.6,8.8
			c-8.6,2.4-18.9,0.8-26.7,5.1c-7.7,4.5-11.6,14.2-17.9,20.5c-6.3,6.3-16.1,10.1-20.5,17.9c-4.5,7.5-2.8,17.9-5.1,26.7
			c-2.2,8.4-8.8,16.6-8.8,25.6c0,9.1,6.7,17.3,8.8,25.6c2.4,8.6,0.8,18.9,5.1,26.7c4.5,7.7,14.2,11.6,20.5,17.9
			c6.3,6.3,10.1,16.1,17.9,20.5c7.5,4.5,17.9,2.8,26.7,5.1c8.4,2.2,16.6,8.8,25.6,8.8c9.1,0,17.3-6.7,25.6-8.8
			c8.6-2.4,18.9-0.8,26.7-5.1c7.7-4.5,11.6-14.2,17.9-20.5c6.3-6.3,16.1-10.2,20.5-17.9c4.5-7.5,2.8-17.9,5.1-26.7
			c2.2-8.4,8.8-16.6,8.8-25.6C-8.3,913.5-14.7,905.3-17.2,896.8z M-113,991.3c-38,0-68.7-30.9-68.7-68.7c0-38,30.9-68.7,68.7-68.7
			s68.7,30.9,68.7,68.7C-44.3,960.7-75.1,991.3-113,991.3z"/>
		<g>
			<path class="st1" d="M-113,858.7c-35.2,0-63.8,28.6-63.8,63.8s28.6,63.8,63.8,63.8s63.8-28.6,63.8-63.8
				C-49.3,887.3-77.8,858.7-113,858.7z"/>
			<g>
				<path class="st1" d="M-113,999.2c-42.3,0-76.7-34.4-76.7-76.7c0-42.3,34.4-76.7,76.7-76.7s76.7,34.4,76.7,76.7
					C-36.3,964.8-70.7,999.2-113,999.2z"/>
				<path class="st1" d="M-113,848.8c40.6,0,73.7,33.1,73.7,73.7s-33.1,73.7-73.7,73.7s-73.7-33.1-73.7-73.7
					C-186.7,881.9-153.6,848.8-113,848.8 M-113,842.8c-43.9,0-79.7,35.8-79.7,79.7c0,43.9,35.8,79.7,79.7,79.7s79.7-35.8,79.7-79.7
					S-69.1,842.8-113,842.8L-113,842.8z"/>
			</g>
			<path class="st1" d="M-8.7,904.4c-1.4-3.1-2.7-6-3.6-8.8c-0.8-3-1.2-6.5-1.5-10c-0.5-6-1-12.2-4.2-17.9
				c-3.2-5.7-8.5-9.3-13.5-12.9c-2.9-2-5.7-4-7.7-6.1c-2.1-2.2-4-4.9-6-7.7c-3.6-5.1-7.2-10.4-12.9-13.5c-5.5-3.3-11.9-3.8-18-4.3
				c-3.6-0.2-6.9-0.5-10-1.4c-2.8-0.7-5.9-2.2-9-3.7c-5.3-2.5-11.3-5.3-17.9-5.3s-12.7,2.8-17.9,5.3c-3.1,1.5-6.2,2.9-9.1,3.7
				c-3,0.8-6.5,1.2-10,1.5c-6,0.5-12.2,1-17.9,4.2c-5.7,3.2-9.3,8.5-12.9,13.5c-2,2.9-4,5.7-6.1,7.7c-2.2,2.1-4.9,4-7.7,6
				c-5.1,3.6-10.4,7.2-13.5,12.9c-3.3,5.5-3.8,11.9-4.3,18c-0.2,3.6-0.5,6.9-1.4,10c-0.7,2.8-2.2,5.9-3.7,9
				c-2.5,5.3-5.3,11.3-5.3,17.9c0,6.6,2.8,12.7,5.3,17.9c1.5,3.1,2.9,6.2,3.7,9.1c0.8,3,1.2,6.5,1.5,10c0.5,6,1,12.2,4.2,17.9
				c3.2,5.7,8.5,9.3,13.5,12.9c2.9,2,5.7,4,7.7,6.1c2.1,2.2,4,4.9,6,7.7c3.6,5.1,7.2,10.4,12.9,13.5c5.5,3.3,11.9,3.8,18,4.3
				c3.6,0.3,6.9,0.5,10,1.4c2.8,0.7,5.9,2.2,9,3.7c5.3,2.5,11.3,5.3,17.9,5.3s12.6-2.8,17.9-5.3c3.1-1.5,6.2-2.9,9.1-3.7
				c3-0.8,6.5-1.2,10-1.5c6-0.5,12.2-1,17.9-4.2c5.7-3.2,9.3-8.5,12.9-13.5c2-2.9,4-5.7,6.1-7.7c2.2-2.1,4.8-4,7.7-6
				c5.1-3.6,10.4-7.2,13.5-12.9c3.2-5.5,3.8-11.9,4.3-18c0.2-3.6,0.5-6.9,1.4-10c0.7-2.8,2.2-5.9,3.7-9c2.5-5.3,5.3-11.3,5.3-17.9
				C-3.2,915.9-6.2,909.8-8.7,904.4z M-17.2,948.1c-2.3,8.8-0.6,19.1-5.1,26.7c-4.4,7.7-14.2,11.6-20.5,17.9s-10.2,16-17.9,20.5
				c-7.7,4.3-18.1,2.7-26.7,5.1c-8.4,2.1-16.5,8.8-25.6,8.8c-9,0-17.3-6.6-25.6-8.8c-8.8-2.3-19.1-0.6-26.7-5.1
				c-7.7-4.4-11.6-14.2-17.9-20.5c-6.3-6.3-16-10.2-20.5-17.9c-4.3-7.7-2.7-18.1-5.1-26.7c-2.1-8.4-8.8-16.5-8.8-25.6
				c0-9,6.6-17.3,8.8-25.6c2.3-8.8,0.6-19.1,5.1-26.7c4.4-7.7,14.2-11.6,20.5-17.9s10.1-16,17.9-20.5c7.7-4.3,18.1-2.7,26.7-5.1
				c8.4-2.1,16.5-8.8,25.6-8.8c9,0,17.3,6.6,25.6,8.8c8.8,2.3,19.1,0.6,26.7,5.1c7.7,4.4,11.6,14.2,17.9,20.5s16,10.1,20.5,17.9
				c4.3,7.7,2.7,18.1,5.1,26.7c2.4,8.5,8.9,16.6,8.8,25.6C-8.4,931.5-15,939.7-17.2,948.1z"/>
		</g>
	</g>
	<circle id="XMLID_435_" class="st0" cx="-113" cy="922.8" r="68.7"/>
	<polygon class="st1" points="-112.9,952.2 -146.7,974.8 -135.7,935.7 -167.6,910.5 -127,908.9 -112.9,870.8 -98.9,908.9 
		-58.3,910.5 -90.2,935.7 -79.2,974.8 	"/>
</g>
</svg>
