<?xml version="1.0" encoding="utf-8"?>
<!-- Generator: Adobe Illustrator 19.0.0, SVG Export Plug-In . SVG Version: 6.00 Build 0)  -->
<svg version="1.1" id="Layer_1" xmlns="http://www.w3.org/2000/svg" xmlns:xlink="http://www.w3.org/1999/xlink" x="0px" y="0px"
	 viewBox="-569 331 300 300" style="enable-background:new -569 331 300 300;" xml:space="preserve">
<style type="text/css">
	.st0{fill:#1FEAA1;}
	.st1{fill:#231F20;}
</style>
<g id="Layer_2">
</g>
<g id="XMLID_152_">
	<g>
		<circle id="XMLID_6_" class="st0" cx="-419" cy="480.9" r="75.2"/>
		<path id="XMLID_1_" d="M-419,413.4c37.3,0,67.6,30.3,67.6,67.6s-30.3,67.6-67.6,67.6s-67.6-30.3-67.6-67.6S-456.3,413.4-419,413.4
			 M-419,405.9c-41.5,0-75.2,33.7-75.2,75.2s33.7,75.2,75.2,75.2s75.2-33.7,75.2-75.2C-343.8,439.4-377.5,405.9-419,405.9
			L-419,405.9z"/>
	</g>
	<g id="XMLID_76_">
		<circle class="st1" cx="-444.8" cy="460.1" r="11.6"/>
	</g>
	<g id="XMLID_78_">
		<circle class="st1" cx="-390.9" cy="460.1" r="11.6"/>
	</g>
	<g id="XMLID_81_">
		<path class="st1" d="M-456.4,493.7h77.1c0,0-12.5,25.4-39.7,25.4C-446.2,519.2-456.4,493.7-456.4,493.7z"/>
	</g>
</g>
</svg>
