<?xml version="1.0" encoding="utf-8"?>
<!-- Generator: Adobe Illustrator 19.0.0, SVG Export Plug-In . SVG Version: 6.00 Build 0)  -->
<svg version="1.1" id="Layer_1" xmlns="http://www.w3.org/2000/svg" xmlns:xlink="http://www.w3.org/1999/xlink" x="0px" y="0px"
	 viewBox="-326 748.9 426.5 424.1" style="enable-background:new -326 748.9 426.5 424.1;" xml:space="preserve">
<style type="text/css">
	.st0{fill:#ACD3DD;}
	.st1{fill:#002646;}
</style>
<g id="Layer_1_2_">
	<g id="Layer_2">
	</g>
	<g id="Layer_1_1_">
		<g id="XMLID_3_">
		</g>
		<g id="XMLID_4_">
		</g>
		<g id="XMLID_5_">
		</g>
		<g id="XMLID_6_">
		</g>
		<g id="XMLID_7_">
		</g>
		<g id="XMLID_8_">
		</g>
	</g>
	<path class="st0" d="M-112.8,758.4c-111.8,0-202.5,90.8-202.5,202.6c0,111.8,90.7,202.5,202.5,202.5S89.7,1072.8,89.7,961
		C89.8,849-0.9,758.4-112.8,758.4z"/>
</g>
<g>
	<path class="st1" d="M-91.2,898.8c0-5.2-0.4-10-1.3-14.4c-0.9-4.4-2.4-8.3-4.6-11.5c-2.2-3.2-5.1-5.8-8.7-7.6
		c-3.6-1.8-8.3-2.8-13.9-2.8c-2.7,0-5.4,0.3-8,1c-2.6,0.6-5,1.5-7.2,2.5c-2.2,1-4.2,2.2-5.9,3.4c-1.7,1.2-3.1,2.5-4.2,3.8
		c2.3,2.3,3.9,5,4.8,8.3c0.9,3.2,1.4,6,1.4,8.3c0,2.2-0.4,4.5-1.2,7.1c-0.8,2.6-2.1,5-3.8,7.3c-1.7,2.3-4,4.2-6.7,5.8
		c-2.8,1.6-6,2.4-9.8,2.4c-3.8,0-7.1-0.6-9.9-1.8c-2.8-1.2-5.1-2.8-7-5c-1.8-2.1-3.2-4.6-4.1-7.6c-0.9-2.9-1.3-6.1-1.3-9.4
		c0-6,1.8-11.9,5.3-17.7c3.5-5.9,8.4-11.1,14.6-15.9c6.2-4.7,13.5-8.5,22-11.5s17.7-4.4,27.6-4.4c13.1,0,24.2,1.5,33.3,4.6
		c9,3,16.3,7,21.9,12c5.5,5,9.5,10.6,12,17c2.4,6.3,3.7,12.8,3.7,19.4c0,7.8-1.7,15-5.1,21.6c-3.4,6.6-7.7,12.8-12.8,18.5
		c-5.1,5.7-10.7,10.9-16.7,15.8c-6,4.8-11.5,9.3-16.7,13.6c-5.1,4.2-9.4,8.2-12.8,12c-3.4,3.7-5.1,7.4-5.1,11c0,2.8,1.1,5.1,3.2,7
		c2.1,1.8,5.4,2.8,10,2.8c1.5,0,3.1-0.1,4.8-0.2c1.7-0.2,3.5-0.5,5.4-1.1l5.2,17.1c-2.8,1.5-5.7,2.7-8.7,3.7c-3,0.9-5.9,1.7-8.8,2.2
		c-2.9,0.5-5.6,0.9-8.3,1.1c-2.7,0.2-5,0.3-7.1,0.3c-3.6,0-7.1-0.4-10.6-1.2c-3.5-0.8-6.6-2.1-9.3-4c-2.7-1.8-4.9-4.2-6.6-7.2
		c-1.7-2.9-2.5-6.5-2.5-10.7c0-2.7,0.4-5.3,1.1-7.8c0.7-2.5,2.1-5.3,4.1-8.3c2-3,4.8-6.5,8.3-10.5c3.5-4,8.1-8.7,13.7-14.2
		c3.9-3.9,7.5-7.7,10.7-11.5c3.3-3.8,6-7.8,8.4-12.1c2.3-4.3,4.2-8.9,5.5-13.9C-91.9,910.8-91.2,905.2-91.2,898.8z M-88.4,1057
		c0,3.6-0.7,6.9-2,10.1c-1.4,3.1-3.2,5.9-5.4,8.2c-2.3,2.3-4.9,4.2-7.8,5.5c-2.9,1.4-6,2-9.1,2c-3.3,0-6.3-0.7-9.2-2
		c-2.9-1.4-5.4-3.2-7.6-5.5c-2.2-2.3-4-5.1-5.2-8.2c-1.2-3.1-1.9-6.5-1.9-10.1s0.7-7,2-10.2c1.3-3.2,3.1-6,5.3-8.4
		c2.2-2.4,4.8-4.3,7.7-5.6c2.9-1.4,6-2,9.3-2c3.5,0,6.7,0.7,9.6,2c2.9,1.4,5.5,3.2,7.6,5.6c2.2,2.4,3.8,5.2,5,8.4
		C-89,1050.1-88.4,1053.5-88.4,1057z"/>
</g>
</svg>
