<?xml version="1.0" encoding="utf-8"?>
<!-- Generator: Adobe Illustrator 19.0.0, SVG Export Plug-In . SVG Version: 6.00 Build 0)  -->
<svg version="1.1" id="Layer_1" xmlns="http://www.w3.org/2000/svg" xmlns:xlink="http://www.w3.org/1999/xlink" x="0px" y="0px"
	 viewBox="-389 391 300 300" style="enable-background:new -389 391 300 300;" xml:space="preserve">
<style type="text/css">
	.st0{fill:#FFEA2C;}
	.st1{fill:none;stroke:#000000;stroke-width:8;stroke-linecap:round;stroke-miterlimit:10;}
</style>
<g id="Layer_2">
</g>
<g>
	<g>
		<circle id="XMLID_5_" class="st0" cx="-239" cy="541" r="74.5"/>
		<path id="XMLID_1_" d="M-239,474c36.9,0,67,30,67,67c0,36.9-30,67-67,67s-67-30-67-67C-305.9,504.1-275.9,474-239,474 M-239,466.5
			c-41.2,0-74.5,33.4-74.5,74.5c0,41.2,33.4,74.5,74.5,74.5s74.5-33.4,74.5-74.5C-164.4,499.8-197.8,466.5-239,466.5L-239,466.5z"/>
	</g>
	<g id="XMLID_97_">
		<circle cx="-264.5" cy="520.4" r="11.5"/>
	</g>
	<g id="XMLID_94_">
		<circle cx="-211.1" cy="520.4" r="11.5"/>
	</g>
	<path class="st1" d="M-276,563.5c7.6,3.2,20.6,7.6,37.3,7.7c17.7,0.2,31.4-4.5,39.1-7.7"/>
</g>
</svg>
