<?xml version="1.0" encoding="utf-8"?>
<!-- Generator: Adobe Illustrator 19.0.0, SVG Export Plug-In . SVG Version: 6.00 Build 0)  -->
<svg version="1.1" id="Layer_1" xmlns="http://www.w3.org/2000/svg" xmlns:xlink="http://www.w3.org/1999/xlink" x="0px" y="0px"
	 viewBox="-389 811 300 300" style="enable-background:new -389 811 300 300;" xml:space="preserve">
<style type="text/css">
	.st0{fill:#FFDABD;}
	.st1{fill:#FFFFFF;}
	.st2{fill:#002646;}
	.st3{fill:#0099FF;}
	.st4{fill:none;}
	.st5{fill:#FF118F;}
	.st6{fill:#6C7E8D;}
	.st7{fill:#95B9C2;}
</style>
<path class="st0" d="M-239,833.8c-70.1,0-127.2,57.1-127.2,127.2s57.1,127.2,127.2,127.2s127.2-57.1,127.2-127.2
	S-168.9,833.8-239,833.8z M-239,1046.6c-47.2,0-85.6-38.4-85.6-85.6s38.3-85.6,85.6-85.6s85.6,38.4,85.6,85.6
	S-191.8,1046.6-239,1046.6z"/>
<g id="XMLID_287_">
	<g>
		<circle id="XMLID_9_" class="st1" cx="-1803" cy="2235" r="38.4"/>
		<path class="st2" d="M-1803,2277.3c-23.3,0-42.3-19-42.3-42.3s19-42.3,42.3-42.3s42.3,19,42.3,42.3S-1779.7,2277.3-1803,2277.3z
			 M-1803,2200.5c-19,0-34.5,15.5-34.5,34.5s15.5,34.5,34.5,34.5s34.5-15.5,34.5-34.5S-1784,2200.5-1803,2200.5z"/>
	</g>
	<circle id="XMLID_283_" class="st3" cx="-1803" cy="2235" r="19.2"/>
	<g>
		<circle id="XMLID_8_" class="st1" cx="-1707" cy="2235" r="38.4"/>
		<path class="st2" d="M-1707,2277.3c-23.3,0-42.3-19-42.3-42.3s19-42.3,42.3-42.3s42.3,19,42.3,42.3
			C-1664.6,2258.3-1683.6,2277.3-1707,2277.3z M-1707,2200.5c-19,0-34.5,15.5-34.5,34.5s15.5,34.5,34.5,34.5s34.5-15.5,34.5-34.5
			S-1688,2200.5-1707,2200.5z"/>
	</g>
	<g>
		<line id="XMLID_7_" class="st4" x1="-1803" y1="2273.4" x2="-1707" y2="2273.4"/>
		<rect x="-1803" y="2269.5" class="st2" width="96" height="7.9"/>
	</g>
	<circle id="XMLID_286_" class="st5" cx="-1707" cy="2235" r="19.2"/>
</g>
<g id="XMLID_121_">
	<path id="XMLID_135_" class="st6" d="M-361.1,1018.1c10.1,16.5,30.1,45.4,50.1,55.8l30.1-30.1c-12.4-6.3-32-21.9-46.9-59
		L-361.1,1018.1z"/>
	<path id="XMLID_127_" class="st6" d="M-166.4,1074.5c31.1-16.5,44.7-40.3,50.7-55.2l-33.9-33.9c-11.4,32.3-34.9,49.8-48.5,57.4
		L-166.4,1074.5z"/>
	<path id="XMLID_137_" class="st7" d="M-354.4,886.5l33.9,33.9c17.4-29.5,46.3-43.5,57.7-48.2l-33-33
		C-325.3,853.2-346.5,877-354.4,886.5z"/>
	<path id="XMLID_124_" class="st7" d="M-213.9,870.9c12.7,4.1,36.2,16.2,56.8,49.2l31.4-31.4c-5.7-10.8-22.2-36.2-56.1-49.8
		L-213.9,870.9z"/>
	<path class="st2" d="M-239,1101.5c-77.4,0-140.5-63.1-140.5-140.5s63.1-140.5,140.5-140.5S-98.5,883.6-98.5,961
		S-161.6,1101.5-239,1101.5z M-239,833.8c-70.1,0-127.2,57.1-127.2,127.2s57.1,127.2,127.2,127.2s127.2-57.1,127.2-127.2
		S-168.9,833.8-239,833.8z"/>
	<path class="st2" d="M-239,1060c-54.6,0-99-44.4-99-99s44.4-99,99-99s99,44.4,99,99S-184.4,1060-239,1060z M-239,875.4
		c-47.3,0-85.6,38.4-85.6,85.6s38.4,85.6,85.6,85.6s85.6-38.4,85.6-85.6S-191.7,875.4-239,875.4z"/>
</g>
</svg>
