<?xml version="1.0" encoding="utf-8"?>
<!-- Generator: Adobe Illustrator 19.0.0, SVG Export Plug-In . SVG Version: 6.00 Build 0)  -->
<svg version="1.1" id="Layer_1" xmlns="http://www.w3.org/2000/svg" xmlns:xlink="http://www.w3.org/1999/xlink" x="0px" y="0px"
	 viewBox="-569 331 300 300" style="enable-background:new -569 331 300 300;" xml:space="preserve">
<style type="text/css">
	.st0{fill:#B5E5CA;}
</style>
<g id="Layer_2">
</g>
<g id="XMLID_157_">
	<g>
		<path id="XMLID_4_" class="st0" d="M-440.1,533.3c13.4,3.6,28.1,3.6,41.6,0c0.6-0.2,1.3,0,1.8,0.4s0.8,1,0.8,1.7v10.8
			c0,0.8,0.6,1.4,1.4,1.4h20.1c0.7,0,1.3-0.5,1.4-1.2l4.7-28.7c0.1-0.5,0.3-0.9,0.6-1.2c7.3-6.9,12.8-15.2,15.8-24.2
			c0.2-0.6,0.7-1.1,1.2-1.3l12.8-4.9c0.2-0.1,0.3-0.2,0.3-0.4v-20.1c0-0.2-0.2-0.4-0.4-0.4h-10.4c-1,0-1.8-0.7-2.1-1.6
			c-1.9-8.2-5.6-15.8-11.2-22.8c-0.5-0.7-0.6-1.6-0.2-2.4l9.9-17.7c0.7-1.2,0.6-2.6,0-3.7c-0.7-1.2-1.9-1.9-3.2-1.9h-22
			c-1.8,0-3.3,1.3-3.6,3.1l-0.4,2.9c-0.1,0.7-0.5,1.2-1.1,1.6c-0.6,0.3-1.3,0.3-1.9,0c-10.6-5.3-22.7-8.1-35-8.1
			c-38.7,0-70.2,27.2-70.2,60.7c0,15.3,6.7,30,18.7,41.3c0.3,0.3,0.6,0.7,0.6,1.2l4.6,28.6c0.1,0.7,0.7,1.2,1.4,1.2h20.1
			c0.8,0,1.4-0.6,1.4-1.4v-10.8c0-0.7,0.3-1.3,0.8-1.7c0.4-0.3,0.8-0.4,1.3-0.4C-440.5,533.2-440.3,533.3-440.1,533.3z"/>
		<path id="XMLID_3_" d="M-419.4,414.6c12.3,0,24.4,2.8,35,8.1c0.3,0.1,0.6,0.2,0.9,0.2c0.3,0,0.7-0.1,1-0.2c0.6-0.3,1-0.9,1.1-1.6
			l0.4-2.9c0.3-1.8,1.8-3.1,3.6-3.1h22c1.3,0,2.6,0.7,3.2,1.9c0.7,1.2,0.7,2.6,0,3.7l-9.9,17.7c-0.4,0.8-0.3,1.7,0.2,2.4
			c5.6,6.9,9.3,14.6,11.2,22.8c0.2,1,1.1,1.6,2.1,1.6h10.4c0.2,0,0.4,0.2,0.4,0.4v20c0,0.2-0.1,0.4-0.3,0.4l-12.8,4.9
			c-0.6,0.2-1,0.7-1.2,1.3c-3,9-8.5,17.3-15.8,24.2c-0.3,0.3-0.6,0.7-0.6,1.2l-4.7,28.7c-0.1,0.7-0.7,1.2-1.4,1.2h-20.1
			c-0.8,0-1.4-0.6-1.4-1.4v-10.8c0-0.7-0.3-1.3-0.8-1.7c-0.4-0.3-0.8-0.4-1.3-0.4c-0.2,0-0.4,0-0.5,0.1c-6.7,1.8-13.8,2.7-20.8,2.7
			s-14-0.9-20.7-2.7c-0.2,0-0.4-0.1-0.5-0.1c-0.5,0-0.9,0.2-1.3,0.4c-0.5,0.4-0.8,1-0.8,1.7v10.8c0,0.8-0.6,1.4-1.4,1.4h-20.1
			c-0.7,0-1.3-0.5-1.4-1.2l-4.6-28.6c-0.1-0.5-0.3-0.9-0.6-1.2c-12.1-11.3-18.7-25.9-18.7-41.3
			C-489.6,441.8-458.1,414.6-419.4,414.6 M-419.4,407.1c-42.9,0-77.7,30.6-77.7,68.2c0,16.9,7,32.9,19.8,45.4l4.3,26.8
			c0.7,4.3,4.4,7.4,8.7,7.4h20.1c4.9,0,8.9-4,8.9-8.9v-4.1c5.2,0.9,10.5,1.4,15.9,1.4s10.8-0.5,16-1.4v4.1c0,4.9,4,8.9,8.9,8.9h20.1
			c4.4,0,8-3.1,8.7-7.4l4.4-26.9c6.9-6.8,12.3-14.9,15.6-23.6l10.5-4c3-1.1,5.1-4.1,5.1-7.4v-20.1c0-4.4-3.5-7.9-7.9-7.9h-6.2
			c-2-6.6-5.1-12.9-9.3-18.7l8.2-14.6c2-3.5,1.9-7.7-0.1-11.2s-5.7-5.5-9.7-5.5h-22c-4.2,0-7.8,2.2-9.7,5.7
			C-397.1,409.2-408.2,407.1-419.4,407.1L-419.4,407.1z"/>
	</g>
	<g>
		<path id="XMLID_1_" d="M-494.2,477.4c1,0,1.9-0.7,2.1-1.7c0.2-1.1-0.5-2.2-1.7-2.5c-0.4-0.1-10.3-2.1-10.3-10.3
			c0-1.2-0.9-2.1-2.1-2.1s-2.1,0.9-2.1,2.1c0,9.4,9,13.5,13.7,14.4C-494.5,477.4-494.3,477.4-494.2,477.4z"/>
		<path d="M-494.2,479.9c-0.3,0-0.6,0-0.8-0.1c-5.4-1-15.7-5.8-15.7-16.9c0-2.5,2.1-4.6,4.6-4.6s4.6,2.1,4.6,4.6
			c0,6.2,7.9,7.7,8.2,7.8c2.5,0.5,4.1,2.9,3.7,5.4C-490.1,478.3-492,479.9-494.2,479.9z"/>
	</g>
	<circle id="XMLID_153_" cx="-375.5" cy="460.2" r="7.8"/>
	<path d="M-431,498.6c-2.1,0-3.7-1.7-3.7-3.7v-12.3l-22.4-21l9.7-20.5l-20.7-12.4c-1.8-1.1-2.3-3.3-1.3-5.1c1.1-1.8,3.3-2.4,5.1-1.3
		l26.6,15.8l-10.2,21.7l20.8,19.5v15.5C-427.3,497-428.9,498.6-431,498.6z"/>
	<path d="M-452.6,464.6c-1.4,0-2.7-0.8-3.3-2.1c-0.9-1.8-0.2-4.1,1.7-5l23.8-11.8l14.7,12.3c1.6,1.3,1.8,3.7,0.5,5.3
		c-1.3,1.6-3.7,1.8-5.3,0.5l-11-9.2l-19.4,9.6C-451.5,464.4-452,464.6-452.6,464.6z"/>
	<path d="M-367.7,507c-0.5,0-1-0.1-1.5-0.3c-1.9-0.8-2.7-3-1.9-4.9c5-11.3,15.2-11.4,19.9-9.9c2,0.6,3,2.7,2.4,4.7s-2.7,3-4.7,2.4
		c-1.2-0.4-7.4-1.8-10.8,5.8C-364.9,506.2-366.2,507-367.7,507z"/>
</g>
</svg>
