<?xml version="1.0" encoding="utf-8"?>
<!-- Generator: Adobe Illustrator 19.0.0, SVG Export Plug-In . SVG Version: 6.00 Build 0)  -->
<svg version="1.1" id="Layer_1" xmlns="http://www.w3.org/2000/svg" xmlns:xlink="http://www.w3.org/1999/xlink" x="0px" y="0px"
	 viewBox="-326 328.9 426.5 424.1" style="enable-background:new -326 328.9 426.5 424.1;" xml:space="preserve">
<style type="text/css">
	.st0{fill:#95B9C2;}
	.st1{fill:#FFDABD;}
	.st2{fill:#002646;}
	.st3{fill:#FFFFFF;}
	.st4{fill:#6C7E8D;}
	.st5{fill:#6C7E8D;stroke:#6C7E8D;stroke-width:6;stroke-miterlimit:10;}
	.st6{fill:#6C7E8E;}
</style>
<g id="Layer_1_5_">
	<g id="Layer_2_2_">
	</g>
	<g id="Layer_1_6_">
		<g id="XMLID_18_">
		</g>
		<g id="XMLID_17_">
		</g>
		<g id="XMLID_16_">
		</g>
		<g id="XMLID_15_">
		</g>
		<g id="XMLID_14_">
		</g>
		<g id="XMLID_13_">
		</g>
	</g>
	<g>
		<path class="st0" d="M-112.8,352.4c25.5,0,50.2,5,73.4,14.8c22.5,9.5,42.6,23.1,59.9,40.4c35.6,35.6,55.2,83,55.1,133.4
			c0,25.4-5,50.1-14.8,73.4c-9.5,22.4-23.1,42.6-40.4,59.9C3.2,691.6-17,705.2-39.4,714.7c-23.2,9.8-47.9,14.8-73.4,14.8
			s-50.1-5-73.4-14.8c-22.4-9.5-42.6-23.1-59.9-40.4c-17.3-17.3-30.9-37.5-40.4-59.9c-9.8-23.2-14.8-47.9-14.8-73.4
			c0-25.4,5-50.1,14.8-73.4c9.5-22.5,23.1-42.6,40.4-60c17.3-17.3,37.5-30.9,59.9-40.4C-162.9,357.4-138.2,352.4-112.8,352.4
			 M-112.8,338.4c-111.8,0-202.5,90.8-202.5,202.6s90.7,202.5,202.5,202.5S89.7,652.8,89.7,541C89.8,429-0.9,338.4-112.8,338.4
			L-112.8,338.4z"/>
	</g>
</g>
<g id="Layer_1_2_">
	<g id="Layer_2">
	</g>
	<g id="Layer_1_1_">
		<g id="XMLID_3_">
		</g>
		<g id="XMLID_4_">
		</g>
		<g id="XMLID_5_">
		</g>
		<g id="XMLID_6_">
		</g>
		<g id="XMLID_7_">
		</g>
		<g id="XMLID_8_">
		</g>
	</g>
	<path class="st1" d="M38.2,338.3c-28.5,0-51.5,23.1-51.5,51.6s23.1,51.5,51.5,51.5s51.5-23.1,51.5-51.5
		C89.7,361.4,66.6,338.3,38.2,338.3z"/>
</g>
<g id="Isolation_Mode_1_">
	<path class="st2" d="M27.6,415.2L4.4,390.9l7.4-6.7l15,11.9c0,0,16.3-20.6,42.1-31.5l3,4.3C71.9,368.8,44.7,383.3,27.6,415.2z"/>
</g>
<g id="XMLID_431_">
	<circle id="XMLID_441_" class="st3" cx="-113" cy="500.9" r="68.7"/>
	<polygon id="XMLID_440_" class="st4" points="-105,578.2 -133.5,561.1 -136.5,559.5 -165,542.2 -232.6,654.7 -184.8,642.9 
		-173,690.9 	"/>
	<polygon id="XMLID_439_" class="st4" points="-121.1,578.2 -92.6,561.1 -89.6,559.5 -61.3,542.2 6.6,654.7 -41.2,642.9 
		-53.1,690.9 	"/>
	<g>
		<path id="XMLID_1_" class="st3" d="M-17.2,474.9c-2.4-8.6-0.8-18.9-5.1-26.7c-4.5-7.7-14.2-11.6-20.5-17.9s-10.1-16.1-17.9-20.5
			c-7.5-4.5-17.9-2.8-26.7-5.1c-8.4-2.2-16.6-8.8-25.6-8.8c-9.1,0-17.3,6.7-25.6,8.8c-8.6,2.4-18.9,0.8-26.7,5.1
			c-7.7,4.5-11.6,14.2-17.9,20.5s-16.1,10.1-20.5,17.9c-4.5,7.5-2.8,17.9-5.1,26.7c-2.2,8.4-8.8,16.6-8.8,25.6
			c0,9.1,6.7,17.3,8.8,25.6c2.4,8.6,0.8,18.9,5.1,26.7c4.5,7.7,14.2,11.6,20.5,17.9c6.3,6.3,10.1,16.1,17.9,20.5
			c7.5,4.5,17.9,2.8,26.7,5.1c8.4,2.2,16.6,8.8,25.6,8.8c9.1,0,17.3-6.7,25.6-8.8c8.6-2.4,18.9-0.8,26.7-5.1
			c7.7-4.5,11.6-14.2,17.9-20.5c6.3-6.3,16.1-10.2,20.5-17.9c4.5-7.5,2.8-17.9,5.1-26.7c2.2-8.4,8.8-16.6,8.8-25.6
			C-8.3,491.6-14.7,483.4-17.2,474.9z M-113,569.4c-38,0-68.7-30.9-68.7-68.7c0-38,30.9-68.7,68.7-68.7s68.7,30.9,68.7,68.7
			C-44.3,538.8-75.1,569.4-113,569.4z"/>
		<g>
			<path class="st4" d="M-113,436.8c-35.2,0-63.8,28.6-63.8,63.8s28.6,63.8,63.8,63.8s63.8-28.6,63.8-63.8
				C-49.3,465.4-77.8,436.8-113,436.8z"/>
			<g>
				<path class="st4" d="M-113,577.3c-42.3,0-76.7-34.4-76.7-76.7c0-42.3,34.4-76.7,76.7-76.7c42.3,0,76.7,34.4,76.7,76.7
					C-36.3,542.9-70.7,577.3-113,577.3z"/>
				<path class="st4" d="M-113,426.9c40.6,0,73.7,33.1,73.7,73.7c0,40.6-33.1,73.7-73.7,73.7s-73.7-33.1-73.7-73.7
					S-153.6,426.9-113,426.9 M-113,420.9c-43.9,0-79.7,35.8-79.7,79.7s35.8,79.7,79.7,79.7s79.7-35.8,79.7-79.7
					S-69.1,420.9-113,420.9L-113,420.9z"/>
			</g>
			<path class="st5" d="M-8.7,482.5c-1.4-3.1-2.7-6-3.6-8.8c-0.8-3-1.2-6.5-1.5-10c-0.5-6-1-12.2-4.2-17.9
				c-3.2-5.7-8.5-9.3-13.5-12.9c-2.9-2-5.7-4-7.7-6.1c-2.1-2.2-4-4.9-6-7.7c-3.6-5.1-7.2-10.4-12.9-13.5c-5.5-3.3-11.9-3.8-18-4.3
				c-3.6-0.2-6.9-0.5-10-1.4c-2.8-0.7-5.9-2.2-9-3.7c-5.3-2.5-11.3-5.3-17.9-5.3c-6.6,0-12.7,2.8-17.9,5.3c-3.1,1.5-6.2,2.9-9.1,3.7
				c-3,0.8-6.5,1.2-10,1.5c-6,0.5-12.2,1-17.9,4.2c-5.7,3.2-9.3,8.5-12.9,13.5c-2,2.9-4,5.7-6.1,7.7c-2.2,2.1-4.9,4-7.7,6
				c-5.1,3.6-10.4,7.2-13.5,12.9c-3.3,5.5-3.8,11.9-4.3,18c-0.2,3.6-0.5,6.9-1.4,10c-0.7,2.8-2.2,5.9-3.7,9
				c-2.5,5.3-5.3,11.3-5.3,17.9s2.8,12.7,5.3,17.9c1.5,3.1,2.9,6.2,3.7,9.1c0.8,3,1.2,6.5,1.5,10c0.5,6,1,12.2,4.2,17.9
				c3.2,5.7,8.5,9.3,13.5,12.9c2.9,2,5.7,4,7.7,6.1c2.1,2.2,4,4.9,6,7.7c3.6,5.1,7.2,10.4,12.9,13.5c5.5,3.3,11.9,3.8,18,4.3
				c3.6,0.3,6.9,0.5,10,1.4c2.8,0.7,5.9,2.2,9,3.7c5.3,2.5,11.3,5.3,17.9,5.3c6.6,0,12.6-2.8,17.9-5.3c3.1-1.5,6.2-2.9,9.1-3.7
				c3-0.8,6.5-1.2,10-1.5c6-0.5,12.2-1,17.9-4.2c5.7-3.2,9.3-8.5,12.9-13.5c2-2.9,4-5.7,6.1-7.7c2.2-2.1,4.8-4,7.7-6
				c5.1-3.6,10.4-7.2,13.5-12.9c3.2-5.5,3.8-11.9,4.3-18c0.2-3.6,0.5-6.9,1.4-10c0.7-2.8,2.2-5.9,3.7-9c2.5-5.3,5.3-11.3,5.3-17.9
				C-3.2,494-6.2,487.9-8.7,482.5z M-17.2,526.2c-2.3,8.8-0.6,19.1-5.1,26.7c-4.4,7.7-14.2,11.6-20.5,17.9s-10.2,16-17.9,20.5
				c-7.7,4.3-18.1,2.7-26.7,5.1c-8.4,2.1-16.5,8.8-25.6,8.8c-9,0-17.3-6.6-25.6-8.8c-8.8-2.3-19.1-0.6-26.7-5.1
				c-7.7-4.4-11.6-14.2-17.9-20.5c-6.3-6.3-16-10.2-20.5-17.9c-4.3-7.7-2.7-18.1-5.1-26.7c-2.1-8.4-8.8-16.5-8.8-25.6
				c0-9,6.6-17.3,8.8-25.6c2.3-8.8,0.6-19.1,5.1-26.7c4.4-7.7,14.2-11.6,20.5-17.9s10.1-16,17.9-20.5c7.7-4.3,18.1-2.7,26.7-5.1
				c8.4-2.1,16.5-8.8,25.6-8.8c9,0,17.3,6.6,25.6,8.8c8.8,2.3,19.1,0.6,26.7,5.1c7.7,4.4,11.6,14.2,17.9,20.5
				c6.3,6.3,16,10.1,20.5,17.9c4.3,7.7,2.7,18.1,5.1,26.7c2.4,8.5,8.9,16.6,8.8,25.6C-8.4,509.6-15,517.8-17.2,526.2z"/>
		</g>
	</g>
	<circle id="XMLID_435_" class="st3" cx="-113" cy="500.9" r="68.7"/>
	<polygon class="st6" points="-112.9,530.3 -146.7,552.9 -135.7,513.8 -167.6,488.6 -127,487 -112.9,448.9 -98.9,487 -58.3,488.6 
		-90.2,513.8 -79.2,552.9 	"/>
</g>
</svg>
