<?xml version="1.0" encoding="utf-8"?>
<!-- Generator: Adobe Illustrator 19.0.0, SVG Export Plug-In . SVG Version: 6.00 Build 0)  -->
<svg version="1.1" id="Layer_1" xmlns="http://www.w3.org/2000/svg" xmlns:xlink="http://www.w3.org/1999/xlink" x="0px" y="0px"
	 viewBox="-389 391 300 300" style="enable-background:new -389 391 300 300;" xml:space="preserve">
<style type="text/css">
	.st0{fill:#0066FF;}
	.st1{fill:#FFFFFF;}
	.st2{fill:#A4EEFF;}
	.st3{fill:none;}
	.st4{fill:#1FEAA1;}
	.st5{fill:#28CE8E;}
</style>
<g id="Layer_2">
</g>
<g id="XMLID_619_">
	<g>
		<polygon id="XMLID_23_" class="st0" points="-204.5,514.6 -204.5,494.2 -189.4,494.2 -189.4,528.4 -204.5,528.4 		"/>
		<path d="M-189.4,531.4h-15.2c-1.6,0-2.9-1.3-2.9-2.9v-34.3c0-1.6,1.3-2.9,2.9-2.9h15.2c1.6,0,2.9,1.3,2.9,2.9v34.3
			C-186.4,530-187.7,531.4-189.4,531.4z M-201.6,525.5h9.3v-28.4h-9.3V525.5z"/>
	</g>
	<g>
		<polygon id="XMLID_22_" class="st1" points="-292.9,545.1 -292.9,626.4 -191.8,626.4 -191.8,545.1 -242.7,504.5 		"/>
		<path d="M-191.8,629.4h-101.1c-1.6,0-2.9-1.3-2.9-2.9v-81.3c0-0.9,0.4-1.7,1.1-2.3l50.1-40.7c1.1-0.9,2.6-0.9,3.7,0l51,40.7
			c0.7,0.6,1.1,1.4,1.1,2.3v81.3C-188.9,628.1-190.2,629.4-191.8,629.4z M-289.9,623.5h95.2v-77l-48-38.3l-47.2,38.3V623.5z"/>
	</g>
	<g>
		<polygon id="XMLID_21_" class="st0" points="-242.7,504.5 -301.9,552.5 -313.7,541.9 -242.7,483.4 -172.1,541.2 -183.8,551.7 		
			"/>
		<path d="M-301.9,555.4c-0.7,0-1.4-0.3-2-0.7l-11.8-10.5c-0.6-0.6-1-1.4-1-2.3c0-0.9,0.4-1.7,1.1-2.2l71-58.5
			c1.1-0.9,2.6-0.9,3.7,0l70.7,57.8c0.7,0.5,1.1,1.4,1.1,2.2c0,0.9-0.3,1.7-1,2.3l-11.8,10.5c-1.1,1-2.7,1-3.8,0.1l-57-45.8
			l-57.3,46.5C-300.6,555.2-301.3,555.4-301.9,555.4z M-309.2,542l7.4,6.6l57.2-46.4c1.1-0.9,2.6-0.9,3.7,0l57,45.7l7.4-6.6
			l-66.1-54.1L-309.2,542z"/>
	</g>
	<g>
		<rect id="XMLID_20_" x="-279.9" y="553.4" class="st2" width="28.9" height="24"/>
		<path d="M-251,580.4h-28.9c-1.6,0-2.9-1.3-2.9-2.9v-24c0-1.6,1.3-2.9,2.9-2.9h28.9c1.6,0,2.9,1.3,2.9,2.9v24
			C-248.1,579.1-249.4,580.4-251,580.4z M-276.9,574.5h23v-18.1h-23V574.5z"/>
	</g>
	<g>
		<rect id="XMLID_19_" x="-236.3" y="553.4" class="st2" width="28.9" height="24"/>
		<path d="M-207.4,580.4h-28.9c-1.6,0-2.9-1.3-2.9-2.9v-24c0-1.6,1.3-2.9,2.9-2.9h28.9c1.6,0,2.9,1.3,2.9,2.9v24
			C-204.5,579.1-205.8,580.4-207.4,580.4z M-233.3,574.5h23v-18.1h-23V574.5z"/>
	</g>
	<g>
		<circle id="XMLID_18_" class="st2" cx="-243.3" cy="532.4" r="11.8"/>
		<path d="M-243.3,547.1c-8.1,0-14.7-6.6-14.7-14.7s6.6-14.7,14.7-14.7s14.7,6.6,14.7,14.7C-228.6,540.5-235.1,547.1-243.3,547.1z
			 M-243.3,523.6c-4.9,0-8.8,4-8.8,8.8s4,8.8,8.8,8.8s8.8-4,8.8-8.8S-238.4,523.6-243.3,523.6z"/>
	</g>
	<g>
		<rect id="XMLID_17_" x="-257.9" y="589.2" class="st0" width="26.5" height="37.2"/>
		<path d="M-231.5,629.4H-258c-1.6,0-2.9-1.3-2.9-2.9v-37.2c0-1.6,1.3-2.9,2.9-2.9h26.5c1.6,0,2.9,1.3,2.9,2.9v37.2
			C-228.6,628.1-229.9,629.4-231.5,629.4z M-255,623.5h20.6v-31.4H-255V623.5z"/>
	</g>
	<g>
		<line id="XMLID_16_" class="st3" x1="-279.9" y1="589.2" x2="-207.4" y2="589.2"/>
		<path d="M-207.4,592.1h-72.5c-1.6,0-2.9-1.3-2.9-2.9c0-1.6,1.3-2.9,2.9-2.9h72.5c1.6,0,2.9,1.3,2.9,2.9
			C-204.5,590.8-205.8,592.1-207.4,592.1z"/>
	</g>
	<g id="XMLID_607_">
		<path id="XMLID_621_" class="st4" d="M-239.8,620.6v15.7h15C-224.7,627.9-231.4,621-239.8,620.6z"/>
		<path id="XMLID_618_" class="st4" d="M-239.8,590.4v15.7c8.6,0,15.7-7,15.7-15.6L-239.8,590.4z"/>
		<g>
			<rect id="XMLID_15_" x="-240.5" y="589.2" class="st4" width="93.7" height="58.7"/>
			<path d="M-143.9,650.8h-99.6v-64.5h99.6V650.8z M-237.5,644.9h87.8v-52.8h-87.8V644.9z"/>
		</g>
		<circle id="XMLID_616_" class="st5" cx="-192.8" cy="618.5" r="17.5"/>
		<path d="M-239.4,609.1c-0.3,0-0.5,0-0.5,0c-1.6-0.1-2.9-1.5-2.8-3.1c0.1-1.6,1.5-2.9,3.1-2.8c0.1,0,5.6,0.2,9.2-3.2
			c2.2-2.1,3.4-5.3,3.4-9.5c0-1.6,1.3-2.9,2.9-2.9s2.9,1.3,2.9,2.9c0,5.9-1.8,10.5-5.2,13.8C-231.1,608.7-237.5,609.1-239.4,609.1z"
			/>
		<path d="M-147.2,608.9c-1.9,0-8.3-0.4-13-4.8c-3.5-3.3-5.2-7.9-5.2-13.8c0-1.6,1.3-2.9,2.9-2.9c1.6,0,2.9,1.3,2.9,2.9
			c0,4.2,1.1,7.4,3.4,9.5c3.6,3.4,9.1,3.2,9.2,3.2c1.6-0.1,3,1.2,3.1,2.8s-1.1,3-2.8,3.1C-146.7,608.9-146.9,608.9-147.2,608.9z"/>
		<path d="M-162.5,650.8c-1.6,0-2.9-1.3-2.9-2.9c0-5.9,1.8-10.5,5.2-13.8c5.5-5.2,13.2-4.8,13.5-4.8c1.6,0.1,2.9,1.5,2.8,3.1
			c-0.1,1.6-1.5,2.9-3.1,2.8c-0.1,0-5.6-0.2-9.2,3.2c-2.2,2.1-3.4,5.3-3.4,9.5C-159.5,649.5-160.8,650.8-162.5,650.8z"/>
		<path d="M-224.1,650.8c-1.6,0-2.9-1.3-2.9-2.9c0-4.2-1.1-7.4-3.4-9.5c-3.6-3.5-9.2-3.2-9.2-3.2c-1.6,0-3-1.2-3.1-2.8
			s1.1-3,2.8-3.1c0.3,0,8.1-0.4,13.5,4.8c3.5,3.3,5.2,7.9,5.2,13.8C-221.2,649.5-222.5,650.8-224.1,650.8z"/>
		<path id="XMLID_609_" d="M-203.6,628.8l2.8-5c0.8,0.7,1.6,1.3,2.3,1.9c0.7,0.6,1.5,1,2.3,1.3s1.8,0.5,2.9,0.5
			c1.1,0,1.9-0.3,2.6-0.9c0.7-0.6,1-1.3,1-2.2c0-0.8-0.3-1.5-0.9-2.1c-0.6-0.6-1.4-1.1-2.4-1.5s-2-0.9-3.2-1.3s-2.2-1-3.2-1.6
			s-1.8-1.4-2.4-2.3s-0.9-2.1-0.9-3.4c0-1.8,0.6-3.4,1.9-4.8s3-2.2,5.3-2.6l-0.2-3.5h4.8l-0.2,3.4c1.2,0.1,2.3,0.4,3.4,0.8
			c1.1,0.4,2.2,0.9,3.4,1.4l-2.7,4.6c-1.1-0.6-2-1.1-2.9-1.5s-2-0.5-3.2-0.5c-1,0-1.8,0.2-2.4,0.7s-0.9,1-0.9,1.7
			c0,0.8,0.3,1.4,0.9,1.9s1.4,1,2.4,1.4s2,0.9,3.2,1.3c1.1,0.5,2.2,1,3.2,1.6s1.8,1.4,2.4,2.3s0.9,2.1,0.9,3.4
			c0,1.2-0.3,2.4-0.9,3.6c-0.6,1.2-1.4,2.2-2.5,3s-2.5,1.4-4.2,1.7l0.2,3.5h-4.8l0.2-3.4c-1.5-0.2-2.9-0.6-4.2-1.1
			C-201.1,630.5-202.4,629.8-203.6,628.8z"/>
	</g>
</g>
</svg>
