<?xml version="1.0" encoding="utf-8"?>
<!-- Generator: Adobe Illustrator 19.0.0, SVG Export Plug-In . SVG Version: 6.00 Build 0)  -->
<svg version="1.1" id="Layer_1" xmlns="http://www.w3.org/2000/svg" xmlns:xlink="http://www.w3.org/1999/xlink" x="0px" y="0px"
	 viewBox="-326 328.9 426.5 424.1" style="enable-background:new -326 328.9 426.5 424.1;" xml:space="preserve">
<style type="text/css">
	.st0{fill:#95B9C2;}
	.st1{fill:none;stroke:#6C7E8D;stroke-width:13;stroke-miterlimit:10;}
	.st2{fill:#6C7E8D;}
	.st3{fill:none;stroke:#6C7E8D;stroke-width:13;stroke-linecap:round;stroke-miterlimit:10;}
</style>
<g id="Layer_1_3_">
	<g id="Layer_2_1_">
	</g>
	<g id="Layer_1_4_">
		<g id="XMLID_12_">
		</g>
		<g id="XMLID_11_">
		</g>
		<g id="XMLID_10_">
		</g>
		<g id="XMLID_9_">
		</g>
		<g id="XMLID_2_">
		</g>
		<g id="XMLID_1_">
		</g>
	</g>
	<g>
		<path class="st0" d="M-112.8,352.4c25.5,0,50.2,5,73.4,14.8c22.5,9.5,42.6,23.1,59.9,40.4c35.6,35.6,55.2,83,55.1,133.4
			c0,25.4-5,50.1-14.8,73.4c-9.5,22.4-23.1,42.6-40.4,59.9C3.2,691.6-17,705.2-39.4,714.7c-23.2,9.8-47.9,14.8-73.4,14.8
			s-50.1-5-73.4-14.8c-22.4-9.5-42.6-23.1-59.9-40.4c-17.3-17.3-30.9-37.5-40.4-59.9c-9.8-23.2-14.8-47.9-14.8-73.4
			c0-25.4,5-50.1,14.8-73.4c9.5-22.5,23.1-42.6,40.4-60c17.3-17.3,37.5-30.9,59.9-40.4C-162.9,357.4-138.2,352.4-112.8,352.4
			 M-112.8,338.4c-111.8,0-202.5,90.8-202.5,202.6s90.7,202.5,202.5,202.5S89.7,652.8,89.7,541C89.8,429-0.9,338.4-112.8,338.4
			L-112.8,338.4z"/>
	</g>
</g>
<path class="st1" d="M-26.2,658.5h-173c-3.3,0-6-2.7-6-6v-207c0-3.3,2.7-6,6-6h173c3.3,0,6,2.7,6,6v207
	C-20.2,655.8-23,658.5-26.2,658.5z"/>
<path class="st1" d="M-169.7,439.4c0,0-1-21.9,11.7-21.9s24,0,24,0"/>
<path class="st2" d="M-176.2,439.7c-0.1-1.6-0.5-16.2,6.8-23.9c3-3.2,6.9-4.8,11.3-4.8h24v13h-24c-0.8,0-1.4,0.2-1.9,0.8
	c-2.8,2.9-3.4,11-3.2,14.3L-176.2,439.7z"/>
<path class="st1" d="M-55.7,439.4c0,0,1-21.9-11.7-21.9s-24,0-24,0"/>
<line class="st3" x1="-169.7" y1="487.6" x2="-55.7" y2="487.6"/>
<line class="st3" x1="-169.7" y1="531.9" x2="-55.7" y2="531.9"/>
<line class="st3" x1="-169.7" y1="576.2" x2="-55.7" y2="576.2"/>
<line class="st3" x1="-169.7" y1="620.6" x2="-55.7" y2="620.6"/>
<path class="st2" d="M-125.4,424.1c-1.5-2.3-2.3-5.1-2.3-8c0-8.3,6.7-15,15-15s15,6.7,15,15c0,2.9-0.9,5.7-2.3,8h14.2
	c0.8-2.5,1.2-5.2,1.2-8c0-15.5-12.5-28-28-28c-15.5,0-28,12.5-28,28c0,2.8,0.4,5.5,1.2,8H-125.4z"/>
<circle class="st2" cx="-112.8" cy="415" r="5.6"/>
</svg>
