<?xml version="1.0" encoding="utf-8"?>
<!-- Generator: Adobe Illustrator 19.0.0, SVG Export Plug-In . SVG Version: 6.00 Build 0)  -->
<svg version="1.1" id="Layer_1" xmlns="http://www.w3.org/2000/svg" xmlns:xlink="http://www.w3.org/1999/xlink" x="0px" y="0px"
	 viewBox="-326 328.9 426.5 424.1" style="enable-background:new -326 328.9 426.5 424.1;" xml:space="preserve">
<style type="text/css">
	.st0{fill:#95B9C2;}
	.st1{fill:none;stroke:#6C7E8D;stroke-width:13;stroke-miterlimit:10;}
	.st2{fill:#6C7E8D;}
</style>
<g id="Layer_1_3_">
	<g id="Layer_2_1_">
	</g>
	<g id="Layer_1_4_">
		<g id="XMLID_12_">
		</g>
		<g id="XMLID_11_">
		</g>
		<g id="XMLID_10_">
		</g>
		<g id="XMLID_9_">
		</g>
		<g id="XMLID_2_">
		</g>
		<g id="XMLID_1_">
		</g>
	</g>
	<g>
		<path class="st0" d="M-112.8,352.4c25.5,0,50.2,5,73.4,14.8c22.5,9.5,42.6,23.1,59.9,40.4c35.6,35.6,55.2,83,55.1,133.4
			c0,25.4-5,50.1-14.8,73.4c-9.5,22.4-23.1,42.6-40.4,59.9C3.2,691.6-17,705.2-39.4,714.7c-23.2,9.8-47.9,14.8-73.4,14.8
			s-50.1-5-73.4-14.8c-22.4-9.5-42.6-23.1-59.9-40.4c-17.3-17.3-30.9-37.5-40.4-59.9c-9.8-23.2-14.8-47.9-14.8-73.4
			c0-25.4,5-50.1,14.8-73.4c9.5-22.5,23.1-42.6,40.4-60c17.3-17.3,37.5-30.9,59.9-40.4C-162.9,357.4-138.2,352.4-112.8,352.4
			 M-112.8,338.4c-111.8,0-202.5,90.8-202.5,202.6s90.7,202.5,202.5,202.5S89.7,652.8,89.7,541C89.8,429-0.9,338.4-112.8,338.4
			L-112.8,338.4z"/>
	</g>
</g>
<g>
	<path class="st1" d="M-89,469.1l28.5-28.5c13.1-13.1,34.4-13.1,47.5,0l0,0C0,453.7,0,475-13,488.1l-28.5,28.5"/>
	<polygon class="st1" points="-202.9,583.1 -222.3,649.9 -155.5,630.5 -29,504 -76.4,456.6 	"/>
	<line class="st1" x1="-64.7" y1="468.3" x2="-192.5" y2="596.2"/>
	<line class="st1" x1="-52.7" y1="480.3" x2="-180.5" y2="608.1"/>
	<line class="st1" x1="-40.6" y1="492.4" x2="-168.5" y2="620.2"/>
	<polygon class="st2" points="-214.1,621.5 -193.9,641.7 -222.3,649.9 	"/>
</g>
</svg>
