<?xml version="1.0" encoding="utf-8"?>
<!-- Generator: Adobe Illustrator 19.0.0, SVG Export Plug-In . SVG Version: 6.00 Build 0)  -->
<svg version="1.1" id="Layer_1" xmlns="http://www.w3.org/2000/svg" xmlns:xlink="http://www.w3.org/1999/xlink" x="0px" y="0px"
	 viewBox="-326 328.9 426.5 424.1" style="enable-background:new -326 328.9 426.5 424.1;" xml:space="preserve">
<style type="text/css">
	.st0{fill:#95B9C2;}
	.st1{fill:#002646;}
	.st2{fill:#FFDABD;stroke:#002646;stroke-width:13;stroke-miterlimit:10;}
	.st3{fill:#FFDABD;}
</style>
<path class="st0" d="M-112.8,352.4c25.5,0,50.2,5,73.4,14.8c22.5,9.5,42.6,23.1,59.9,40.4c35.6,35.6,55.2,83,55.1,133.4
	c0,25.4-5,50.1-14.8,73.4c-9.5,22.4-23.1,42.6-40.4,59.9C3.2,691.6-17,705.2-39.4,714.8c-23.2,9.8-47.9,14.8-73.4,14.8
	s-50.1-5-73.4-14.8c-22.4-9.5-42.6-23.1-59.9-40.4c-17.3-17.3-30.9-37.5-40.4-59.9c-9.8-23.2-14.8-47.9-14.8-73.4
	c0-25.4,5-50.1,14.8-73.4c9.5-22.5,23.1-42.6,40.4-60c17.3-17.3,37.5-30.9,59.9-40.4C-162.9,357.4-138.2,352.4-112.8,352.4"/>
<g id="Layer_1_1_">
	<g id="Layer_2_2_">
	</g>
	<g id="Layer_1_2_">
		<g id="XMLID_8_">
		</g>
		<g id="XMLID_7_">
		</g>
		<g id="XMLID_6_">
		</g>
		<g id="XMLID_5_">
		</g>
		<g id="XMLID_4_">
		</g>
		<g id="XMLID_3_">
		</g>
	</g>
	<g>
		<path class="st1" d="M-112.8,352.4c25.5,0,50.2,5,73.4,14.8c22.5,9.5,42.6,23.1,59.9,40.4c35.6,35.6,55.2,83,55.1,133.4
			c0,25.4-5,50.1-14.8,73.4c-9.5,22.4-23.1,42.6-40.4,59.9C3.2,691.6-17,705.2-39.4,714.8c-23.2,9.8-47.9,14.8-73.4,14.8
			s-50.1-5-73.4-14.8c-22.4-9.5-42.6-23.1-59.9-40.4c-17.3-17.3-30.9-37.5-40.4-59.9c-9.8-23.2-14.8-47.9-14.8-73.4
			c0-25.4,5-50.1,14.8-73.4c9.5-22.5,23.1-42.6,40.4-60c17.3-17.3,37.5-30.9,59.9-40.4C-162.9,357.4-138.2,352.4-112.8,352.4
			 M-112.8,338.4c-111.8,0-202.5,90.8-202.5,202.6s90.7,202.5,202.5,202.5S89.7,652.8,89.7,541C89.8,429-0.9,338.4-112.8,338.4
			L-112.8,338.4z"/>
	</g>
</g>
<polygon class="st2" points="-56.7,635.8 -220.8,541 -56.5,446.1 -45.3,463.1 -180.3,541 -45.3,618.9 "/>
<g>
	<path class="st3" d="M-45.3,477.7c-14,0-25.3-11.4-25.3-25.3S-59.3,427-45.3,427S-20,438.4-20,452.3S-31.3,477.7-45.3,477.7z"/>
	<path class="st1" d="M-45.3,433.5c10.4,0,18.8,8.4,18.8,18.8c0,10.4-8.4,18.8-18.8,18.8s-18.8-8.4-18.8-18.8
		C-64.1,441.9-55.7,433.5-45.3,433.5 M-45.3,420.5c-17.5,0-31.8,14.3-31.8,31.8s14.3,31.8,31.8,31.8s31.8-14.3,31.8-31.8
		S-27.8,420.5-45.3,420.5L-45.3,420.5z"/>
</g>
<g>
	<path class="st3" d="M-220.8,566.3c-14,0-25.3-11.4-25.3-25.3s11.4-25.3,25.3-25.3s25.3,11.4,25.3,25.3S-206.8,566.3-220.8,566.3z"
		/>
	<path class="st1" d="M-220.8,522.2c10.4,0,18.8,8.4,18.8,18.8s-8.4,18.8-18.8,18.8s-18.8-8.4-18.8-18.8S-231.2,522.2-220.8,522.2
		 M-220.8,509.2c-17.5,0-31.8,14.3-31.8,31.8s14.3,31.8,31.8,31.8S-189,558.5-189,541S-203.3,509.2-220.8,509.2L-220.8,509.2z"/>
</g>
<g>
	<path class="st3" d="M-45.3,652.3c-14,0-25.3-11.4-25.3-25.3s11.4-25.3,25.3-25.3S-20,613-20,627S-31.3,652.3-45.3,652.3z"/>
	<path class="st1" d="M-45.3,608.1c10.4,0,18.8,8.4,18.8,18.8c0,10.4-8.4,18.8-18.8,18.8s-18.8-8.4-18.8-18.8
		C-64.1,616.6-55.7,608.1-45.3,608.1 M-45.3,595.1c-17.5,0-31.8,14.3-31.8,31.8s14.3,31.8,31.8,31.8s31.8-14.3,31.8-31.8
		S-27.8,595.1-45.3,595.1L-45.3,595.1z"/>
</g>
</svg>
