<?xml version="1.0" encoding="utf-8"?>
<!-- Generator: Adobe Illustrator 19.0.0, SVG Export Plug-In . SVG Version: 6.00 Build 0)  -->
<svg version="1.1" id="Layer_1" xmlns="http://www.w3.org/2000/svg" xmlns:xlink="http://www.w3.org/1999/xlink" x="0px" y="0px"
	 viewBox="-389 391 300 300" style="enable-background:new -389 391 300 300;" xml:space="preserve">
<style type="text/css">
	.st0{fill:#FFFFFF;}
	.st1{fill:#0066FF;}
	.st2{fill:#1FEAA1;}
	.st3{fill:#A4EEFF;}
	.st4{fill:#231F20;}
</style>
<g id="Layer_2">
</g>
<g id="XMLID_150_">
	<path d="M-90.5,623h-295.9c-1.4,0-2.5-1.1-2.5-2.5s1.1-2.5,2.5-2.5h295.9c1.4,0,2.5,1.1,2.5,2.5S-89.1,623-90.5,623z"/>
	<path d="M-123.2,622.8h-230.7c-1.4,0-2.5-1.1-2.5-2.5s1.1-2.5,2.5-2.5h230.7c1.4,0,2.5,1.1,2.5,2.5S-121.8,622.8-123.2,622.8z"/>
	<g>
		<rect id="XMLID_5_" x="-315.2" y="552.6" class="st0" width="153.5" height="67.8"/>
		<path d="M-161.8,623h-153.5c-1.4,0-2.5-1.1-2.5-2.5v-67.8c0-1.4,1.1-2.5,2.5-2.5h153.5c1.4,0,2.5,1.1,2.5,2.5v67.8
			C-159.2,621.8-160.4,623-161.8,623z M-312.7,617.9h148.4v-62.7h-148.4V617.9z"/>
	</g>
	<g>
		<polygon id="XMLID_4_" class="st1" points="-338.1,552.8 -238.5,489.2 -138.9,552.8 		"/>
		<path d="M-138.9,555.3h-199.3c-1.1,0-2.1-0.7-2.4-1.8c-0.3-1.1,0.1-2.2,1.1-2.9l99.6-63.6c0.8-0.5,1.9-0.5,2.7,0l99.6,63.6
			c1,0.6,1.4,1.8,1.1,2.9C-136.7,554.6-137.7,555.3-138.9,555.3z M-329.4,550.2h181.8l-90.9-58L-329.4,550.2z"/>
	</g>
	<g>
		<rect id="XMLID_3_" x="-254.5" y="565.8" class="st2" width="32.1" height="54.6"/>
		<path d="M-222.5,623h-32.1c-1.4,0-2.5-1.1-2.5-2.5v-54.6c0-1.4,1.1-2.5,2.5-2.5h32.1c1.4,0,2.5,1.1,2.5,2.5v54.6
			C-219.9,621.8-221.1,623-222.5,623z M-252,617.9h27v-49.5h-27V617.9z"/>
	</g>
	<g>
		<rect id="XMLID_2_" x="-303.4" y="565.8" class="st3" width="35.6" height="23.2"/>
		<path d="M-267.8,591.6h-35.6c-1.4,0-2.5-1.1-2.5-2.5v-23.2c0-1.4,1.1-2.5,2.5-2.5h35.6c1.4,0,2.5,1.1,2.5,2.5v23.2
			C-265.2,590.5-266.3,591.6-267.8,591.6z M-300.8,586.5h30.5v-18.1h-30.5V586.5z"/>
	</g>
	<g>
		<rect id="XMLID_1_" x="-209.2" y="565.8" class="st3" width="35.6" height="23.2"/>
		<path d="M-173.6,591.6h-35.6c-1.4,0-2.5-1.1-2.5-2.5v-23.2c0-1.4,1.1-2.5,2.5-2.5h35.6c1.4,0,2.5,1.1,2.5,2.5v23.2
			C-171.1,590.5-172.2,591.6-173.6,591.6z M-206.7,586.5h30.5v-18.1h-30.5V586.5z"/>
	</g>
	<path d="M-285.6,591.6c-1.4,0-2.5-1.1-2.5-2.5v-23.2c0-1.4,1.1-2.5,2.5-2.5c1.4,0,2.5,1.1,2.5,2.5v23.2
		C-283,590.5-284.2,591.6-285.6,591.6z"/>
	<path d="M-191.4,591.6c-1.4,0-2.5-1.1-2.5-2.5v-23.2c0-1.4,1.1-2.5,2.5-2.5c1.4,0,2.5,1.1,2.5,2.5v23.2
		C-188.9,590.5-190,591.6-191.4,591.6z"/>
	<rect id="XMLID_196_" x="-245.9" y="573.8" class="st4" width="14.8" height="17.2"/>
</g>
<rect x="-241.3" y="425.8" class="st2" width="5.1" height="53"/>
<rect x="-297.2" y="462.4" transform="matrix(0.3827 0.9239 -0.9239 0.3827 257.414 544.7439)" class="st2" width="36.5" height="5.1"/>
<rect x="-344.2" y="475.2" transform="matrix(0.7071 0.7071 -0.7071 0.7071 244.7741 364.5886)" class="st2" width="53" height="5.1"/>
<rect x="-359" y="503.3" transform="matrix(0.9239 0.3827 -0.3827 0.9239 167.756 168.2377)" class="st2" width="39.9" height="5.1"/>
<rect x="-198.2" y="446.7" transform="matrix(0.9238 0.3828 -0.3828 0.9238 163.098 110.3269)" class="st2" width="5.1" height="36.5"/>
<rect x="-159.4" y="451.3" transform="matrix(0.7071 0.7071 -0.7071 0.7071 291.8728 250.8685)" class="st2" width="5.1" height="53"/>
<rect x="-138.1" y="485.8" transform="matrix(0.3828 0.9238 -0.9238 0.3828 383.599 437.421)" class="st2" width="5.1" height="39.9"/>
</svg>
