<?xml version="1.0" encoding="utf-8"?>
<!-- Generator: Adobe Illustrator 19.0.0, SVG Export Plug-In . SVG Version: 6.00 Build 0)  -->
<svg version="1.1" id="Layer_1" xmlns="http://www.w3.org/2000/svg" xmlns:xlink="http://www.w3.org/1999/xlink" x="0px" y="0px"
	 viewBox="-389 391 300 300" style="enable-background:new -389 391 300 300;" xml:space="preserve">
<style type="text/css">
	.st0{fill:#FF22B5;}
</style>
<g id="Layer_2">
</g>
<g>
	<g>
		<circle id="XMLID_5_" class="st0" cx="-239" cy="541" r="74.5"/>
		<path id="XMLID_1_" d="M-239,474c36.9,0,67,30,67,67c0,36.9-30,67-67,67s-67-30-67-67C-305.9,504.1-275.9,474-239,474 M-239,466.5
			c-41.2,0-74.5,33.4-74.5,74.5c0,41.2,33.4,74.5,74.5,74.5s74.5-33.4,74.5-74.5C-164.4,499.8-197.8,466.5-239,466.5L-239,466.5z"/>
	</g>
	<g id="XMLID_97_">
		<circle cx="-264.5" cy="520.4" r="11.5"/>
	</g>
	<g id="XMLID_94_">
		<circle cx="-211.1" cy="520.4" r="11.5"/>
	</g>
	<path d="M-239,582.6c-29.2,0-40.1-26.4-40.6-27.5c-0.8-1.9,0.2-4.1,2.1-4.9c1.9-0.8,4.1,0.2,4.9,2.1c0.4,0.9,9.5,22.8,33.6,22.8
		c24.3,0,35.5-22.1,36-23c0.9-1.9,3.2-2.6,5.1-1.7s2.6,3.2,1.7,5C-196.8,556.5-209.9,582.6-239,582.6z"/>
</g>
</svg>
