<?xml version="1.0" encoding="utf-8"?>
<!-- Generator: Adobe Illustrator 19.0.0, SVG Export Plug-In . SVG Version: 6.00 Build 0)  -->
<svg version="1.1" id="Layer_1" xmlns="http://www.w3.org/2000/svg" xmlns:xlink="http://www.w3.org/1999/xlink" x="0px" y="0px"
	 viewBox="-569 331 300 300" style="enable-background:new -569 331 300 300;" xml:space="preserve">
<style type="text/css">
	.st0{fill:#FF4848;}
</style>
<g id="Layer_2">
</g>
<g id="XMLID_126_">
	<g id="XMLID_128_">
		<g>
			<path class="st0" d="M-419,406.5c-41.2,0-74.5,33.4-74.5,74.5s33.3,74.5,74.5,74.5s74.5-33.4,74.5-74.5S-377.8,406.5-419,406.5z
				 M-380.8,508.5l-10.7,10.7l-27.6-27.6l-27.6,27.6l-10.7-10.7l27.6-27.6l-27.6-27.6l10.7-10.7l27.6,27.6l27.6-27.6l10.7,10.7
				l-27.6,27.6L-380.8,508.5z"/>
		</g>
	</g>
	<path id="XMLID_1_" d="M-419,414c36.9,0,67,30,67,67c0,36.9-30,67-67,67s-67-30-67-67C-486,444.1-455.9,414-419,414 M-419,406.5
		c-41.2,0-74.5,33.4-74.5,74.5s33.3,74.5,74.5,74.5s74.5-33.4,74.5-74.5S-377.8,406.5-419,406.5L-419,406.5z"/>
</g>
</svg>
