<?xml version="1.0" encoding="utf-8"?>
<!-- Generator: Adobe Illustrator 19.0.0, SVG Export Plug-In . SVG Version: 6.00 Build 0)  -->
<svg version="1.1" id="Layer_1" xmlns="http://www.w3.org/2000/svg" xmlns:xlink="http://www.w3.org/1999/xlink" x="0px" y="0px"
	 viewBox="-389 391 300 300" style="enable-background:new -389 391 300 300;" xml:space="preserve">
<style type="text/css">
	.st0{fill:#95B9C2;}
	.st1{fill:#FFFFFF;}
	.st2{fill:#6C7E8D;}
	.st3{fill:none;stroke:#6C7E8D;stroke-width:3;stroke-miterlimit:10;}
	.st4{fill:#FFDABD;}
	.st5{font-family:'KumbhSans-Black';}
	.st6{font-size:43px;}
</style>
<g id="Layer_2">
</g>
<g>
	<g>
		<polygon class="st0" points="-228.6,510.8 -239.8,554.7 -230.4,580.9 -187.4,580.9 -191.8,507.4 		"/>
		<path class="st0" d="M-327.6,509.1c0,0,2,26.8-12.9,26.3l2.1,45.6l66.1-0.1l-5.4-44.7c0,0-20.9,3.5-17.6-25.5L-327.6,509.1z"/>
		<path class="st0" d="M-339.6,451.1l0.2,16.8c-0.2,2.8-0.3,5.5-0.2,8.2c0,2.4,0.2,7,0.8,10.7c0.4,2.9,2,10.3,6.8,17.1
			c6.3,9,15.6,12.8,20.8,14.4c5.3-1.5,14.4-5.3,20.8-14.4c4.7-6.8,6.3-14.2,6.8-17.1c0.5-3.7,0.7-8.3,0.8-10.7
			c0.1-2.7,0-5.4-0.2-8.1l0.2-16.9H-339.6L-339.6,451.1z"/>
		<path class="st0" d="M-238.5,457l0.2,16c-0.2,2.7-0.3,5.3-0.2,7.8c0,2.3,0.2,6.7,0.7,10.3c0.4,2.8,1.9,9.9,6.4,16.3
			c6.1,8.6,14.8,12.2,19.8,13.6c5-1.4,13.8-5.1,19.8-13.6c4.5-6.4,6.1-13.5,6.4-16.3c0.5-3.5,0.7-7.9,0.7-10.3c0-2.6,0-5.2-0.2-7.7
			l0.2-16L-238.5,457L-238.5,457z"/>
		<g id="XMLID_29_">
			<g id="XMLID_31_">
				<path id="XMLID_33_" class="st0" d="M-157.2,546.5c-12.7-9.4-24.7-5.5-33.2-11c0,0-1.6,0.4-3-2.9l-18.7,16l-18.1-16
					c0.4,0.4,2.2,3.6-29.3,9.9c0,0-17.8,2.9-16.7,38.4h60.9v-21.7l3.8-4.5l3.8,4.5v21.7h60.6C-147.1,581-144.6,556-157.2,546.5z
					 M-221.7,559.4l-10.8-16.4l3.2-5l15.2,13.2L-221.7,559.4z M-201.7,559.4l-7.6-8.2l15.2-13.2l3.2,5L-201.7,559.4z"/>
				<path id="XMLID_32_" class="st0" d="M-230.4,532.6L-230.4,532.6C-230.3,532.6-230.4,532.6-230.4,532.6z"/>
			</g>
			<path id="XMLID_30_" class="st0" d="M-205,460.4c0,0-6.5,14.5-34.9,12.7c0,0-2.5,22.9,7.3,35.3c0,0,5.4,5.9,5.3,9.8
				c0,0,0.4,8.8-1.8,12.7c-2.2,3.8-5.1,5.7-13,7.3l-4.8,0.9l-7.8,1.9c0,0-20.4-109.3,43.1-109.3s41.1,108.7,41.1,108.7l-18.2-3.9
				c0,0-6.7-1.5-7.4-13.7c-0.7-12.2,1.4-6.6,5.6-14.4c4.2-7.8,8.6-11.3,7.3-37.2c-1.4-25.8,0-1,0-1S-193.5,473.3-205,460.4z"/>
			<path class="st0" d="M-211.6,524.2l-0.4-0.1c-5.3-1.5-15.2-5.4-21.9-15c-4.7-6.7-6.4-13.9-7-17.6c-0.5-3.7-0.7-8.3-0.8-10.7
				c0-2.7,0-5.3,0.2-7.9l-0.2-19h60.3l-0.2,19.1c0.2,2.5,0.3,5.2,0.2,7.8c0,2.4-0.2,7-0.8,10.7c-0.5,3.7-2.2,11-7,17.6
				c-6.8,9.5-16.7,13.5-21.9,15L-211.6,524.2z M-238.5,457l0.2,16c-0.2,2.7-0.3,5.3-0.2,7.8c0,2.3,0.2,6.7,0.7,10.3
				c0.4,2.8,1.9,9.9,6.4,16.3c6.1,8.6,14.8,12.2,19.8,13.6c5-1.4,13.8-5.1,19.8-13.6c4.5-6.4,6.1-13.5,6.4-16.3
				c0.5-3.5,0.7-7.9,0.7-10.3c0-2.6,0-5.2-0.2-7.7l0.2-16L-238.5,457L-238.5,457z"/>
			<path class="st0" d="M-274.8,581h-3.1c0-16.1,0-24.2,9-34c6.2-6.7,17.2-8.8,26.1-10.4c3.7-0.7,7-1.2,8.9-2.1
				c4.4-1.7,5.3-13.4,4.8-20.2l3.1-0.2c0.2,2.1,1.2,20.2-6.8,23.4c-2.3,0.9-5.6,1.5-9.5,2.2c-8.5,1.6-19,3.6-24.4,9.4
				C-274.3,557.6-274.8,563.9-274.8,581z"/>
			<path class="st0" d="M-145.5,581h-3.1c0-17.1-0.4-23.5-8.2-32c-5.4-6-16-7.9-24.4-9.4c-3.8-0.7-7.2-1.3-9.5-2.2
				c-7.9-3.1-6.9-21.3-6.8-23.4l3.1,0.2c-0.4,6.9,0.4,18.5,4.8,20.2c2.1,0.8,5.3,1.4,8.9,2.1c8.9,1.7,20,3.7,26.1,10.4
				C-145.5,556.8-145.5,564.9-145.5,581z"/>
		</g>
		<g id="XMLID_17_">
			<path id="XMLID_28_" class="st0" d="M-338.6,535c0,0-26.1,3.7-31.6,11.4c-5.5,7.8-10,11.4-9,34.6h55.3L-338.6,535z"/>
			<path id="XMLID_26_" class="st0" d="M-284.8,535c0,0,26.1,3.7,31.6,11.4c5.5,7.8,10,11.4,9,34.6h-55.3L-284.8,535z"/>
			<g>
				<path id="XMLID_24_" class="st0" d="M-341.8,474.4c0,0-7.5-4-4.9,7.6s8.2,12.7,8.2,12.7"/>
				<path class="st0" d="M-338.6,496.2c-0.1,0-0.2,0-0.3,0c-0.3-0.1-6.7-1.4-9.4-13.9c-1.1-4.8-0.6-7.8,1.2-9.4
					c2.3-1.8,5.5-0.2,5.9,0.1c0.8,0.4,1.1,1.3,0.6,2.1c-0.4,0.8-1.3,1.1-2.1,0.6c-0.5-0.3-2-0.8-2.6-0.4c-0.2,0.2-1.2,1.2-0.1,6.2
					c2.3,10.3,7,11.5,7,11.5c0.8,0.2,1.4,1,1.2,1.9C-337.2,495.7-337.9,496.2-338.6,496.2z"/>
			</g>
			<g>
				<path id="XMLID_21_" class="st0" d="M-279.4,474c0,0,7.5-4,4.9,7.6s-8.2,12.7-8.2,12.7"/>
				<path class="st0" d="M-282.6,495.7c-0.7,0-1.4-0.5-1.5-1.2c-0.2-0.9,0.4-1.7,1.2-1.9c0,0,4.7-1.2,7-11.5c1.1-4.9,0.1-6-0.1-6.2
					c-0.6-0.4-2.1,0-2.6,0.4c-0.8,0.4-1.7,0.1-2.1-0.6c-0.4-0.8-0.1-1.7,0.6-2.1c0.4-0.2,3.6-1.9,5.9-0.1c2,1.4,2.3,4.5,1.2,9.4
					c-2.8,12.5-9.2,13.8-9.4,13.9C-282.4,495.7-282.5,495.7-282.6,495.7z"/>
			</g>
			<path class="st0" d="M-311.4,521.5l-0.4-0.1c-5.5-1.5-15.9-5.6-22.9-15.7c-5-7-6.7-14.5-7.3-18.5c-0.6-3.8-0.8-8.6-0.8-11.1
				c-0.1-2.8,0-5.6,0.2-8.3l-0.3-19.8h63l-0.3,20c0.2,2.7,0.3,5.4,0.2,8.2c0,2.5-0.2,7.3-0.8,11.1c-0.6,3.8-2.3,11.4-7.3,18.5
				c-7,10-17.4,14.1-22.9,15.7L-311.4,521.5L-311.4,521.5z M-339.6,451.1l0.2,16.8c-0.2,2.8-0.3,5.5-0.2,8.2c0,2.4,0.2,7,0.8,10.7
				c0.4,2.9,2,10.3,6.8,17.1c6.3,9,15.6,12.8,20.8,14.4c5.3-1.5,14.4-5.3,20.8-14.4c4.7-6.8,6.3-14.2,6.8-17.1
				c0.5-3.7,0.7-8.3,0.8-10.7c0.1-2.7,0-5.4-0.2-8.1l0.2-16.9H-339.6L-339.6,451.1z"/>
			<path class="st0" d="M-377.6,581h-3.1c0-18.1,0.4-25.8,9.4-35.7c6.4-7,18-9.2,27.4-10.9c3.9-0.7,7.2-1.3,9.4-2.2
				c5.2-2.1,5.3-16.4,5.1-21.3l3.1-0.2c0.2,2.1,1.2,21.1-7,24.4c-2.4,1-5.9,1.6-10,2.3c-8.8,1.6-19.9,3.7-25.6,10
				C-377.2,556.4-377.6,563.1-377.6,581z"/>
			<path class="st0" d="M-242.3,581h-3.1c0-18-0.4-24.6-8.6-33.5c-5.7-6.2-16.8-8.3-25.6-10c-4-0.7-7.6-1.4-10-2.3
				c-8.3-3.3-7.1-22.3-7-24.4l3.1,0.2c-0.5,7.2,0.4,19.4,5.1,21.3c2.1,0.8,5.5,1.4,9.4,2.2c9.3,1.7,20.9,3.9,27.4,10.9
				C-242.7,555.2-242.3,563-242.3,581z"/>
			<path id="XMLID_19_" class="st0" d="M-341.8,474.6c0.1-3.1,0.4-6,0.8-8.4c4.6,0.6,16.8,1.6,28.2-5.9c3.3-2.1,5.8-4.5,7.7-6.8
				c10.7,11.9,23.5,10.4,23.5,10.4c0.2,3.5,0.3,7.3,0.2,11.4c0.8-0.5,1.6-1,2.3-1.3c3-20.3,0-45.6-26-45.6
				c-18.6,0-29.2,6.2-35.1,13.7c-5.2,6.8-5.7,14.1-6.2,18.9c-0.4,4.8-0.2,9.3,0.4,13.3C-345.3,473.6-343.8,473.1-341.8,474.6z"/>
			<path class="st0" d="M-323.9,545.8l-12.6-12.1l1.3-1.1c0,0,3.6-2.9,4.3-6.1l0.4-2.1l17.5,10.3L-323.9,545.8z M-331.8,533.8
				l7.8,7.6l6-6.1l-10.5-6.2C-329.3,531.1-330.8,532.7-331.8,533.8z"/>
			<path class="st0" d="M-300.2,545.8l-11-11.1l17.5-10.3l0.4,2.1c0.6,3.1,4.2,6,4.3,6.1l1.3,1.1L-300.2,545.8z M-306.1,535.4l6,6.1
				l7.8-7.6c-1.1-1.1-2.5-2.7-3.4-4.6L-306.1,535.4z"/>
			<polygon class="st0" points="-314.2,581 -316.8,581 -316.8,533.7 -307,533.7 -307,580.9 -309.8,580.9 -309.8,536.4 -314.2,536.4 
							"/>
		</g>
	</g>
	<g>
		<polygon class="st0" points="-249.4,510.8 -238.2,554.7 -247.7,580.9 -290.6,580.9 -286.3,507.4 		"/>
		<path class="st0" d="M-150.4,509.1c0,0-2,26.8,12.9,26.3l-2.1,45.6l-66.1-0.1l5.4-44.7c0,0,20.9,3.5,17.6-25.5L-150.4,509.1z"/>
		<path class="st0" d="M-138.4,451.1h-56.7l0.2,16.9c-0.2,2.7-0.3,5.4-0.2,8.1c0.1,2.4,0.3,7,0.8,10.7c0.4,2.9,2.1,10.3,6.8,17.1
			c6.3,9,15.5,12.8,20.8,14.4c5.2-1.5,14.4-5.3,20.8-14.4c4.8-6.8,6.3-14.2,6.8-17.1c0.6-3.7,0.8-8.3,0.8-10.7
			c0.1-2.7,0-5.4-0.2-8.2L-138.4,451.1L-138.4,451.1z"/>
		<path class="st0" d="M-239.6,457.1h-53.8l0.2,16c-0.2,2.5-0.2,5.1-0.2,7.7c0,2.3,0.2,6.8,0.7,10.3c0.4,2.8,1.9,9.9,6.4,16.3
			c6,8.6,14.8,12.2,19.8,13.6c5-1.4,13.7-5.1,19.8-13.6c4.5-6.4,6-13.5,6.4-16.3c0.5-3.6,0.7-7.9,0.7-10.3c0.1-2.6,0-5.2-0.2-7.8
			L-239.6,457.1L-239.6,457.1z"/>
		<g id="XMLID_10_">
			<g id="XMLID_13_">
				<path id="XMLID_16_" class="st0" d="M-330.9,580.9h60.6v-21.7l3.8-4.5l3.8,4.5v21.7h60.9c1.2-35.6-16.7-38.4-16.7-38.4
					c-31.6-6.3-29.8-9.4-29.3-9.9l-18.1,16l-18.7-16c-1.4,3.4-3,2.9-3,2.9c-8.6,5.4-20.6,1.5-33.2,11S-330.9,581-330.9,580.9z
					 M-263.9,551.2l15.2-13.2l3.2,5l-10.8,16.4L-263.9,551.2z M-287.1,543l3.2-5l15.2,13.2l-7.6,8.2L-287.1,543z"/>
				<path id="XMLID_15_" class="st0" d="M-247.7,532.6L-247.7,532.6C-247.7,532.6-247.8,532.6-247.7,532.6z"/>
			</g>
			<path id="XMLID_12_" class="st0" d="M-294.9,470.2c0,0,1.4-24.9,0,1c-1.3,25.8,3.1,29.4,7.3,37.2c4.2,7.8,6.3,2.1,5.6,14.4
				c-0.7,12.3-7.4,13.7-7.4,13.7l-18.2,3.9c0,0-22.5-108.7,41.1-108.7s43.2,109.2,43.2,109.2l-7.8-1.9l-4.8-0.9
				c-7.9-1.6-10.8-3.5-13-7.3s-1.8-12.7-1.8-12.7c-0.2-3.9,5.3-9.8,5.3-9.8c9.8-12.4,7.3-35.3,7.3-35.3
				c-28.4,1.9-34.9-12.7-34.9-12.7C-284.6,473.3-294.9,470.2-294.9,470.2z"/>
			<path class="st0" d="M-266.9,524.1c-5.3-1.5-15.2-5.4-21.9-15c-4.7-6.7-6.4-13.9-7-17.6s-0.8-8.3-0.8-10.7
				c-0.1-2.7,0-5.3,0.2-7.8l-0.2-19.1h60.3l-0.2,19c0.2,2.6,0.2,5.3,0.2,7.9c-0.1,2.4-0.3,7-0.8,10.7s-2.2,11-7,17.6
				c-6.8,9.5-16.7,13.5-21.9,15l-0.4,0.1L-266.9,524.1z M-239.6,457.1h-53.8l0.2,16c-0.2,2.5-0.2,5.1-0.2,7.7
				c0,2.3,0.2,6.8,0.7,10.3c0.4,2.8,1.9,9.9,6.4,16.3c6,8.6,14.8,12.2,19.8,13.6c5-1.4,13.7-5.1,19.8-13.6c4.5-6.4,6-13.5,6.4-16.3
				c0.5-3.6,0.7-7.9,0.7-10.3c0.1-2.6,0-5.2-0.2-7.8L-239.6,457.1L-239.6,457.1z"/>
			<path class="st0" d="M-211.5,549.1c-5.4-5.9-16-7.8-24.4-9.4c-3.9-0.7-7.2-1.3-9.5-2.2c-7.9-3.1-7-21.3-6.8-23.4l3.1,0.2
				c-0.4,6.9,0.4,18.5,4.8,20.2c2,0.8,5.2,1.3,8.9,2.1c8.9,1.6,20,3.7,26.1,10.4c9,9.8,9,17.9,9,34h-3.1
				C-203.4,563.9-203.7,557.6-211.5,549.1z"/>
			<path class="st0" d="M-323.4,546.9c6.2-6.7,17.2-8.7,26.1-10.4c3.7-0.6,6.9-1.2,8.9-2.1c4.5-1.7,5.3-13.4,4.8-20.2l3.1-0.2
				c0.1,2.1,1.2,20.2-6.8,23.4c-2.3,0.9-5.7,1.5-9.5,2.2c-8.5,1.5-19,3.5-24.4,9.4c-7.8,8.5-8.2,14.9-8.2,32h-3.1
				C-332.5,564.9-332.5,556.8-323.4,546.9z"/>
		</g>
		<g id="XMLID_1_">
			<path id="XMLID_9_" class="st0" d="M-154.1,581h55.3c1-23.2-3.5-26.8-9-34.6s-31.6-11.4-31.6-11.4L-154.1,581z"/>
			<path id="XMLID_8_" class="st0" d="M-178.8,581H-234c-1-23.2,3.5-26.8,9-34.6s31.6-11.4,31.6-11.4L-178.8,581z"/>
			<g>
				<path id="XMLID_5_" class="st0" d="M-139.5,494.7c0,0,5.6-1.2,8.2-12.7c2.6-11.6-4.9-7.6-4.9-7.6"/>
				<path class="st0" d="M-140.9,495c-0.2-0.9,0.4-1.7,1.2-1.9c0,0,4.6-1.2,7-11.5c1.2-4.9,0.1-6-0.1-6.2c-0.6-0.4-2.1,0.1-2.6,0.4
					c-0.8,0.4-1.7,0.2-2.1-0.6s-0.2-1.7,0.6-2.1c0.4-0.3,3.6-1.9,5.9-0.1c1.9,1.5,2.3,4.5,1.2,9.4c-2.8,12.5-9.2,13.8-9.4,13.9
					c-0.1,0-0.2,0-0.3,0C-140.2,496.2-140.9,495.7-140.9,495z"/>
			</g>
			<g>
				<path id="XMLID_4_" class="st0" d="M-195.3,494.3c0,0-5.6-1.2-8.2-12.7c-2.6-11.6,4.9-7.6,4.9-7.6"/>
				<path class="st0" d="M-195.6,495.7c-0.3-0.1-6.7-1.4-9.4-13.9c-1.1-4.8-0.7-7.9,1.2-9.4c2.3-1.8,5.5-0.1,5.9,0.1
					c0.7,0.4,1.1,1.3,0.6,2.1c-0.4,0.7-1.3,1.1-2.1,0.6c-0.5-0.4-2-0.8-2.6-0.4c-0.2,0.2-1.2,1.2-0.1,6.2c2.2,10.3,7,11.5,7,11.5
					c0.9,0.2,1.4,1,1.2,1.9c-0.1,0.7-0.8,1.2-1.5,1.2C-195.5,495.7-195.6,495.7-195.6,495.7z"/>
			</g>
			<path class="st0" d="M-167,521.5c-5.5-1.6-15.9-5.7-22.9-15.7c-5-7-6.7-14.6-7.3-18.5c-0.6-3.8-0.8-8.6-0.8-11.1
				c-0.1-2.8,0-5.5,0.2-8.2l-0.3-20h63l-0.3,19.8c0.2,2.7,0.3,5.5,0.2,8.3c0,2.5-0.2,7.3-0.8,11.1c-0.6,3.9-2.3,11.4-7.3,18.5
				c-7,10.1-17.4,14.2-22.9,15.7l-0.4,0.1H-167L-167,521.5z M-138.4,451.1h-56.7l0.2,16.9c-0.2,2.7-0.3,5.4-0.2,8.1
				c0.1,2.4,0.3,7,0.8,10.7c0.4,2.9,2.1,10.3,6.8,17.1c6.3,9,15.5,12.8,20.8,14.4c5.2-1.5,14.4-5.3,20.8-14.4
				c4.8-6.8,6.3-14.2,6.8-17.1c0.6-3.7,0.8-8.3,0.8-10.7c0.1-2.7,0-5.4-0.2-8.2L-138.4,451.1L-138.4,451.1z"/>
			<path class="st0" d="M-109,547.5c-5.7-6.3-16.8-8.4-25.6-10c-4.1-0.7-7.6-1.3-10-2.3c-8.3-3.3-7.2-22.3-7-24.4l3.1,0.2
				c-0.3,4.9-0.1,19.3,5.1,21.3c2.1,0.9,5.4,1.5,9.4,2.2c9.4,1.7,20.9,3.8,27.4,10.9c9,9.9,9.4,17.6,9.4,35.7h-3.1
				C-100.4,563.1-100.9,556.4-109,547.5z"/>
			<path class="st0" d="M-226.4,545.4c6.5-7,18.1-9.2,27.4-10.9c3.8-0.8,7.2-1.4,9.4-2.2c4.6-1.9,5.6-14.1,5.1-21.3l3.1-0.2
				c0.1,2.1,1.2,21.1-7,24.4c-2.4,0.9-6,1.6-10,2.3c-8.8,1.7-19.9,3.7-25.6,10c-8.1,8.9-8.6,15.5-8.6,33.5h-3.1
				C-235.7,563-235.4,555.2-226.4,545.4z"/>
			<path id="XMLID_3_" class="st0" d="M-132,474.3c0.6-4,0.9-8.5,0.4-13.3s-1.1-12.1-6.2-18.9c-5.9-7.6-16.5-13.7-35.1-13.7
				c-26,0-29.1,25.3-26,45.6c0.7,0.4,1.5,0.8,2.3,1.3c-0.1-4.1,0-7.9,0.2-11.4c0,0,12.8,1.4,23.5-10.4c1.9,2.2,4.4,4.6,7.7,6.8
				c11.3,7.5,23.5,6.5,28.2,5.9c0.4,2.4,0.7,5.3,0.8,8.4C-134.2,473.1-132.8,473.6-132,474.3z"/>
			<path class="st0" d="M-165.1,534.7l17.5-10.3l0.4,2.1c0.7,3.1,4.3,6.1,4.3,6.1l1.3,1.1l-12.6,12.1L-165.1,534.7z M-149.6,529
				l-10.5,6.2l6,6.1l7.8-7.6C-147.3,532.7-148.7,531.1-149.6,529z"/>
			<path class="st0" d="M-190.4,533.6l1.3-1.1c0.1-0.1,3.7-2.9,4.3-6.1l0.4-2.1l17.5,10.3l-11,11.1L-190.4,533.6z M-182.3,529.2
				c-0.9,2-2.3,3.6-3.4,4.6l7.8,7.6l6-6.1L-182.3,529.2z"/>
			<polygon class="st0" points="-163.9,581 -161.2,581 -161.2,533.7 -171,533.7 -171,580.9 -168.3,580.9 -168.3,536.4 -163.9,536.4 
							"/>
		</g>
	</g>
	<polygon class="st1" points="-200.3,537.7 -212.9,587 -202.3,616.4 -154.1,616.4 -159,533.9 	"/>
	<path class="st1" d="M-311.4,535.8c0,0,2.2,30.1-14.5,29.5l2.3,51.2l74.2-0.1l-6.1-50.1c0,0-23.4,3.9-19.6-28.6L-311.4,535.8z"/>
	<path class="st1" d="M-324.9,470.8l0.2,18.8c-0.2,3.1-0.3,6.2-0.2,9.2c0,2.7,0.2,7.9,0.9,12c0.5,3.3,2.2,11.6,7.6,19.2
		c7.1,10.1,17.5,14.4,23.3,16.1c5.9-1.7,16.2-6,23.3-16.1c5.3-7.6,7.1-15.9,7.6-19.2c0.6-4.1,0.8-9.3,0.9-12c0.1-3,0-6.1-0.2-9.1
		l0.2-19L-324.9,470.8L-324.9,470.8z"/>
	<path class="st1" d="M-211.4,477.4l0.2,17.9c-0.2,3-0.3,5.9-0.2,8.8c0,2.6,0.2,7.5,0.8,11.5c0.5,3.1,2.1,11.1,7.2,18.3
		c6.8,9.6,16.6,13.7,22.2,15.3c5.6-1.6,15.5-5.7,22.2-15.3c5.1-7.2,6.8-15.2,7.2-18.3c0.6-3.9,0.8-8.9,0.8-11.5c0-2.9,0-5.8-0.2-8.6
		l0.2-18L-211.4,477.4L-211.4,477.4z"/>
	<g id="XMLID_27_">
		<g id="XMLID_14_">
			<path id="XMLID_18_" class="st0" d="M-120.2,577.8c-14.2-10.6-27.7-6.2-37.3-12.3c0,0-1.8,0.5-3.4-3.3l-21,18l-20.3-18
				c0.5,0.5,2.5,4-32.9,11.1c0,0-20,3.2-18.7,43.1h68.3v-24.3l4.3-5l4.3,5v24.3h68C-108.9,616.5-106.1,588.4-120.2,577.8z
				 M-192.6,592.3l-12.1-18.4l3.6-5.6l17,14.8L-192.6,592.3z M-170.1,592.3l-8.5-9.2l17-14.8l3.6,5.6L-170.1,592.3z"/>
			<path id="XMLID_20_" class="st0" d="M-202.3,562.2L-202.3,562.2C-202.2,562.2-202.3,562.2-202.3,562.2z"/>
		</g>
		<path id="XMLID_11_" class="st2" d="M-173.8,481.2c0,0-7.3,16.3-39.2,14.2c0,0-2.8,25.7,8.2,39.6c0,0,6.1,6.6,5.9,11
			c0,0,0.5,9.9-2,14.2s-5.7,6.4-14.6,8.2l-5.4,1l-8.7,2.1c0,0-22.9-122.6,48.4-122.6s46.1,122,46.1,122l-20.4-4.4
			c0,0-7.5-1.7-8.3-15.4s1.6-7.4,6.3-16.1c4.7-8.7,9.7-12.7,8.2-41.7c-1.6-29,0-1.1,0-1.1S-160.9,495.7-173.8,481.2z"/>
		<path class="st2" d="M-181.2,552.8l-0.5-0.1c-5.9-1.7-17-6.1-24.6-16.8c-5.3-7.5-7.2-15.6-7.8-19.8c-0.6-4.2-0.8-9.3-0.9-12
			c0-3,0-6,0.2-8.9l-0.2-21.3h67.6l-0.2,21.4c0.2,2.8,0.3,5.8,0.2,8.8c0,2.7-0.2,7.8-0.9,12c-0.6,4.2-2.5,12.3-7.8,19.8
			c-7.6,10.7-18.7,15.1-24.6,16.8L-181.2,552.8z M-211.4,477.4l0.2,17.9c-0.2,3-0.3,5.9-0.2,8.8c0,2.6,0.2,7.5,0.8,11.5
			c0.5,3.1,2.1,11.1,7.2,18.3c6.8,9.6,16.6,13.7,22.2,15.3c5.6-1.6,15.5-5.7,22.2-15.3c5.1-7.2,6.8-15.2,7.2-18.3
			c0.6-3.9,0.8-8.9,0.8-11.5c0-2.9,0-5.8-0.2-8.6l0.2-18L-211.4,477.4L-211.4,477.4z"/>
		<path class="st2" d="M-252,616.5h-3.5c0-18.1,0-27.2,10.1-38.2c6.9-7.5,19.3-9.9,29.3-11.7c4.2-0.8,7.8-1.4,10-2.3
			c4.9-1.9,5.9-15,5.4-22.7l3.5-0.2c0.2,2.3,1.3,22.7-7.6,26.2c-2.6,1-6.3,1.7-10.7,2.5c-9.5,1.8-21.3,4-27.4,10.6
			C-251.6,590.2-252,597.3-252,616.5z"/>
		<path class="st2" d="M-107.1,616.5h-3.5c0-19.2-0.4-26.4-9.2-35.9c-6.1-6.7-17.9-8.9-27.4-10.6c-4.3-0.8-8.1-1.5-10.7-2.5
			c-8.9-3.5-7.7-23.9-7.6-26.2l3.5,0.2c-0.5,7.7,0.4,20.8,5.4,22.7c2.3,0.9,5.9,1.6,10,2.3c10,1.9,22.4,4.2,29.3,11.7
			C-107.1,589.3-107.1,598.4-107.1,616.5z"/>
	</g>
	<g id="XMLID_2_">
		<path id="XMLID_23_" class="st1" d="M-323.6,564.9c0,0-29.3,4.1-35.5,12.8s-11.2,12.8-10.1,38.8h62L-323.6,564.9z"/>
		<path id="XMLID_22_" class="st1" d="M-263.2,564.9c0,0,29.3,4.1,35.5,12.8s11.2,12.8,10.1,38.8h-62L-263.2,564.9z"/>
		<g>
			<path id="XMLID_7_" class="st1" d="M-327.2,496.9c0,0-8.4-4.5-5.5,8.5s9.2,14.3,9.2,14.3"/>
			<path class="st2" d="M-323.6,521.4c-0.1,0-0.2,0-0.3,0c-0.3-0.1-7.5-1.6-10.6-15.6c-1.2-5.4-0.7-8.8,1.4-10.5
				c2.6-2,6.2-0.2,6.6,0.1c0.9,0.5,1.2,1.5,0.7,2.4s-1.5,1.2-2.4,0.7c-0.6-0.3-2.2-0.9-2.9-0.4c-0.2,0.2-1.4,1.4-0.1,6.9
				c2.6,11.6,7.8,12.9,7.8,12.9c0.9,0.2,1.6,1.1,1.4,2.1C-322,520.8-322.9,521.4-323.6,521.4z"/>
		</g>
		<g>
			<path id="XMLID_6_" class="st1" d="M-257.3,496.4c0,0,8.4-4.5,5.5,8.5s-9.2,14.3-9.2,14.3"/>
			<path class="st2" d="M-260.9,520.8c-0.8,0-1.6-0.6-1.7-1.4c-0.2-1,0.4-1.9,1.4-2.1c0,0,5.3-1.4,7.8-12.9c1.2-5.5,0.1-6.7-0.1-6.9
				c-0.7-0.5-2.3,0-2.9,0.4c-0.9,0.5-1.9,0.1-2.4-0.7c-0.5-0.9-0.1-1.9,0.7-2.4c0.4-0.2,4-2.1,6.6-0.1c2.2,1.6,2.6,5.1,1.4,10.5
				c-3.1,14-10.3,15.5-10.6,15.6C-260.8,520.8-260.8,520.8-260.9,520.8z"/>
		</g>
		<path class="st2" d="M-293.2,549.7l-0.5-0.1c-6.2-1.7-17.8-6.3-25.7-17.6c-5.6-7.9-7.5-16.3-8.2-20.7c-0.7-4.3-0.9-9.7-0.9-12.5
			c-0.1-3.1,0-6.3,0.2-9.3l-0.3-22.2h70.7l-0.3,22.4c0.2,3,0.3,6.1,0.2,9.2c0,2.8-0.2,8.2-0.9,12.5c-0.7,4.3-2.6,12.8-8.2,20.7
			c-7.9,11.2-19.5,15.8-25.7,17.6H-293.2z M-324.9,470.8l0.2,18.8c-0.2,3.1-0.3,6.2-0.2,9.2c0,2.7,0.2,7.9,0.9,12
			c0.5,3.3,2.2,11.6,7.6,19.2c7.1,10.1,17.5,14.4,23.3,16.1c5.9-1.7,16.2-6,23.3-16.1c5.3-7.6,7.1-15.9,7.6-19.2
			c0.6-4.1,0.8-9.3,0.9-12c0.1-3,0-6.1-0.2-9.1l0.2-19L-324.9,470.8L-324.9,470.8z"/>
		<path class="st2" d="M-367.4,616.5h-3.5c0-20.3,0.4-28.9,10.5-40c7.2-7.9,20.2-10.3,30.7-12.2c4.4-0.8,8.1-1.5,10.5-2.5
			c5.8-2.3,6-18.4,5.7-23.9l3.5-0.2c0.2,2.4,1.4,23.7-7.9,27.4c-2.7,1.1-6.6,1.8-11.2,2.6c-9.9,1.8-22.3,4.1-28.7,11.2
			C-366.9,588.9-367.4,596.4-367.4,616.5z"/>
		<path class="st2" d="M-215.7,616.5h-3.5c0-20.2-0.5-27.6-9.6-37.6c-6.4-7-18.8-9.3-28.7-11.2c-4.5-0.8-8.5-1.6-11.2-2.6
			c-9.3-3.7-8-25-7.9-27.4l3.5,0.2c-0.6,8.1,0.5,21.8,5.7,23.9c2.4,0.9,6.2,1.6,10.5,2.5c10.4,1.9,23.4,4.4,30.7,12.2
			C-216.1,587.6-215.7,596.3-215.7,616.5z"/>
		<path id="XMLID_25_" class="st2" d="M-327.2,497.1c0.1-3.5,0.4-6.7,0.9-9.4c5.2,0.7,18.9,1.8,31.6-6.6c3.7-2.4,6.5-5.1,8.6-7.6
			c12,13.3,26.4,11.7,26.4,11.7c0.2,3.9,0.3,8.2,0.2,12.8c0.9-0.6,1.8-1.1,2.6-1.5c3.4-22.8,0-51.2-29.2-51.2
			c-20.9,0-32.8,6.9-39.4,15.4c-5.8,7.6-6.4,15.8-7,21.2c-0.5,5.4-0.2,10.4,0.5,14.9C-331.1,496-329.5,495.4-327.2,497.1z"/>
		<path class="st2" d="M-307.1,577l-14.1-13.6l1.5-1.2c0,0,4-3.3,4.8-6.8l0.5-2.4l19.6,11.6L-307.1,577z M-315.9,563.5l8.8,8.5
			l6.7-6.8l-11.8-7C-313.2,560.5-314.9,562.3-315.9,563.5z"/>
		<path class="st2" d="M-280.6,577l-12.3-12.5l19.6-11.6l0.5,2.4c0.7,3.5,4.7,6.7,4.8,6.8l1.5,1.2L-280.6,577z M-287.3,565.3
			l6.7,6.8l8.8-8.5c-1.2-1.2-2.8-3-3.8-5.2L-287.3,565.3z"/>
		<polyline class="st3" points="-289.8,616.4 -289.8,564.9 -297.8,564.9 -297.8,616.5 		"/>
	</g>
	<g>
		<path class="st1" d="M-239.8,650.6c-18.4,0-33.3-14.9-33.3-33.3s14.9-33.3,33.3-33.3s33.3,14.9,33.3,33.3
			S-221.5,650.6-239.8,650.6z"/>
		<path class="st4" d="M-239.8,587c16.7,0,30.3,13.6,30.3,30.3s-13.6,30.3-30.3,30.3s-30.3-13.6-30.3-30.3
			C-270.1,600.6-256.5,587-239.8,587 M-239.8,581c-20,0-36.3,16.3-36.3,36.3s16.3,36.3,36.3,36.3s36.3-16.3,36.3-36.3
			C-203.5,597.3-219.8,581-239.8,581L-239.8,581z"/>
	</g>
	<text transform="matrix(1 0 0 1 -262.6076 631.9041)" class="st2 st5 st6">10</text>
</g>
</svg>
