<?xml version="1.0" encoding="utf-8"?>
<!-- Generator: Adobe Illustrator 19.0.0, SVG Export Plug-In . SVG Version: 6.00 Build 0)  -->
<svg version="1.1" id="Layer_1" xmlns="http://www.w3.org/2000/svg" xmlns:xlink="http://www.w3.org/1999/xlink" x="0px" y="0px"
	 viewBox="-569 331 300 300" style="enable-background:new -569 331 300 300;" xml:space="preserve">
<style type="text/css">
	.st0{fill:#1FEAA1;}
	.st1{font-family:'KumbhSans-Bold';}
	.st2{font-size:42.1982px;}
	.st3{letter-spacing:2;}
</style>
<g id="Layer_2">
</g>
<path id="XMLID_455_" class="st0" d="M-501.4,502.3v26.9h25.8C-475.6,514.7-487,502.9-501.4,502.3z"/>
<path id="XMLID_454_" class="st0" d="M-336.1,502.3v26.9h-25.8C-361.9,514.7-350.5,502.9-336.1,502.3z"/>
<path id="XMLID_453_" class="st0" d="M-362,433.4c0,14.7,11.8,26.6,26.4,26.9v-26.9l-26.4-0.2C-362,433.3-362,433.3-362,433.4z"/>
<path id="XMLID_451_" class="st0" d="M-501.4,434.9v27c14.8,0,26.9-12,27-26.8L-501.4,434.9z"/>
<path d="M-335.6,531.9h-166.9c-1.5,0-2.7-1.2-2.7-2.7v-96.4c0-1.5,1.2-2.7,2.7-2.7h166.9c1.5,0,2.7,1.2,2.7,2.7v96.4
	C-332.9,530.7-334.1,531.9-335.6,531.9z M-499.9,526.5h161.6v-91.1h-161.6V526.5z"/>
<g>
	<circle id="XMLID_2_" class="st0" cx="-419.1" cy="481" r="29.8"/>
	<path d="M-419.1,513.5c-17.9,0-32.5-14.6-32.5-32.5s14.6-32.5,32.5-32.5s32.5,14.6,32.5,32.5S-401.2,513.5-419.1,513.5z
		 M-419.1,453.8c-15,0-27.1,12.2-27.1,27.1c0,15,12.2,27.1,27.1,27.1s27.1-12.2,27.1-27.1C-391.9,466-404.1,453.8-419.1,453.8z"/>
</g>
<path d="M-500.6,464.5c-0.5,0-0.8,0-0.9,0c-1.5-0.1-2.6-1.3-2.5-2.8s1.3-2.6,2.8-2.5c0.2,0,10.6,0.4,17.5-6.2
	c4.3-4.1,6.5-10.2,6.5-18c0-1.5,1.2-2.7,2.7-2.7s2.7,1.2,2.7,2.7c0,9.4-2.8,16.8-8.2,21.9C-487.5,463.9-497.6,464.5-500.6,464.5z"/>
<path d="M-336.3,464.5c-3,0-13.1-0.6-20.6-7.6c-5.5-5.2-8.2-12.5-8.2-21.9c0-1.5,1.2-2.7,2.7-2.7s2.7,1.2,2.7,2.7
	c0,7.8,2.2,13.9,6.5,18c7,6.7,17.4,6.2,17.5,6.2c1.5-0.1,2.7,1.1,2.8,2.5c0.1,1.5-1,2.7-2.5,2.8
	C-335.5,464.4-335.8,464.5-336.3,464.5z"/>
<path d="M-362.5,531.8c-1.5,0-2.7-1.2-2.7-2.7c0-9.4,2.8-16.8,8.2-21.9c8.7-8.2,20.9-7.6,21.5-7.6c1.5,0.1,2.6,1.3,2.5,2.8
	s-1.4,2.6-2.8,2.5c-0.3,0-10.6-0.4-17.5,6.2c-4.3,4.1-6.5,10.2-6.5,18C-359.8,530.7-361,531.8-362.5,531.8z"/>
<path d="M-474.5,531.8c-1.5,0-2.7-1.2-2.7-2.7c0-7.8-2.2-13.9-6.5-18c-7-6.6-17.4-6.2-17.5-6.2c-1.5,0.1-2.7-1.1-2.8-2.5
	c-0.1-1.5,1-2.7,2.5-2.8c0.5,0,12.8-0.6,21.5,7.6c5.5,5.2,8.2,12.5,8.2,21.9C-471.8,530.7-473,531.8-474.5,531.8z"/>
<text id="XMLID_443_" transform="matrix(1 0 0 1 -431.4135 498.0894)" class="st1 st2 st3">$</text>
</svg>
