<?xml version="1.0" encoding="utf-8"?>
<!-- Generator: Adobe Illustrator 19.0.0, SVG Export Plug-In . SVG Version: 6.00 Build 0)  -->
<svg version="1.1" id="Layer_1" xmlns="http://www.w3.org/2000/svg" xmlns:xlink="http://www.w3.org/1999/xlink" x="0px" y="0px"
	 viewBox="-389 391 300 300" style="enable-background:new -389 391 300 300;" xml:space="preserve">
<style type="text/css">
	.st0{fill:#B8DCFF;}
	.st1{fill:none;stroke:#002646;stroke-width:13;stroke-miterlimit:10;}
</style>
<path class="st0" d="M-104.5,691h-268.9c-8.6,0-15.6-7-15.6-15.6V406.6c0-8.6,7-15.6,15.6-15.6h268.9c8.6,0,15.6,7,15.6,15.6v268.7
	C-88.9,684-95.9,691-104.5,691z"/>
<path class="st1" d="M-146.8,507.7h-58.9v-59c0-3-2.4-5.4-5.4-5.4h-55.8c-3,0-5.4,2.4-5.4,5.4v59h-59c-3,0-5.4,2.4-5.4,5.4v55.8
	c0,3,2.4,5.4,5.4,5.4h59v59c0,3,2.4,5.4,5.4,5.4h55.8c3,0,5.4-2.4,5.4-5.4v-59h58.9c3,0,5.4-2.4,5.4-5.4v-55.8
	C-141.4,510.1-143.8,507.7-146.8,507.7z"/>
</svg>
