<?xml version="1.0" encoding="utf-8"?>
<!-- Generator: Adobe Illustrator 19.0.0, SVG Export Plug-In . SVG Version: 6.00 Build 0)  -->
<svg version="1.1" id="Layer_1" xmlns="http://www.w3.org/2000/svg" xmlns:xlink="http://www.w3.org/1999/xlink" x="0px" y="0px"
	 viewBox="-389 391 300 300" style="enable-background:new -389 391 300 300;" xml:space="preserve">
<style type="text/css">
	.st0{fill:#F7E38D;}
	.st1{fill:#231F20;}
	.st2{fill:none;}
</style>
<g id="Layer_2">
</g>
<g id="XMLID_396_">
	<g>
		<circle id="XMLID_6_" class="st0" cx="-239" cy="541" r="74.5"/>
		<path id="XMLID_5_" d="M-239,474c36.9,0,67,30,67,67c0,36.9-30,67-67,67s-67-30-67-67C-305.9,504.1-275.9,474-239,474 M-239,466.5
			c-41.2,0-74.5,33.4-74.5,74.5c0,41.2,33.4,74.5,74.5,74.5s74.5-33.4,74.5-74.5C-164.4,499.8-197.8,466.5-239,466.5L-239,466.5z"/>
	</g>
	<g id="XMLID_111_">
		<circle class="st1" cx="-264.5" cy="520.4" r="11.5"/>
	</g>
	<g id="XMLID_84_">
		<circle class="st1" cx="-211.1" cy="520.4" r="11.5"/>
	</g>
	<g>
		<line id="XMLID_1_" class="st2" x1="-264.5" y1="566.3" x2="-211.1" y2="566.3"/>
		<path d="M-211.1,570h-53.4c-2.1,0-3.8-1.7-3.8-3.8s1.7-3.8,3.8-3.8h53.4c2.1,0,3.8,1.7,3.8,3.8S-209,570-211.1,570z"/>
	</g>
</g>
</svg>
