<?xml version="1.0" encoding="utf-8"?>
<!-- Generator: Adobe Illustrator 19.0.0, SVG Export Plug-In . SVG Version: 6.00 Build 0)  -->
<svg version="1.1" id="Layer_1" xmlns="http://www.w3.org/2000/svg" xmlns:xlink="http://www.w3.org/1999/xlink" x="0px" y="0px"
	 viewBox="-389 391 300 300" style="enable-background:new -389 391 300 300;" xml:space="preserve">
<style type="text/css">
	.st0{fill:#FFFFFF;}
	.st1{fill:#ACD3DD;}
	.st2{fill:#002646;}
	.st3{fill:#6C7E8E;}
</style>
<g id="Layer_2">
</g>
<g id="XMLID_431_">
	<circle id="XMLID_441_" class="st0" cx="-239" cy="501" r="68.7"/>
	<polygon id="XMLID_440_" class="st1" points="-231,578.3 -259.5,561.2 -262.5,559.6 -291,542.3 -358.6,654.8 -310.8,643 -299,691 	
		"/>
	<polygon id="XMLID_439_" class="st1" points="-247.1,578.3 -218.6,561.2 -215.6,559.6 -187.3,542.3 -119.4,654.8 -167.2,643 
		-179.1,691 	"/>
	<g>
		<path id="XMLID_5_" class="st0" d="M-143.2,475c-2.4-8.6-0.8-18.9-5.1-26.7c-4.5-7.7-14.2-11.6-20.5-17.9s-10.1-16.1-17.9-20.5
			c-7.5-4.5-17.9-2.8-26.7-5.1c-8.4-2.2-16.6-8.8-25.6-8.8c-9.1,0-17.3,6.7-25.6,8.8c-8.6,2.4-18.9,0.8-26.7,5.1
			c-7.7,4.5-11.6,14.2-17.9,20.5s-16.1,10.1-20.5,17.9c-4.5,7.5-2.8,17.9-5.1,26.7c-2.2,8.4-8.8,16.6-8.8,25.6
			c0,9.1,6.7,17.3,8.8,25.6c2.4,8.6,0.8,18.9,5.1,26.7c4.5,7.7,14.2,11.6,20.5,17.9c6.3,6.3,10.1,16.1,17.9,20.5
			c7.5,4.5,17.9,2.8,26.7,5.1c8.4,2.2,16.6,8.8,25.6,8.8c9.1,0,17.3-6.7,25.6-8.8c8.6-2.4,18.9-0.8,26.7-5.1
			c7.7-4.5,11.6-14.2,17.9-20.5c6.3-6.3,16.1-10.2,20.5-17.9c4.5-7.5,2.8-17.9,5.1-26.7c2.2-8.4,8.8-16.6,8.8-25.6
			C-134.3,491.7-140.7,483.5-143.2,475z M-239,569.5c-38,0-68.7-30.9-68.7-68.7c0-38,30.9-68.7,68.7-68.7s68.7,30.9,68.7,68.7
			C-170.3,538.9-201.1,569.5-239,569.5z"/>
		<g>
			<path class="st2" d="M-239,436.9c-35.2,0-63.8,28.6-63.8,63.8s28.6,63.8,63.8,63.8s63.8-28.6,63.8-63.8
				C-175.3,465.5-203.8,436.9-239,436.9z"/>
			<path class="st2" d="M-239,574.4c-40.6,0-73.7-33.1-73.7-73.7S-279.6,427-239,427s73.7,33.1,73.7,73.7S-198.4,574.4-239,574.4z"
				/>
			<path class="st2" d="M-134.7,482.6c-1.4-3.1-2.7-6-3.6-8.8c-0.8-3-1.2-6.5-1.5-10c-0.5-6-1-12.2-4.2-17.9
				c-3.2-5.7-8.5-9.3-13.5-12.9c-2.9-2-5.7-4-7.7-6.1c-2.1-2.2-4-4.9-6-7.7c-3.6-5.1-7.2-10.4-12.9-13.5c-5.5-3.3-11.9-3.8-18-4.3
				c-3.6-0.2-6.9-0.5-10-1.4c-2.8-0.7-5.9-2.2-9-3.7c-5.3-2.5-11.3-5.3-17.9-5.3c-6.6,0-12.7,2.8-17.9,5.3c-3.1,1.5-6.2,2.9-9.1,3.7
				c-3,0.8-6.5,1.2-10,1.5c-6,0.5-12.2,1-17.9,4.2c-5.7,3.2-9.3,8.5-12.9,13.5c-2,2.9-4,5.7-6.1,7.7c-2.2,2.1-4.9,4-7.7,6
				c-5.1,3.6-10.4,7.2-13.5,12.9c-3.3,5.5-3.8,11.9-4.3,18c-0.2,3.6-0.5,6.9-1.4,10c-0.7,2.8-2.2,5.9-3.7,9
				c-2.5,5.3-5.3,11.3-5.3,17.9s2.8,12.7,5.3,17.9c1.5,3.1,2.9,6.2,3.7,9.1c0.8,3,1.2,6.5,1.5,10c0.5,6,1,12.2,4.2,17.9
				s8.5,9.3,13.5,12.9c2.9,2,5.7,4,7.7,6.1c2.1,2.2,4,4.9,6,7.7c3.6,5.1,7.2,10.4,12.9,13.5c5.5,3.3,11.9,3.8,18,4.3
				c3.6,0.3,6.9,0.5,10,1.4c2.8,0.7,5.9,2.2,9,3.7c5.3,2.5,11.3,5.3,17.9,5.3c6.6,0,12.6-2.8,17.9-5.3c3.1-1.5,6.2-2.9,9.1-3.7
				c3-0.8,6.5-1.2,10-1.5c6-0.5,12.2-1,17.9-4.2s9.3-8.5,12.9-13.5c2-2.9,4-5.7,6.1-7.7c2.2-2.1,4.8-4,7.7-6
				c5.1-3.6,10.4-7.2,13.5-12.9c3.2-5.5,3.8-11.9,4.3-18c0.2-3.6,0.5-6.9,1.4-10c0.7-2.8,2.2-5.9,3.7-9c2.5-5.3,5.3-11.3,5.3-17.9
				C-129.2,494.1-132.2,488-134.7,482.6z M-143.2,526.3c-2.3,8.8-0.6,19.1-5.1,26.7c-4.4,7.7-14.2,11.6-20.5,17.9
				s-10.2,16-17.9,20.5c-7.7,4.3-18.1,2.7-26.7,5.1c-8.4,2.1-16.5,8.8-25.6,8.8c-9,0-17.3-6.6-25.6-8.8c-8.8-2.3-19.1-0.6-26.7-5.1
				c-7.7-4.4-11.6-14.2-17.9-20.5s-16-10.2-20.5-17.9c-4.3-7.7-2.7-18.1-5.1-26.7c-2.1-8.4-8.8-16.5-8.8-25.6c0-9,6.6-17.3,8.8-25.6
				c2.3-8.8,0.6-19.1,5.1-26.7c4.4-7.7,14.2-11.6,20.5-17.9s10.1-16,17.9-20.5c7.7-4.3,18.1-2.7,26.7-5.1c8.4-2.1,16.5-8.8,25.6-8.8
				c9,0,17.3,6.6,25.6,8.8c8.8,2.3,19.1,0.6,26.7,5.1c7.7,4.4,11.6,14.2,17.9,20.5c6.3,6.3,16,10.1,20.5,17.9
				c4.3,7.7,2.7,18.1,5.1,26.7c2.4,8.5,8.9,16.6,8.8,25.6C-134.4,509.7-141,517.9-143.2,526.3z"/>
		</g>
	</g>
	<circle id="XMLID_435_" class="st0" cx="-239" cy="501" r="68.7"/>
	<polygon class="st3" points="-238.9,530.4 -272.7,553 -261.7,513.9 -293.6,488.7 -253,487.1 -238.9,449 -224.9,487.1 -184.3,488.7 
		-216.2,513.9 -205.2,553 	"/>
</g>
</svg>
