<?xml version="1.0" encoding="utf-8"?>
<!-- Generator: Adobe Illustrator 19.0.0, SVG Export Plug-In . SVG Version: 6.00 Build 0)  -->
<svg version="1.1" id="Layer_1" xmlns="http://www.w3.org/2000/svg" xmlns:xlink="http://www.w3.org/1999/xlink" x="0px" y="0px"
	 viewBox="-326 328.9 426.5 424.1" style="enable-background:new -326 328.9 426.5 424.1;" xml:space="preserve">
<style type="text/css">
	.st0{fill:#95B9C2;}
	.st1{fill:#002646;}
	.st2{fill:#FFDABD;}
</style>
<path class="st0" d="M-112.8,352.4c25.5,0,50.2,5,73.4,14.8c22.5,9.5,42.6,23.1,59.9,40.4c35.6,35.6,55.2,83,55.1,133.4
	c0,25.4-5,50.1-14.8,73.4c-9.5,22.4-23.1,42.6-40.4,59.9C3.2,691.6-17,705.2-39.4,714.8c-23.2,9.8-47.9,14.8-73.4,14.8
	s-50.1-5-73.4-14.8c-22.4-9.5-42.6-23.1-59.9-40.4c-17.3-17.3-30.9-37.5-40.4-59.9c-9.8-23.2-14.8-47.9-14.8-73.4
	c0-25.4,5-50.1,14.8-73.4c9.5-22.5,23.1-42.6,40.4-60c17.3-17.3,37.5-30.9,59.9-40.4C-162.9,357.4-138.2,352.4-112.8,352.4"/>
<g id="Layer_1_1_">
	<g id="Layer_2_2_">
	</g>
	<g id="Layer_1_2_">
		<g id="XMLID_8_">
		</g>
		<g id="XMLID_7_">
		</g>
		<g id="XMLID_6_">
		</g>
		<g id="XMLID_5_">
		</g>
		<g id="XMLID_4_">
		</g>
		<g id="XMLID_3_">
		</g>
	</g>
	<g>
		<path class="st1" d="M-112.8,352.4c25.5,0,50.2,5,73.4,14.8c22.5,9.5,42.6,23.1,59.9,40.4c35.6,35.6,55.2,83,55.1,133.4
			c0,25.4-5,50.1-14.8,73.4c-9.5,22.4-23.1,42.6-40.4,59.9C3.2,691.6-17,705.2-39.4,714.8c-23.2,9.8-47.9,14.8-73.4,14.8
			s-50.1-5-73.4-14.8c-22.4-9.5-42.6-23.1-59.9-40.4c-17.3-17.3-30.9-37.5-40.4-59.9c-9.8-23.2-14.8-47.9-14.8-73.4
			c0-25.4,5-50.1,14.8-73.4c9.5-22.5,23.1-42.6,40.4-60c17.3-17.3,37.5-30.9,59.9-40.4C-162.9,357.4-138.2,352.4-112.8,352.4
			 M-112.8,338.4c-111.8,0-202.5,90.8-202.5,202.6s90.7,202.5,202.5,202.5S89.7,652.8,89.7,541C89.8,429-0.9,338.4-112.8,338.4
			L-112.8,338.4z"/>
	</g>
</g>
<g id="XMLID_99_">
	<g>
		<rect id="XMLID_10_" x="-188.7" y="517.3" class="st2" width="204.5" height="101"/>
		<path class="st1" d="M22,624.6h-217V511.2H22V624.6z M-182.5,612.3H9.8v-88.7h-192.2L-182.5,612.3L-182.5,612.3z"/>
	</g>
	<g>
		<rect id="XMLID_9_" x="-206.3" y="499.7" class="st2" width="204.5" height="101"/>
		<path class="st1" d="M4.4,606.9h-217V493.5h217V606.9z M-200.2,594.6H-8v-88.7h-192.2V594.6z"/>
	</g>
	<g>
		<rect id="XMLID_2_" x="-224.1" y="482.1" class="st2" width="204.5" height="101"/>
		<path class="st1" d="M-13.4,589.2h-217V475.8h217L-13.4,589.2L-13.4,589.2z M-217.9,576.9h192.2v-88.7h-192.2V576.9z"/>
	</g>
	<g id="XMLID_1156_">
		<path id="XMLID_1442_" class="st2" d="M-240.4,530.3v32.9h31.6C-208.8,545.6-222.7,531-240.4,530.3z"/>
		<path id="XMLID_94_" class="st2" d="M-37.8,530.3v32.9h-31.6C-69.4,545.6-55.5,531-37.8,530.3z"/>
		<path id="XMLID_2693_" class="st2" d="M-69.5,468.4c0,18,14.4,32.7,32.4,32.9v-32.9l-32.4-0.3C-69.5,468.3-69.5,468.3-69.5,468.4z
			"/>
		<path id="XMLID_2710_" class="st2" d="M-240.4,467v33.1c18.1,0,32.9-14.7,33.1-32.8L-240.4,467z"/>
		<g>
			<rect id="XMLID_1_" x="-241.7" y="464.4" class="st2" width="204.5" height="101"/>
			<path class="st1" d="M-31,571.5h-217V458.1h217V571.5L-31,571.5z M-235.6,559.2h192.2v-88.7h-192.2L-235.6,559.2L-235.6,559.2z"
				/>
		</g>
		<circle id="XMLID_1164_" class="st2" cx="-141.4" cy="514.9" r="28.2"/>
		<path class="st1" d="M-239.4,506c-0.6,0-1.1,0-1.2,0c-3.4-0.2-6-3.1-5.8-6.5c0.2-3.4,3.1-6,6.5-5.8c0.2,0,11.9,0.4,19.3-6.9
			c4.7-4.5,7-11.2,7-19.9c0-3.4,2.7-6.1,6.1-6.1s6.1,2.7,6.1,6.1c0,12.3-3.8,22.1-11,28.9C-222.1,505.3-235.6,506-239.4,506z"/>
		<path class="st1" d="M-37.9,506c-4,0-17.4-0.7-27.3-10.2c-7.4-6.9-11-16.6-11-28.9c0-3.4,2.7-6.1,6.1-6.1c3.4,0,6.1,2.7,6.1,6.1
			c0,8.7,2.4,15.4,7,19.9c7.7,7.4,19.4,6.8,19.4,6.9c3.3-0.2,6.3,2.4,6.5,5.9c0.2,3.4-2.4,6.3-5.9,6.5C-36.9,506-37.3,506-37.9,506z
			"/>
		<path class="st1" d="M-70.2,569.6c-3.4,0-6.1-2.7-6.1-6.1c0-12.3,3.8-22,11-28.9c11.5-11,27.7-10.2,28.4-10.2
			c3.4,0.2,6,3.2,5.9,6.5c-0.2,3.4-3.2,6-6.5,5.8c-0.2,0-11.9-0.5-19.4,6.9c-4.7,4.5-7,11.2-7,19.9C-64,566.8-66.7,569.6-70.2,569.6
			z"/>
		<path class="st1" d="M-207.4,569.6c-3.4,0-6.1-2.7-6.1-6.1c0-8.7-2.4-15.4-7-19.9c-7.6-7.4-19.3-6.8-19.3-6.9
			c-3.3,0.2-6.3-2.4-6.5-5.8c-0.2-3.4,2.4-6.3,5.8-6.5c0.6,0,16.9-0.7,28.4,10.2c7.4,6.9,11,16.7,11,28.9
			C-201.3,566.8-204,569.6-207.4,569.6z"/>
		<path id="XMLID_97_" class="st1" d="M-162.6,536.4l6-10.5c1.6,1.5,3.3,2.7,4.8,3.9c1.5,1.2,3.1,2.1,4.9,2.9
			c1.8,0.7,3.8,1.1,6.1,1.1c2.2,0,4.1-0.6,5.6-1.8c1.4-1.2,2.1-2.7,2.1-4.5s-0.6-3.2-2-4.3c-1.3-1.2-3-2.2-5.1-3.2
			c-2.1-0.9-4.3-1.8-6.6-2.7c-2.4-0.9-4.5-2.1-6.6-3.3c-2.1-1.2-3.8-2.9-5.1-4.8c-1.4-2-2-4.3-2-7.2c0-3.9,1.3-7.2,3.9-10.1
			c2.7-2.9,6.3-4.7,11.1-5.6l-0.4-7.4h10.1l-0.5,7.2c2.5,0.3,4.8,0.9,7.2,1.6c2.2,0.7,4.7,1.8,7,3l-5.7,9.6
			c-2.2-1.3-4.3-2.4-6.1-3.1c-1.8-0.7-4.1-1.2-6.8-1.2c-2.1,0-3.9,0.5-5.1,1.4c-1.3,0.9-2,2.1-2,3.6c0,1.6,0.6,2.9,2,4
			c1.4,1.1,3,2.1,5.1,2.9c2.1,0.9,4.3,1.8,6.6,2.7s4.5,2.1,6.6,3.3c2.1,1.3,3.8,2.9,5.1,4.8c1.3,2,2,4.3,2,7.2
			c0,2.5-0.6,5.1-1.8,7.5c-1.2,2.4-3,4.7-5.4,6.5c-2.4,1.8-5.2,3-8.8,3.6l0.4,7.4H-146l0.4-7.2c-3.1-0.5-6.1-1.2-8.8-2.4
			C-157.2,540-159.9,538.4-162.6,536.4z"/>
	</g>
</g>
</svg>
