<?xml version="1.0" encoding="utf-8"?>
<!-- Generator: Adobe Illustrator 19.0.0, SVG Export Plug-In . SVG Version: 6.00 Build 0)  -->
<svg version="1.1" id="Layer_1" xmlns="http://www.w3.org/2000/svg" xmlns:xlink="http://www.w3.org/1999/xlink" x="0px" y="0px"
	 viewBox="-389 391 300 300" style="enable-background:new -389 391 300 300;" xml:space="preserve">
<style type="text/css">
	.st0{fill:#FFE000;}
</style>
<g id="Layer_2">
</g>
<g id="XMLID_151_">
	<g>
		<circle id="XMLID_6_" class="st0" cx="-239" cy="541" r="74.5"/>
		<path id="XMLID_1_" d="M-239,474c36.9,0,67,30,67,67c0,36.9-30,67-67,67s-67-30-67-67C-306,504.1-275.9,474-239,474 M-239,466.5
			c-41.2,0-74.5,33.4-74.5,74.5c0,41.2,33.4,74.5,74.5,74.5s74.5-33.4,74.5-74.5C-164.5,499.8-197.8,466.5-239,466.5L-239,466.5z"/>
	</g>
	<g id="XMLID_88_">
		<circle cx="-264.5" cy="520.4" r="11.5"/>
	</g>
	<g id="XMLID_85_">
		<circle cx="-211.2" cy="520.4" r="11.5"/>
	</g>
	<g id="XMLID_82_">
		<path d="M-199.6,578.8H-276c0,0,12.4-25.1,39.4-25.1S-199.6,578.8-199.6,578.8z"/>
	</g>
</g>
</svg>
