<?xml version="1.0" encoding="utf-8"?>
<!-- Generator: Adobe Illustrator 19.0.0, SVG Export Plug-In . SVG Version: 6.00 Build 0)  -->
<svg version="1.1" id="Layer_1" xmlns="http://www.w3.org/2000/svg" xmlns:xlink="http://www.w3.org/1999/xlink" x="0px" y="0px"
	 viewBox="-326 328.9 426.5 424.1" style="enable-background:new -326 328.9 426.5 424.1;" xml:space="preserve">
<style type="text/css">
	.st0{fill:#002646;}
</style>
<g id="Layer_1_2_">
	<g id="Layer_2">
	</g>
	<g id="Layer_1_1_">
		<g id="XMLID_3_">
		</g>
		<g id="XMLID_4_">
		</g>
		<g id="XMLID_5_">
		</g>
		<g id="XMLID_6_">
		</g>
		<g id="XMLID_7_">
		</g>
		<g id="XMLID_8_">
		</g>
	</g>
	<g>
		<path class="st0" d="M32.1,339.9c15.3,0,29.7,6,40.6,16.8c10.8,10.8,16.8,25.2,16.8,40.6c0,31.6-25.7,57.4-57.4,57.4
			s-57.4-25.7-57.4-57.4C-25.2,365.6,0.5,339.9,32.1,339.9 M32.1,328.9c-37.7,0-68.4,30.6-68.4,68.4s30.6,68.4,68.4,68.4
			s68.4-30.6,68.4-68.4C100.5,359.5,69.9,328.9,32.1,328.9L32.1,328.9z"/>
	</g>
</g>
<g id="Isolation_Mode">
	<path class="st0" d="M18.2,430.8l-30.8-32.2l9.8-8.9l19.9,15.8c0,0,21.6-27.3,55.8-41.8l3.9,5.7C76.9,369.4,40.8,388.5,18.2,430.8z
		"/>
</g>
<g id="XMLID_22_">
	<path id="XMLID_13_" class="st0" d="M-60.8,735.2c2.2,0,4.1,1.9,4.1,4.1c0,2.2-1.9,4.1-4.1,4.1h-211c-2.2,0-4.1-1.9-4.1-4.1
		s1.9-4.1,4.1-4.1H-60.8 M-60.8,725.7h-211c-7.5,0-13.6,6.1-13.6,13.6v0c0,7.5,6.1,13.6,13.6,13.6h211c7.5,0,13.6-6.1,13.6-13.6v0
		C-47.2,731.9-53.3,725.7-60.8,725.7L-60.8,725.7z"/>
	<path id="XMLID_2_" class="st0" d="M-84.3,734.6l-76.8-76.8c-2.9-2.9-7.6-2.9-10.5,0l-76,76l-6.7-6.7l76-76c3.2-3.2,7.4-4.9,12-4.9
		c4.5,0,8.8,1.8,12,4.9l76.8,76.8L-84.3,734.6z"/>
	<path id="XMLID_11_" class="st0" d="M-111.2,733.7l-52.6-52.6c-1.4-1.4-3.7-1.4-5.1,0l-52.1,52.1l-6.7-6.7l52.1-52.1
		c5.1-5.1,13.4-5.1,18.5,0l52.6,52.6L-111.2,733.7z"/>
	<path id="XMLID_10_" class="st0" d="M-166.3,716.8c-12.1,0-24-1.9-35.4-5.5l2.9-9c20.7,6.6,43.5,6.7,64.3,0.2l2.8,9.1
		C-142.9,715.1-154.5,716.8-166.3,716.8z"/>
	<path id="XMLID_1_" class="st0" d="M-109.7,702l-4.7-8.3c33.4-18.8,54.1-54.2,54.1-92.4c0-32-14.3-62-39.2-82.3l6-7.4
		c27.1,22.1,42.7,54.7,42.7,89.7C-50.8,643-73.4,681.6-109.7,702z"/>
	<path id="XMLID_12_" class="st0" d="M-221.4,702.9c-22.3-12.1-40.2-31.5-50.5-54.6l8.7-3.9c9.4,21.2,25.9,39,46.3,50.1
		L-221.4,702.9z"/>
	<path id="XMLID_9_" class="st0" d="M-197.1,676.5c-14.2-5.8-26.4-15.5-35.3-28l7.7-5.5c7.9,11,18.7,19.6,31.2,24.7L-197.1,676.5z"
		/>
	<path id="XMLID_14_" class="st0" d="M-136.8,677l-3.5-8.8c27.7-10.8,45.6-37,45.6-66.8c0-18.3-6.9-35.8-19.5-49.1l6.9-6.5
		c14.2,15.1,22.1,34.9,22.1,55.7C-85.2,635-105.4,664.7-136.8,677z"/>
	<path id="XMLID_15_" class="st0" d="M-197.6,627.1v14.3h-102.7v-14.3H-197.6 M-195.8,617.6h-106.2c-4.2,0-7.7,3.5-7.7,7.7v17.9
		c0,4.2,3.5,7.7,7.7,7.7h106.2c4.2,0,7.7-3.5,7.7-7.7v-17.9C-188.1,621.1-191.6,617.6-195.8,617.6L-195.8,617.6z"/>
	<path id="XMLID_20_" class="st0" d="M-86.7,441l12.7,12.7l-7.4,7.4L-94,448.3L-86.7,441 M-86.7,429.8c-1.4,0-2.7,0.5-3.8,1.6
		l-13.2,13.2c-2.1,2.1-2.1,5.5,0,7.6l18.6,18.6c1,1,2.4,1.6,3.8,1.6c1.4,0,2.7-0.5,3.8-1.6l13.2-13.2c2.1-2.1,2.1-5.5,0-7.6
		l-18.6-18.6C-83.9,430.3-85.3,429.8-86.7,429.8L-86.7,429.8z"/>
	<path id="XMLID_16_" class="st0" d="M-204.2,558.5l12.7,12.7l-18.5,18.5l-12.7-12.7L-204.2,558.5 M-204.2,547.9
		c-1.8,0-3.5,0.7-4.8,2l-22.3,22.3c-2.7,2.7-2.7,7,0,9.7l16.5,16.5c1.3,1.3,3.1,2,4.8,2c1.8,0,3.5-0.7,4.8-2l22.3-22.3
		c2.7-2.7,2.7-7,0-9.7l-16.5-16.5C-200.7,548.6-202.4,547.9-204.2,547.9L-204.2,547.9z"/>
	<path id="XMLID_21_" class="st0" d="M-173.4,586.2c-2.7,0-5.2-1-7-2.9l-35.8-35.8c-3.9-3.9-3.8-10.3,0.1-14.3l95.9-95.9
		c1.9-1.9,4.4-3,7.1-3c2.7,0,5.3,1,7.2,2.9L-70,473c1.9,1.9,2.9,4.5,2.9,7.2c-0.1,2.7-1.1,5.2-3,7.1l-26.3,26.3l-6.7-6.7l26.3-26.3
		c0.2-0.2,0.4-0.7,0.1-0.9l-35.8-35.8c-0.2-0.2-0.7-0.1-0.9,0.1l-95.9,95.9c-0.3,0.3-0.3,0.7-0.1,0.9l35.8,35.8
		c0.2,0.2,0.7,0.1,0.9-0.1l32.9-32.9l6.7,6.7l-32.9,32.9c-1.9,1.9-4.4,3-7.1,3C-173.2,586.2-173.3,586.2-173.4,586.2z"/>
	<path id="XMLID_29_" class="st0" d="M-123.6,498.5c13.3,0,24.2,10.9,24.2,24.2c0,13.3-10.9,24.2-24.2,24.2s-24.2-10.9-24.2-24.2
		C-147.8,509.4-136.9,498.5-123.6,498.5 M-123.6,489c-18.6,0-33.7,15.1-33.7,33.7c0,18.6,15.1,33.7,33.7,33.7
		c18.6,0,33.7-15.1,33.7-33.7C-89.9,504.1-105,489-123.6,489L-123.6,489z"/>
	<path id="XMLID_30_" class="st0" d="M-123.6,514.2c4.7,0,8.5,3.8,8.5,8.5c0,4.7-3.8,8.5-8.5,8.5c-4.7,0-8.5-3.8-8.5-8.5
		C-132.1,518-128.3,514.2-123.6,514.2 M-123.6,504.7c-10,0-18,8.1-18,18c0,10,8.1,18,18,18s18-8.1,18-18
		C-105.6,512.7-113.6,504.7-123.6,504.7L-123.6,504.7z"/>
</g>
</svg>
