<?xml version="1.0" encoding="utf-8"?>
<!-- Generator: Adobe Illustrator 19.0.0, SVG Export Plug-In . SVG Version: 6.00 Build 0)  -->
<svg version="1.1" id="Layer_1" xmlns="http://www.w3.org/2000/svg" xmlns:xlink="http://www.w3.org/1999/xlink" x="0px" y="0px"
	 viewBox="-389 391 300 300" style="enable-background:new -389 391 300 300;" xml:space="preserve">
<style type="text/css">
	.st0{fill:#FFFFFF;}
	.st1{fill:#95B9C2;}
	.st2{fill:#0066FF;}
	.st3{fill:#6C7E8D;}
	.st4{fill:#FFDABD;}
	.st5{font-family:'KumbhSans-Black';}
	.st6{font-size:43px;}
</style>
<g id="Layer_2">
</g>
<polygon class="st0" points="-200.9,538 -213.5,587.2 -202.9,616.7 -154.7,616.7 -159.6,534.2 "/>
<path class="st0" d="M-312,536.1c0,0,2.2,30.1-14.5,29.5l2.3,51.2l74.2-0.1l-6.1-50.1c0,0-23.4,3.9-19.6-28.6L-312,536.1z"/>
<path class="st0" d="M-325.5,471.1l0.2,18.8c-0.2,3.1-0.3,6.2-0.2,9.2c0,2.7,0.2,7.9,0.9,12c0.5,3.3,2.2,11.6,7.6,19.2
	c7.1,10.1,17.5,14.4,23.3,16.1c5.9-1.7,16.2-6,23.3-16.1c5.3-7.6,7.1-15.9,7.6-19.2c0.6-4.1,0.8-9.3,0.9-12c0.1-3,0-6.1-0.2-9.1
	l0.2-19L-325.5,471.1L-325.5,471.1z"/>
<path class="st0" d="M-212,477.7l0.2,17.9c-0.2,3-0.3,5.9-0.2,8.8c0,2.6,0.2,7.5,0.8,11.5c0.5,3.1,2.1,11.1,7.2,18.3
	c6.8,9.6,16.6,13.7,22.2,15.3c5.6-1.6,15.5-5.7,22.2-15.3c5.1-7.2,6.8-15.2,7.2-18.3c0.6-3.9,0.8-8.9,0.8-11.5c0-2.9,0-5.8-0.2-8.6
	l0.2-18L-212,477.7L-212,477.7z"/>
<g id="XMLID_40_">
	<g id="XMLID_42_">
		<path id="XMLID_44_" class="st1" d="M-120.8,578.1c-14.2-10.6-27.7-6.2-37.3-12.3c0,0-1.8,0.5-3.4-3.3l-21,18l-20.3-18
			c0.5,0.5,2.5,4-32.9,11.1c0,0-20,3.2-18.7,43.1h68.3v-24.3l4.3-5l4.3,5v24.3h68C-109.5,616.8-106.7,588.7-120.8,578.1z
			 M-193.2,592.6l-12.1-18.4l3.6-5.6l17,14.8L-193.2,592.6z M-170.7,592.6l-8.5-9.2l17-14.8l3.6,5.6L-170.7,592.6z"/>
		<path id="XMLID_43_" class="st2" d="M-202.9,562.5L-202.9,562.5C-202.8,562.5-202.9,562.5-202.9,562.5z"/>
	</g>
	<path id="XMLID_41_" class="st3" d="M-174.4,481.5c0,0-7.3,16.3-39.2,14.2c0,0-2.8,25.7,8.2,39.6c0,0,6.1,6.6,5.9,11
		c0,0,0.5,9.9-2,14.2s-5.7,6.4-14.6,8.2l-5.4,1l-8.7,2.1c0,0-22.9-122.6,48.4-122.6s46.1,122,46.1,122l-20.4-4.4
		c0,0-7.5-1.7-8.3-15.4s1.6-7.4,6.3-16.1c4.7-8.7,9.7-12.7,8.2-41.7c-1.6-29,0-1.1,0-1.1S-161.5,496-174.4,481.5z"/>
	<path class="st3" d="M-181.8,553.1l-0.5-0.1c-5.9-1.7-17-6.1-24.6-16.8c-5.3-7.5-7.2-15.6-7.8-19.8s-0.8-9.3-0.9-12
		c0-3,0-6,0.2-8.9l-0.2-21.3h67.6l-0.2,21.4c0.2,2.8,0.3,5.8,0.2,8.8c0,2.7-0.2,7.8-0.9,12c-0.6,4.2-2.5,12.3-7.8,19.8
		c-7.6,10.7-18.7,15.1-24.6,16.8L-181.8,553.1z M-212,477.7l0.2,17.9c-0.2,3-0.3,5.9-0.2,8.8c0,2.6,0.2,7.5,0.8,11.5
		c0.5,3.1,2.1,11.1,7.2,18.3c6.8,9.6,16.6,13.7,22.2,15.3c5.6-1.6,15.5-5.7,22.2-15.3c5.1-7.2,6.8-15.2,7.2-18.3
		c0.6-3.9,0.8-8.9,0.8-11.5c0-2.9,0-5.8-0.2-8.6l0.2-18L-212,477.7L-212,477.7z"/>
	<path class="st3" d="M-252.6,616.8h-3.5c0-18.1,0-27.2,10.1-38.2c6.9-7.5,19.3-9.9,29.3-11.7c4.2-0.8,7.8-1.4,10-2.3
		c4.9-1.9,5.9-15,5.4-22.7l3.5-0.2c0.2,2.3,1.3,22.7-7.6,26.2c-2.6,1-6.3,1.7-10.7,2.5c-9.5,1.8-21.3,4-27.4,10.6
		C-252.2,590.5-252.6,597.6-252.6,616.8z"/>
	<path class="st3" d="M-107.7,616.8h-3.5c0-19.2-0.4-26.4-9.2-35.9c-6.1-6.7-17.9-8.9-27.4-10.6c-4.3-0.8-8.1-1.5-10.7-2.5
		c-8.9-3.5-7.7-23.9-7.6-26.2l3.5,0.2c-0.5,7.7,0.4,20.8,5.4,22.7c2.3,0.9,5.9,1.6,10,2.3c10,1.9,22.4,4.2,29.3,11.7
		C-107.7,589.6-107.7,598.7-107.7,616.8z"/>
</g>
<g id="XMLID_34_">
	<path id="XMLID_39_" class="st0" d="M-324.2,565.2c0,0-29.3,4.1-35.5,12.8s-11.2,12.8-10.1,38.8h62L-324.2,565.2z"/>
	<path id="XMLID_38_" class="st0" d="M-263.8,565.2c0,0,29.3,4.1,35.5,12.8s11.2,12.8,10.1,38.8h-62L-263.8,565.2z"/>
	<g>
		<path id="XMLID_37_" class="st0" d="M-327.8,497.2c0,0-8.4-4.5-5.5,8.5s9.2,14.3,9.2,14.3"/>
		<path class="st3" d="M-324.2,521.7c-0.1,0-0.2,0-0.3,0c-0.3-0.1-7.5-1.6-10.6-15.6c-1.2-5.4-0.7-8.8,1.4-10.5
			c2.6-2,6.2-0.2,6.6,0.1c0.9,0.5,1.2,1.5,0.7,2.4s-1.5,1.2-2.4,0.7c-0.6-0.3-2.2-0.9-2.9-0.4c-0.2,0.2-1.4,1.4-0.1,6.9
			c2.6,11.6,7.8,12.9,7.8,12.9c0.9,0.2,1.6,1.1,1.4,2.1C-322.6,521.1-323.5,521.7-324.2,521.7z"/>
	</g>
	<g>
		<path id="XMLID_36_" class="st0" d="M-257.9,496.7c0,0,8.4-4.5,5.5,8.5s-9.2,14.3-9.2,14.3"/>
		<path class="st3" d="M-261.5,521.1c-0.8,0-1.6-0.6-1.7-1.4c-0.2-1,0.4-1.9,1.4-2.1c0,0,5.3-1.4,7.8-12.9c1.2-5.5,0.1-6.7-0.1-6.9
			c-0.7-0.5-2.3,0-2.9,0.4c-0.9,0.5-1.9,0.1-2.4-0.7c-0.5-0.9-0.1-1.9,0.7-2.4c0.4-0.2,4-2.1,6.6-0.1c2.2,1.6,2.6,5.1,1.4,10.5
			c-3.1,14-10.3,15.5-10.6,15.6C-261.3,521.1-261.4,521.1-261.5,521.1z"/>
	</g>
	<path class="st3" d="M-293.8,550l-0.5-0.1c-6.2-1.7-17.8-6.3-25.7-17.6c-5.6-7.9-7.5-16.3-8.2-20.7c-0.7-4.3-0.9-9.7-0.9-12.5
		c-0.1-3.1,0-6.3,0.2-9.3l-0.3-22.2h70.7l-0.3,22.4c0.2,3,0.3,6.1,0.2,9.2c0,2.8-0.2,8.2-0.9,12.5c-0.7,4.3-2.6,12.8-8.2,20.7
		c-7.9,11.2-19.5,15.8-25.7,17.6H-293.8z M-325.5,471.1l0.2,18.8c-0.2,3.1-0.3,6.2-0.2,9.2c0,2.7,0.2,7.9,0.9,12
		c0.5,3.3,2.2,11.6,7.6,19.2c7.1,10.1,17.5,14.4,23.3,16.1c5.9-1.7,16.2-6,23.3-16.1c5.3-7.6,7.1-15.9,7.6-19.2
		c0.6-4.1,0.8-9.3,0.9-12c0.1-3,0-6.1-0.2-9.1l0.2-19L-325.5,471.1L-325.5,471.1z"/>
	<path class="st3" d="M-368,616.8h-3.5c0-20.3,0.4-28.9,10.5-40c7.2-7.9,20.2-10.3,30.7-12.2c4.4-0.8,8.1-1.5,10.5-2.5
		c5.8-2.3,6-18.4,5.7-23.9l3.5-0.2c0.2,2.4,1.4,23.7-7.9,27.4c-2.7,1.1-6.6,1.8-11.2,2.6c-9.9,1.8-22.3,4.1-28.7,11.2
		C-367.5,589.2-368,596.7-368,616.8z"/>
	<path class="st3" d="M-216.3,616.8h-3.5c0-20.2-0.5-27.6-9.6-37.6c-6.4-7-18.8-9.3-28.7-11.2c-4.5-0.8-8.5-1.6-11.2-2.6
		c-9.3-3.7-8-25-7.9-27.4l3.5,0.2c-0.6,8.1,0.5,21.8,5.7,23.9c2.4,0.9,6.2,1.6,10.5,2.5c10.4,1.9,23.4,4.4,30.7,12.2
		C-216.7,587.9-216.3,596.6-216.3,616.8z"/>
	<path id="XMLID_35_" class="st3" d="M-327.8,497.4c0.1-3.5,0.4-6.7,0.9-9.4c5.2,0.7,18.9,1.8,31.6-6.6c3.7-2.4,6.5-5.1,8.6-7.6
		c12,13.3,26.4,11.7,26.4,11.7c0.2,3.9,0.3,8.2,0.2,12.8c0.9-0.6,1.8-1.1,2.6-1.5c3.4-22.8,0-51.2-29.2-51.2
		c-20.9,0-32.8,6.9-39.4,15.4c-5.8,7.6-6.4,15.8-7,21.2c-0.5,5.4-0.2,10.4,0.5,14.9C-331.7,496.3-330.1,495.7-327.8,497.4z"/>
	<path class="st3" d="M-307.7,577.2l-14.1-13.6l1.5-1.2c0,0,4-3.3,4.8-6.8l0.5-2.4l19.6,11.6L-307.7,577.2z M-316.5,563.8l8.8,8.5
		l6.7-6.8l-11.8-7C-313.8,560.8-315.5,562.6-316.5,563.8z"/>
	<path class="st3" d="M-281.2,577.2l-12.3-12.5l19.6-11.6l0.5,2.4c0.7,3.5,4.7,6.7,4.8,6.8l1.5,1.2L-281.2,577.2z M-287.9,565.6
		l6.7,6.8l8.8-8.5c-1.2-1.2-2.8-3-3.8-5.2L-287.9,565.6z"/>
	<polygon class="st3" points="-296.9,616.8 -299.9,616.8 -299.9,563.7 -288.9,563.7 -288.9,616.7 -291.9,616.7 -291.9,566.7 
		-296.9,566.7 	"/>
</g>
<g>
	<path class="st0" d="M-240.4,650.9c-18.4,0-33.3-14.9-33.3-33.3s14.9-33.3,33.3-33.3s33.3,14.9,33.3,33.3S-222.1,650.9-240.4,650.9
		z"/>
	<path class="st4" d="M-240.4,587.2c16.7,0,30.3,13.6,30.3,30.3s-13.6,30.3-30.3,30.3s-30.3-13.6-30.3-30.3
		C-270.7,600.9-257.1,587.2-240.4,587.2 M-240.4,581.2c-20,0-36.3,16.3-36.3,36.3s16.3,36.3,36.3,36.3s36.3-16.3,36.3-36.3
		C-204.1,597.6-220.4,581.2-240.4,581.2L-240.4,581.2z"/>
</g>
<text transform="matrix(1 0 0 1 -253.164 632.1541)" class="st3 st5 st6">2</text>
<g id="Layer_2_1_">
</g>
<g id="Layer_2_2_">
</g>
</svg>
