<?xml version="1.0" encoding="utf-8"?>
<!-- Generator: Adobe Illustrator 19.0.0, SVG Export Plug-In . SVG Version: 6.00 Build 0)  -->
<svg version="1.1" id="Layer_1" xmlns="http://www.w3.org/2000/svg" xmlns:xlink="http://www.w3.org/1999/xlink" x="0px" y="0px"
	 viewBox="-326 748.9 426.5 424.1" style="enable-background:new -326 748.9 426.5 424.1;" xml:space="preserve">
<style type="text/css">
	.st0{fill:#ACD3DD;}
	.st1{fill:#002646;}
</style>
<g id="Layer_1_2_">
	<g id="Layer_2">
	</g>
	<g id="Layer_1_1_">
		<g id="XMLID_3_">
		</g>
		<g id="XMLID_4_">
		</g>
		<g id="XMLID_5_">
		</g>
		<g id="XMLID_6_">
		</g>
		<g id="XMLID_7_">
		</g>
		<g id="XMLID_8_">
		</g>
	</g>
	<path class="st0" d="M-112.8,758.4c-111.8,0-202.5,90.8-202.5,202.6c0,111.8,90.7,202.5,202.5,202.5S89.7,1072.8,89.7,961
		C89.8,849-0.9,758.4-112.8,758.4z"/>
</g>
<path class="st1" d="M-23,1062.1c-11.5-6.1-20.6-18.8-27.7-31.8c-4.7-8.2-7.1-14.5-7.1-14.5c-2.4-5.3-4.4-10.3-6.1-14.2
	c-1.7-3.9-3.3-7.8-4.8-11.6l1.1-1.1l21-23.9c6.3-7,10.2-11.1,15.9-13.7c7.5-3.6,12.1-3.6,15.2-5.6c2.6-1.2,2.4-4.1,2.2-4.8
	c-1.2-1.2-10.6,1.2-27.8,1.2c-17.1,0-27-2.4-28-1.2c-0.5,0.9-0.5,3.1,1.2,4.3c2.2,1.2,6.8,1.7,10.8,2.9c4.6,1.2,7,2.6,7,5.8
	c0,2.4-0.9,5.1-4.6,9.6l-16.2,20.1l-0.4,0.4c-8.3-20-15.6-36.3-27.4-45.9c-8.2-6.5-16.2-8.5-23.6-9.4c22.9-3.6,48.2-18.5,48.2-46.1
	c0-21.5-18.5-42.7-53.8-42.7c-20.1,0-33.5,1.2-53.1,1.2s-33.3-2.4-34.3-1.2c-0.8,0.8-0.5,3.1,1.2,4.3c2.9,1.9,6,1.2,10.6,4.1
	c3.4,2.2,5.3,4.8,5.1,12.1v127.9c0,7.3-1.9,9.9-5.1,12.1c-4.8,2.9-8.5,2.2-11.3,4.1c-1.7,1.2-1.7,3.6-1.2,4.3
	c0.9,1.2,17.9-1.2,37.4-1.2s36.2,2.4,37.2,1.2c0.5-0.8,0.3-3.1-1.2-4.3c-3.1-2.2-6-1.4-10.6-4.1c-3.4-2.2-5.1-4.8-5.1-12.1v-58.6
	h2.9c25.3,0,36.2,39.5,57.6,76.5c0.4,0.8,0.9,1.6,1.4,2.3l-0.9,0.9l-24.6,28.2c-6.3,7-10.2,11.1-15.9,14c-7.5,3.4-12.1,3.4-15.2,5.3
	c-2.6,1.4-2.4,4.3-1.9,4.8c0.9,1.2,10.6-1.2,27.8-1.2s26.8,2.4,27.8,1.2c0.5-0.8,0.8-3.1-1.2-4.3c-2.2-1.2-6.8-1.4-10.8-2.6
	c-4.6-1.4-7-2.9-7-6c0-2.2,0.9-4.8,4.6-9.4l20.1-24.9l0.8-0.7c19.9,32.7,41.2,60.2,77.7,60.2c10.1,0,18.9-2.6,25.5-7
	C-2.5,1071-13.6,1068.2-23,1062.1z M-139.7,921.6h-18.5l0.3-57.6c0-12.5,5.3-15.4,12.1-15.4c9.9,0,20.7,6.8,26.8,22.2
	C-111,891.2-115.8,921.6-139.7,921.6z"/>
</svg>
