<?xml version="1.0" encoding="utf-8"?>
<!-- Generator: Adobe Illustrator 19.0.0, SVG Export Plug-In . SVG Version: 6.00 Build 0)  -->
<svg version="1.1" id="Layer_1" xmlns="http://www.w3.org/2000/svg" xmlns:xlink="http://www.w3.org/1999/xlink" x="0px" y="0px"
	 viewBox="-326 328.9 426.5 424.1" style="enable-background:new -326 328.9 426.5 424.1;" xml:space="preserve">
<style type="text/css">
	.st0{fill:#95B9C2;}
</style>
<g>
	<path class="st0" d="M57.5,356.4c7.9,0,14.2,6.4,14.2,14.2v340.6c0,7.9-6.4,14.2-14.2,14.2H-283c-7.9,0-14.2-6.4-14.2-14.2V370.6
		c0-7.9,6.4-14.2,14.2-14.2H57.5 M57.5,338.4H-283c-17.7,0-32.2,14.5-32.2,32.2v340.6c0,17.7,14.5,32.2,32.2,32.2H57.5
		c17.7,0,32.2-14.5,32.2-32.2V370.6C89.8,352.9,75.2,338.4,57.5,338.4L57.5,338.4z"/>
</g>
</svg>
