<?xml version="1.0" encoding="utf-8"?>
<!-- Generator: Adobe Illustrator 19.0.0, SVG Export Plug-In . SVG Version: 6.00 Build 0)  -->
<svg version="1.1" id="Layer_1" xmlns="http://www.w3.org/2000/svg" xmlns:xlink="http://www.w3.org/1999/xlink" x="0px" y="0px"
	 viewBox="-326 748.9 426.5 424.1" style="enable-background:new -326 748.9 426.5 424.1;" xml:space="preserve">
<style type="text/css">
	.st0{fill:#ACD3DD;}
	.st1{fill:#002646;}
</style>
<g id="Layer_1_2_">
	<g id="Layer_2">
	</g>
	<g id="Layer_1_1_">
		<g id="XMLID_3_">
		</g>
		<g id="XMLID_4_">
		</g>
		<g id="XMLID_5_">
		</g>
		<g id="XMLID_6_">
		</g>
		<g id="XMLID_7_">
		</g>
		<g id="XMLID_8_">
		</g>
	</g>
	<path class="st0" d="M-112.8,758.4c-111.8,0-202.5,90.8-202.5,202.6c0,111.8,90.7,202.5,202.5,202.5S89.7,1072.8,89.7,961
		C89.8,849-0.9,758.4-112.8,758.4z"/>
</g>
<g>
	<path class="st1" d="M-111.7,1040.9c5,0,9.4-0.7,13.3-2.1c3.8-1.4,7.1-3.4,9.7-5.9c2.6-2.5,4.6-5.5,6-8.9c1.4-3.4,2.1-7.1,2.1-11.1
		c0-4.7-1.1-8.8-3.4-12.1c-2.3-3.3-5.3-6.3-9-8.8c-3.7-2.6-8.1-4.9-13.1-6.9c-5-2.1-10.1-4.2-15.4-6.4c-8.1-3.3-15.8-7-23.1-11.2
		c-7.3-4.2-13.7-9-19.3-14.6c-5.6-5.5-10-11.8-13.3-18.9s-4.9-15.3-4.9-24.5c0-5.5,0.8-11.2,2.5-17.2s4.6-11.6,8.8-16.8
		c4.2-5.2,9.9-9.6,17.2-13.1s16.5-5.6,27.7-6.2v-33.9h26.2l-0.3,36.6c8.3,2.2,15.8,5.7,22.6,10.5h0.3l-1-11.5h21.6v65.5h-18.3
		c-2.6-15.7-7.3-27.5-14.4-35.3c-7-7.9-17-11.8-30.1-11.8c-4,0-7.6,0.6-10.9,1.8c-3.2,1.2-6,2.8-8.3,5c-2.3,2.1-4.1,4.7-5.3,7.7
		c-1.3,3-1.9,6.2-1.9,9.6c0,4.4,0.7,8.2,2.1,11.5c1.4,3.3,3.8,6.4,7.1,9.2c3.3,2.9,7.7,5.7,13.1,8.6c5.4,2.9,12.1,6.1,20.2,9.8
		c4.6,2.1,9.3,4.3,14.1,6.6c4.7,2.3,9.3,4.9,13.7,7.7c4.4,2.8,8.6,5.9,12.5,9.2c3.9,3.3,7.3,7.1,10.2,11.2c2.9,4.1,5.1,8.7,6.8,13.7
		c1.7,5,2.5,10.6,2.5,16.7c0,7.3-1.2,14.1-3.6,20.3c-2.4,6.2-5.8,11.8-10.3,16.6c-4.5,4.8-10.1,8.8-16.7,12
		c-6.7,3.2-14.3,5.4-22.8,6.6l-0.1,39.5h-25.6l-0.3-39.5c-6-0.9-12-2.4-18-4.6s-11.8-4.9-17.4-8.3h-0.3l1,11.9h-21.6v-65.5h18.3
		c2.6,15.9,8.1,27.7,16.5,35.5C-135.8,1037-124.9,1040.9-111.7,1040.9z"/>
</g>
</svg>
