<?xml version="1.0" encoding="utf-8"?>
<!-- Generator: Adobe Illustrator 19.0.0, SVG Export Plug-In . SVG Version: 6.00 Build 0)  -->
<svg version="1.1" id="Layer_1" xmlns="http://www.w3.org/2000/svg" xmlns:xlink="http://www.w3.org/1999/xlink" x="0px" y="0px"
	 viewBox="-389 811 300 300" style="enable-background:new -389 811 300 300;" xml:space="preserve">
<style type="text/css">
	.st0{fill:#ACD3DD;}
	.st1{fill:#002646;}
</style>
<path class="st0" d="M-140.2,843.7c7,0,12.7,5.7,12.7,12.7v187.3c0,7-5.7,12.7-12.7,12.7h-199.2c-7,0-12.7-5.7-12.7-12.7V856.4
	c0-7,5.7-12.7,12.7-12.7H-140.2"/>
<image style="display:none;overflow:visible;enable-background:new    ;" width="1067" height="960" xlink:href="image.png"  transform="matrix(0.3891 0 0 0.3891 -693.5825 1025.2332)">
</image>
<path class="st1" d="M-144.6,848.5c6.7,0,12.1,5.4,12.1,12.1v179c0,6.7-5.4,12.1-12.1,12.1h-190.3c-6.7,0-12.1-5.4-12.1-12.1v-179
	c0-6.7,5.4-12.1,12.1-12.1H-144.6 M-144.6,835.5h-190.3c-13.8,0-25.1,11.3-25.1,25.1v179c0,13.8,11.3,25.1,25.1,25.1h190.3
	c13.8,0,25.1-11.3,25.1-25.1v-179C-119.5,846.8-130.8,835.5-144.6,835.5L-144.6,835.5z"/>
<g>
	<path class="st1" d="M-352,895h-14.4c-12.5,0-22.6,10.2-22.6,22.6v66.3c0,12.5,10.2,22.6,22.6,22.6h14.4V895z"/>
</g>
<g>
	<path class="st1" d="M-126,895h14.4c12.5,0,22.6,10.2,22.6,22.6v66.3c0,12.5-10.2,22.6-22.6,22.6H-126V895z"/>
</g>
<path class="st1" d="M-108.5,969.5v69c0,22.1-17.9,40-40,40h-58v13h58c29.2,0,53-23.9,53-53V969L-108.5,969.5z"/>
<circle class="st1" cx="-207.2" cy="1085.3" r="15.8"/>
<circle class="st1" cx="-278.8" cy="936.4" r="11.8"/>
<circle class="st1" cx="-199.2" cy="936.4" r="11.8"/>
<path class="st1" d="M-239,994.2c-0.3,0-0.7,0-1,0c-24.8-0.5-37.6-20.3-38.9-22.6c-1.9-3.1-0.9-7.1,2.2-8.9c3.1-1.9,7.1-0.9,8.9,2.2
	c0.4,0.6,9.9,15.9,28.1,16.3c19,0.4,29.4-16.2,29.6-16.3c1.9-3,5.9-4,8.9-2.1c3.1,1.9,4,5.8,2.2,8.9
	C-199.6,972.6-213.1,994.2-239,994.2z"/>
</svg>
