<?xml version="1.0" encoding="utf-8"?>
<!-- Generator: Adobe Illustrator 19.0.0, SVG Export Plug-In . SVG Version: 6.00 Build 0)  -->
<svg version="1.1" id="Layer_1" xmlns="http://www.w3.org/2000/svg" xmlns:xlink="http://www.w3.org/1999/xlink" x="0px" y="0px"
	 viewBox="-389 391 300 300" style="enable-background:new -389 391 300 300;" xml:space="preserve">
<style type="text/css">
	.st0{fill:#5596FF;}
</style>
<g id="Layer_2">
</g>
<g>
	<g>
		<circle id="XMLID_5_" class="st0" cx="-239" cy="541" r="74.5"/>
		<path id="XMLID_1_" d="M-239,474c36.9,0,67,30,67,67c0,36.9-30,67-67,67s-67-30-67-67C-305.9,504.1-275.9,474-239,474 M-239,466.5
			c-41.2,0-74.5,33.4-74.5,74.5c0,41.2,33.4,74.5,74.5,74.5s74.5-33.4,74.5-74.5C-164.4,499.8-197.8,466.5-239,466.5L-239,466.5z"/>
	</g>
	<g id="XMLID_97_">
		<circle cx="-264.5" cy="520.4" r="11.5"/>
	</g>
	<g id="XMLID_94_">
		<circle cx="-211.1" cy="520.4" r="11.5"/>
	</g>
</g>
<path d="M-237.8,579c-0.3,0-0.7,0-1,0c-19.4-0.3-33.2-9.1-39.7-14.4c-1.7-1.4-2-3.9-0.6-5.6c1.4-1.7,3.9-2,5.6-0.6
	c5.7,4.6,17.8,12.3,34.8,12.6c18.5,0.3,31.7-8.7,36.6-12.6c1.7-1.4,4.2-1.1,5.6,0.6c1.4,1.7,1.1,4.2-0.6,5.6
	C-202.5,569-217.2,579-237.8,579z"/>
</svg>
