<?xml version="1.0" encoding="utf-8"?>
<!-- Generator: Adobe Illustrator 19.0.0, SVG Export Plug-In . SVG Version: 6.00 Build 0)  -->
<svg version="1.1" id="Layer_1" xmlns="http://www.w3.org/2000/svg" xmlns:xlink="http://www.w3.org/1999/xlink" x="0px" y="0px"
	 viewBox="-389 391 300 300" style="enable-background:new -389 391 300 300;" xml:space="preserve">
<style type="text/css">
	.st0{fill:#FFFFFF;}
	.st1{fill:#0066FF;}
	.st2{fill:#A4EEFF;}
	.st3{fill:#FBD0AF;}
	.st4{fill:#1FEAA1;}
</style>
<g id="Layer_2">
</g>
<g id="XMLID_588_">
	<g>
		<polygon id="XMLID_20_" class="st0" points="-286.7,537 -286.7,621.1 -193.3,621.1 -193.3,537 -240.4,495 		"/>
		<path d="M-193.3,624.1h-93.4c-1.7,0-3-1.4-3-3v-84c0-0.9,0.4-1.7,1-2.3l46.3-42c1.2-1,2.9-1.1,4.1,0l47.1,42c0.6,0.6,1,1.4,1,2.3
			v84C-190.3,622.8-191.7,624.1-193.3,624.1z M-283.7,618.1h87.3v-79.6l-44-39.3l-43.3,39.3V618.1z"/>
	</g>
	<g>
		<polygon id="XMLID_19_" class="st1" points="-240.4,495 -295.1,544.6 -306,533.8 -240.4,473.3 -175.1,533 -186,543.9 		"/>
		<path d="M-295.1,547.7c-0.8,0-1.6-0.3-2.1-0.9l-10.9-10.9c-0.6-0.6-0.9-1.4-0.9-2.2c0-0.8,0.4-1.6,1-2.2l65.6-60.5
			c1.2-1.1,2.9-1.1,4.1,0l65.3,59.7c0.6,0.6,1,1.3,1,2.2c0,0.8-0.3,1.6-0.9,2.2l-10.9,10.9c-1.1,1.1-3,1.2-4.2,0.1l-52.4-47
			l-52.7,47.8C-293.6,547.4-294.4,547.7-295.1,547.7z M-301.6,533.8l6.6,6.6l52.5-47.7c1.2-1.1,2.9-1,4.1,0l52.3,46.9l6.6-6.6
			l-60.9-55.7L-301.6,533.8z"/>
	</g>
	<g>
		<rect id="XMLID_18_" x="-271.8" y="537" class="st2" width="21.8" height="19.2"/>
		<path d="M-250,559.3h-21.8c-1.7,0-3-1.4-3-3v-19.2c0-1.7,1.4-3,3-3h21.8c1.7,0,3,1.4,3,3v19.2C-247,558-248.4,559.3-250,559.3z
			 M-268.8,553.3h15.7v-13.2h-15.7V553.3z"/>
	</g>
	<g>
		<rect id="XMLID_17_" x="-230.3" y="537" class="st2" width="21.8" height="19.2"/>
		<path d="M-208.5,559.3h-21.8c-1.7,0-3-1.4-3-3v-19.2c0-1.7,1.4-3,3-3h21.8c1.7,0,3,1.4,3,3v19.2
			C-205.5,558-206.8,559.3-208.5,559.3z M-227.3,553.3h15.7v-13.2h-15.7V553.3z"/>
	</g>
	<g>
		<path id="XMLID_16_" class="st3" d="M-309.8,593.2c0,0,19.7,0.5,28.4-10.1c8.6-10.6,68.9,3,68.9,3s1,16.7-12.2,16.7
			s-25.3,0-25.3,0s-1,17.7,12.2,15.7s62.8-16.2,62.8-16.2c4.7-1.1,9.5,1.1,11.6,5.1c2.5,4.5,1,10.5-3.5,13.7
			c-38.1,15.5-68,23.6-80,23.8c-29.9,0.5-17.2-10.6-62.8-12.2v-39.5H-309.8z"/>
		<path d="M-248.9,647.9c-13,0-18.1-2.4-23.5-4.9c-6.4-3-13.6-6.4-37.5-7.2c-1.6-0.1-2.9-1.4-2.9-3v-39.5c0-0.8,0.3-1.6,0.9-2.2
			c0.6-0.6,1.3-0.9,2.2-0.9c0.2,0,18.4,0.3,25.9-9c9.3-11.5,61.5-0.4,71.9,2c1.3,0.3,2.3,1.4,2.4,2.8c0,0.4,0.5,10-4.9,15.7
			c-2.6,2.8-6.1,4.2-10.3,4.2h-22.2c0.3,2.8,1.1,6.5,3.2,8.4c1.3,1.2,3.1,1.6,5.4,1.2c12.8-2,61.9-16,62.4-16.1
			c6.2-1.4,12.3,1.3,15.1,6.5c3.2,5.9,1.2,13.7-4.5,17.6c-0.2,0.1-0.4,0.2-0.6,0.3c-35.4,14.4-67.2,23.8-81.1,24
			C-247.6,647.9-248.3,647.9-248.9,647.9z M-306.7,629.8c22.9,1,30.7,4.7,37,7.7c5.4,2.6,9.6,4.6,22.7,4.3
			c10.8-0.2,39.3-7.5,78.6-23.4c3-2.3,4.1-6.4,2.3-9.5c-1.5-2.8-5-4.3-8.3-3.5c-1.9,0.5-49.8,14.2-63,16.2
			c-5.2,0.8-8.6-1.1-10.4-2.7c-5.7-5.2-5.3-15-5.2-16.1c0.1-1.6,1.4-2.9,3-2.9h25.3c2.5,0,4.4-0.7,5.9-2.3c2.2-2.4,3-6.3,3.2-9
			c-24.2-5.3-58.5-9.7-63.4-3.6c-7.4,9.1-21.4,10.9-27.7,11.2L-306.7,629.8L-306.7,629.8z"/>
	</g>
	<path d="M-232.8,595.8c-1.7,0-3-1.4-3-3v-10c0-1.7,1.4-3,3-3s3,1.4,3,3v10C-229.8,594.4-231.1,595.8-232.8,595.8z"/>
	<path d="M-175.1,627.4c-1,0-2-0.5-2.5-1.4l-6.1-9.3c-0.9-1.4-0.5-3.3,0.9-4.2s3.3-0.5,4.2,0.9l6.1,9.3c0.9,1.4,0.5,3.3-0.9,4.2
		C-174,627.2-174.5,627.4-175.1,627.4z"/>
	<path d="M-193.3,573h-93.4c-1.7,0-3-1.4-3-3s1.4-3,3-3h93.4c1.7,0,3,1.4,3,3S-191.7,573-193.3,573z"/>
	<g>
		<rect id="XMLID_15_" x="-339.1" y="582.7" class="st4" width="29.4" height="65.2"/>
		<path d="M-309.8,651h-29.4c-1.7,0-3-1.4-3-3v-65.2c0-1.7,1.4-3,3-3h29.4c1.7,0,3,1.4,3,3V648C-306.7,649.6-308.1,651-309.8,651z
			 M-336.1,644.9h23.3v-59.2h-23.3V644.9z"/>
	</g>
	<path d="M-324.5,647.9c-1.7,0-3-1.4-3-3v-36c0-1.7,1.4-3,3-3c1.7,0,3,1.4,3,3v36C-321.4,646.6-322.8,647.9-324.5,647.9z"/>
	<circle id="XMLID_586_" cx="-324.7" cy="596" r="3.3"/>
</g>
</svg>
