<?xml version="1.0" encoding="utf-8"?>
<!-- Generator: Adobe Illustrator 19.0.0, SVG Export Plug-In . SVG Version: 6.00 Build 0)  -->
<svg version="1.1" id="Layer_1" xmlns="http://www.w3.org/2000/svg" xmlns:xlink="http://www.w3.org/1999/xlink" x="0px" y="0px"
	 viewBox="-43.9 304.4 572.2 442.1" style="enable-background:new -43.9 304.4 572.2 442.1;" xml:space="preserve">
<style type="text/css">
	.st0{fill:#FFFFFF;}
	.st1{fill:#FFDABD;}
	.st2{fill:#95B9C2;}
	.st3{fill:none;stroke:#6C7E8D;stroke-width:0.75;stroke-linejoin:round;}
	.st4{fill:none;}
	.st5{font-family:'Lora-Bold';}
	.st6{font-size:24px;}
	.st7{fill:#6C7E8D;}
	.st8{font-family:'Manrope-Bold';}
	.st9{font-size:18px;}
	.st10{font-size:19px;}
	.st11{font-size:20px;}
	.st12{font-size:21px;}
	.st13{font-size:22px;}
	.st14{font-size:26px;}
	.st15{font-size:30px;}
	.st16{font-family:'Manrope-Medium';}
	.st17{font-size:10px;}
	.st18{fill:none;stroke:#FFDABD;stroke-width:1.5;stroke-miterlimit:10;}
	.st19{fill:#3D3D3D;}
</style>
<g>
	<path class="st0" d="M-37.4,746.1c-3.3,0-6-2.7-6-6V311c0-3.3,2.7-6,6-6h559.1c3.3,0,6,2.7,6,6V740c0,3.3-2.7,6-6,6H-37.4z"/>
	<path class="st1" d="M521.8,305.4c3.1,0,5.5,2.5,5.5,5.5V740c0,3.1-2.5,5.5-5.5,5.5H-37.4c-3.1,0-5.5-2.5-5.5-5.5V311
		c0-3.1,2.5-5.5,5.5-5.5H521.8 M521.8,304.4H-37.4c-3.6,0-6.5,2.9-6.5,6.5V740c0,3.6,2.9,6.5,6.5,6.5h559.1c3.6,0,6.5-2.9,6.5-6.5
		V311C528.3,307.4,525.4,304.4,521.8,304.4L521.8,304.4z"/>
</g>
<path class="st2" d="M445,397.8h19.7v268.8H445V397.8z M382.5,427.8h19.7v238.8h-19.7V427.8z M319.6,475.8h19.7v190.9h-19.7V475.8z
	 M256.6,513.7h19.7v152.9h-19.7V513.7z M194.1,550.2h19.7v116.4h-19.7V550.2z M131.2,587.7h19.7v78.9h-19.7V587.7z M68.2,620.2h19.7
	v46.5H68.2V620.2z M5.7,635.6h19.7v31H5.7V635.6z"/>
<path class="st3" d="M-16.4,666.6h502.9"/>
<path class="st4" d="M111,543.5h59.7V497h59.7"/>
<path class="st4" d="M339.2,346.2c0.1-0.4-0.2-0.8-0.6-0.9L332,344c-0.4-0.1-0.8,0.2-0.9,0.6c-0.1,0.4,0.2,0.8,0.6,0.9l5.9,1.2
	l-1.2,5.9c-0.1,0.4,0.2,0.8,0.6,0.9c0.4,0.1,0.8-0.2,0.9-0.6L339.2,346.2z M201.9,436.8l137-90.1l-0.8-1.3l-137,90.1L201.9,436.8z"
	/>
<text transform="matrix(1 0 0 1 -16.3581 368.8057)" class="st4 st5 st6">53% CAGR 2023-2030</text>
<g>
	<text transform="matrix(1 0 0 1 -6.0834 693.0331)" class="st7 st8 st9">2023</text>
	<text transform="matrix(1 0 0 1 55.8874 693.0331)" class="st7 st8 st9">2024</text>
	<text transform="matrix(1 0 0 1 118.114 693.0331)" class="st7 st8 st9">2025</text>
	<text transform="matrix(1 0 0 1 181.3651 693.0331)" class="st7 st8 st9">2026</text>
	<text transform="matrix(1 0 0 1 243.8953 693.0331)" class="st7 st8 st9">2027</text>
	<text transform="matrix(1 0 0 1 306.6407 693.0331)" class="st7 st8 st9">2028</text>
	<text transform="matrix(1 0 0 1 369.3862 693.0331)" class="st7 st8 st9">2029</text>
	<text transform="matrix(1 0 0 1 432.6465 693.0331)" class="st7 st8 st9">2030</text>
</g>
<text transform="matrix(1 0 0 1 -11.2628 609.234)" class="st5 st9">$5.1bn</text>
<text transform="matrix(1 0 0 1 48.8789 587.9792)" class="st5 st10">$7.6bn</text>
<text transform="matrix(1 0 0 1 104.6844 555.5052)" class="st5 st11">$13.0bn</text>
<text transform="matrix(1 0 0 1 167.8192 518.0342)" class="st5 st12">$19.1bn</text>
<text transform="matrix(1 0 0 1 225.3475 481.5623)" class="st5 st13">$25.0bn</text>
<text transform="matrix(1 0 0 1 286.7258 441.8996)" class="st5 st6">$31.3bn</text>
<text transform="matrix(1 0 0 1 345.8745 394.6282)" class="st5 st14">$39.1bn</text>
<text transform="matrix(1 0 0 1 398.4518 349.6397)" class="st5 st15">$44.0bn</text>
<text transform="matrix(1 0 0 1 37.3317 472.3161)" class="st4 st16 st17">1 ) Inflection in commercial coverage</text>
<text transform="matrix(1 0 0 1 37.3317 488.5201)" class="st4 st16 st17">2) Significant mfg capacity expansion</text>
<text transform="matrix(1 0 0 1 180.2684 374.1396)" class="st4 st16 st17">1 ) Inc. commercial penetration</text>
<text transform="matrix(1 0 0 1 180.2684 390.3435)" class="st4 st16 st17">2) Start of Medicare coverage</text>
<g>
	
		<rect x="-15.9" y="442.1" transform="matrix(0.8447 -0.5352 0.5352 0.8447 -208.4696 167.2773)" class="st1" width="399.9" height="1.5"/>
	<polyline class="st18" points="345.2,333.3 353.9,335.2 352,343.8 	"/>
</g>
<g>
	<path class="st19" d="M382.6,724.7c0.1-0.2,0.2-0.5,0.4-0.6c0.3-0.2,0.7-0.4,1.1-0.3c0.2,0,0.5,0.4,0.6,0.7
		c0.1,0.1,0.1,0.4,0.1,0.6c0,0.8,0.1,1.5,1.1,1.7c1.1,0.2,2.2-0.2,2.6-1.1c0.2-0.4,0.4-0.9,0.4-1.3c0-3.8,0-7.6,0-11.5
		c-0.6,0-1.3,0-2,0c0.1-0.2,0.2-0.4,0.2-0.4c1.9,0,3.9,0,5.8,0c0,0.1,0,0.2,0,0.4c-0.6,0-1.2,0.1-1.9,0.1c0,0.3,0,0.6,0,0.8
		c0,2.9,0,5.9,0,8.8c0,3.5-1.4,4.9-4.9,4.9c-0.2,0-0.4,0-0.6,0c-1.3-0.1-2.4-0.5-2.8-1.9C382.6,725.2,382.6,724.9,382.6,724.7z"/>
	<path class="st19" d="M411.8,726.9c0.2-0.1,0.4-0.1,0.7-0.2c0.6-0.2,1-0.6,1-1.2c0-4.2,0-8.4,0-12.6c-0.6,0-1.2-0.1-1.8-0.1
		c0-0.1,0-0.2,0-0.2c0.2-0.1,0.3-0.2,0.5-0.2c1.1,0,2.2,0,3.2,0c0.2,0,0.6,0.3,0.7,0.6c1.4,3.2,2.8,6.5,4.2,9.8
		c0.1,0.3,0.3,0.6,0.5,1c0.2-0.4,0.3-0.7,0.4-0.9c1.3-3.2,2.6-6.4,3.9-9.6c0.3-0.7,0.6-1,1.4-0.9c0.7,0.1,1.5,0,2.2,0
		c0.2,0,0.4,0.1,0.6,0.1c0,0.1,0,0.2,0,0.3c-0.5,0-0.9,0.1-1.5,0.1c0,0.3,0,0.6,0,0.8c0,3.5,0,7.1,0,10.6c0,1.7,0.1,1.7,1.7,2.4
		c0.1,0,0.1,0.2,0.2,0.3c-2,0-3.8,0-5.7,0c0-0.1,0-0.1-0.1-0.2c0.2-0.1,0.4-0.2,0.6-0.2c0.7-0.1,1.2-0.5,1.2-1.2
		c0-3.6,0-7.2-0.2-10.8c-1.7,4.2-3.4,8.4-5.1,12.6c-0.1,0-0.2,0-0.3,0c-1.8-4.3-3.7-8.5-5.5-12.8c-0.1,0-0.1,0-0.2,0
		c0,0.2-0.1,0.4-0.1,0.5c0,3.1,0,6.3,0,9.4c0,0.4,0,0.7,0.1,1.1c0.1,0.6,0.4,1.1,1.1,1.2c0.2,0,0.4,0.1,0.5,0.4c-1.3,0-2.7,0-4,0
		C411.8,727,411.8,726.9,411.8,726.9z"/>
	<path class="st19" d="M454.8,724c-0.1-0.1-0.1-0.1-0.2-0.2c-2.2-0.5-2.7-2.3-2.5-4.1c0.2-2,1.6-3.2,3.6-3.4
		c1.3-0.1,2.6,0.1,3.7,0.9c0.7,0.5,1.1,0.3,1.5-0.5c0.2-0.4,0.6-0.6,0.9-0.9c0.1,0,0.5,0.2,0.5,0.4c0.2,0.5,0.3,1.2-0.3,1.5
		c-0.5,0.3-1.2,0.4-1.8,0.6c0.1,0.4,0.2,0.9,0.2,1.5c0.1,1.9-0.7,3.1-2.5,3.7c-1,0.4-2.2,0.5-3.2,0.8c-0.4,0.1-0.8,0.1-1.1,0.4
		c-0.3,0.2-0.5,0.6-0.5,0.9c0,0.2,0.4,0.6,0.7,0.6c1,0.1,2.1,0.2,3.2,0.2c0.4,0,0.9,0,1.3,0.1c1.8,0.2,2.8,1,3,2.4
		c0.2,1.6-0.7,3.3-2.2,3.9c-2.1,0.8-4.2,0.8-6.3,0c-1.3-0.4-1.8-1.6-1.4-2.6c0.1-0.3,0.6-0.5,0.9-0.7c0.2,0.3,0.6,0.6,0.6,1
		c0.1,1.4,0.4,1.9,1.7,2.1c1.2,0.1,2.5,0,3.7-0.1c0.6-0.1,1.1-0.5,1.5-1c0.8-0.9,0.5-2.1-0.7-2.5c-0.7-0.2-1.5-0.2-2.2-0.3
		c-1-0.1-2.1-0.1-3.2-0.2c-0.4,0-0.8-0.2-1.2-0.4c-0.7-0.3-1.1-0.8-1.1-1.6c0-0.7,0.3-1.3,1-1.6C453.4,724.5,454.1,724.3,454.8,724z
		 M458.7,720.3c-0.1-0.6-0.1-1.3-0.2-1.9c-0.3-1.1-0.9-1.7-2-1.7c-1,0-1.7,0.5-2,1.6c-0.4,1.3-0.4,2.6-0.1,3.8
		c0.2,1,0.8,1.4,1.8,1.4c1.2,0,1.9-0.3,2.1-1.3C458.5,721.6,458.6,721,458.7,720.3z"/>
	<path class="st19" d="M403.2,727c-2.1,0-4.2,0-6.3,0c0-0.1,0-0.1-0.1-0.2c0.2-0.1,0.4-0.2,0.6-0.2c1-0.2,1.5-0.5,1.5-1.6
		c0-4,0-8.1,0-12.2c-0.6,0-1.2-0.1-1.7-0.1c0-0.1,0-0.1,0-0.2c0.1-0.1,0.3-0.2,0.4-0.2c2.5,0,5,0,7.5,0.2c2.1,0.1,3.3,1.3,3.5,3.1
		c0.3,2.7-0.6,4.3-2.8,4.9c-0.9,0.3-1.9,0.3-2.8,0.4c-0.6,0.1-1.2,0-1.8,0c0,1.6,0,3.1,0,4.6c0,0.8,0.7,1,1.4,1.2
		c0.2,0,0.5,0.1,0.7,0.1C403.3,726.8,403.2,726.9,403.2,727z M401.2,720.2c1.9,0.5,4.1-0.1,4.9-1.4c0.8-1.1,0.8-3.4,0-4.6
		c-1.2-1.7-3.1-1.4-4.9-1.4C401.2,715.4,401.2,717.8,401.2,720.2z"/>
	<path class="st19" d="M486.5,727.3c-1.7,0-3.1,0-4.6,0c-0.2,0-0.3-0.2-0.5-0.3c0.1-0.1,0.3-0.3,0.4-0.4c0.3-0.3,0.8-0.7,0.8-1.1
		c0-2,0-4.1-0.1-6.1c0-0.8-0.2-1.5-1.1-1.7c-1-0.2-1.9,0-2.5,0.8c-0.3,0.3-0.5,0.8-0.5,1.2c-0.1,1.8-0.1,3.6-0.1,5.4
		c0,0.7,0.2,1.2,1,1.4c0.1,0,0.2,0.2,0.3,0.4c-0.1,0.1-0.3,0.3-0.4,0.3c-1.5,0-2.9,0-4.4,0c-0.1,0-0.2-0.2-0.4-0.2
		c0.1-0.1,0.2-0.3,0.3-0.4c1.1-0.1,1.3-0.9,1.3-1.7c0-2.5,0-5,0-7.6c-0.6,0-1.1-0.1-1.6-0.1c0-0.1,0-0.2,0-0.2
		c0.2-0.1,0.4-0.2,0.6-0.2c0.6,0,1.3,0,1.9,0c0.7-0.1,1,0.2,1,0.9c0,0.3,0.1,0.6,0.3,1.1c0.3-0.3,0.5-0.5,0.6-0.8
		c1-1.3,2.5-1.6,4-1.3c1.1,0.2,1.8,1,1.8,2.1c0.1,1.7,0.1,3.5,0.1,5.2c0,1.1,0,2.1,1.3,2.6C486.3,726.6,486.3,726.9,486.5,727.3z"/>
	<path class="st19" d="M473.8,724.9c0.1,1.2-0.3,2-1.2,2.3c-1.3,0.4-2.2,0-3-1.2c-0.9,0.5-1.8,1-2.7,1.3c-1.5,0.5-2.9-0.3-3.4-1.6
		c-0.6-1.3-0.1-2.9,1.3-3.6c1.2-0.6,2.6-0.9,4-1.2c0.6-0.1,0.9-0.3,0.8-0.9c0-0.4,0-0.9-0.1-1.3c-0.2-1.3-0.6-1.8-1.7-1.8
		c-1.3-0.1-1.8,0.3-2.1,1.6c-0.1,0.3-0.1,0.6-0.3,0.7c-0.3,0.2-0.7,0.5-1,0.4c-0.3-0.1-0.6-0.5-0.6-0.9c-0.1-0.9,0.6-1.5,1.3-1.9
		c1.8-0.8,3.7-0.8,5.5-0.2c0.9,0.3,1.3,1.1,1.3,2.1c0,1.8,0,3.7,0,5.5c0,0.2-0.1,0.5,0,0.7c0.2,0.3,0.4,0.8,0.7,0.9
		c0.5,0.2,0.8-0.2,1-0.7C473.7,725.2,473.7,725.1,473.8,724.9z M469.7,721.5c-1.7,0.2-3,0.6-3.9,1.9c-0.5,0.7-0.4,1.7,0,2.3
		c0.5,0.6,1.2,0.9,1.8,0.6c0.8-0.3,1.8-0.8,2-1.5C470,723.8,469.7,722.7,469.7,721.5z"/>
	<path class="st19" d="M430.6,722.2c0.1-0.9,0.2-1.8,0.5-2.6c0.7-2.3,2.5-3.4,5.1-3.2c2.2,0.1,4,1.6,4.3,3.9
		c0.2,1.2,0.1,2.6-0.2,3.8c-0.5,2.2-2.7,3.7-5,3.5c-2.5-0.2-4.3-1.8-4.5-4.3c0-0.3-0.1-0.6-0.1-1
		C430.6,722.2,430.6,722.2,430.6,722.2z M438.4,721.9c-0.1-1.1-0.1-1.9-0.2-2.7c-0.1-1-0.5-1.8-1.6-2.2c-1.9-0.6-3.4,0.3-3.6,2.2
		c-0.2,1.8-0.1,3.6,0,5.4c0.1,1.5,0.9,2.1,2.3,2.2c1.4,0.1,2.3-0.5,2.6-1.9C438.3,723.9,438.3,722.8,438.4,721.9z"/>
	<path class="st19" d="M441.6,727c0.2-0.1,0.4-0.3,0.6-0.3c1-0.2,1.3-0.5,1.4-1.4c0-2.6,0-5.3,0-8.1c-0.7,0-1.3,0-1.9,0
		c0-0.1,0-0.2-0.1-0.2c0.2-0.1,0.3-0.3,0.5-0.3c0.9,0,1.8,0,2.7,0c0.2,0,0.5,0.3,0.5,0.5c0.1,0.5,0.2,0.9,0.3,1.7
		c0.3-0.4,0.4-0.7,0.5-0.9c0.7-1.2,2-1.8,3.4-1.4c0.7,0.2,1.3,0.7,1.3,1.5c0,0.3-0.2,0.7-0.4,0.8c-0.3,0.1-0.8,0.1-1-0.1
		c-0.6-0.5-1-1.2-1.9-0.8c-1,0.4-1.6,1.3-1.6,2.3c-0.1,1.7-0.1,3.4,0,5c0,0.9,0.4,1.2,1.3,1.3c0.2,0,0.4,0.2,0.5,0.3
		c-0.2,0.1-0.4,0.3-0.5,0.3c-1.8,0-3.6,0-5.4,0C441.7,727.2,441.6,727.1,441.6,727z"/>
	<path class="st19" d="M394,725.2c0.6,0,1.1,0.6,1,1.2c0,0.6-0.6,1.1-1.2,1c-0.6,0-1.1-0.5-1-1.2C392.9,725.6,393.4,725.1,394,725.2
		z"/>
	<path class="st19" d="M407.6,725.2c0.6,0,1.1,0.5,1.1,1.2c0,0.7-0.5,1.1-1.1,1.1c-0.6,0-1.1-0.5-1.1-1.2
		C406.4,725.6,406.9,725.2,407.6,725.2z"/>
</g>
</svg>
