<?xml version="1.0" encoding="utf-8"?>
<!-- Generator: Adobe Illustrator 19.0.0, SVG Export Plug-In . SVG Version: 6.00 Build 0)  -->
<svg version="1.1" id="a" xmlns="http://www.w3.org/2000/svg" xmlns:xlink="http://www.w3.org/1999/xlink" x="0px" y="0px"
	 viewBox="-470 522.3 137.4 37.7" style="enable-background:new -470 522.3 137.4 37.7;" xml:space="preserve">
<style type="text/css">
	.st0{fill:#FFFFFF;}
</style>
<g>
	<path class="st0" d="M-339.2,548.2h6.5v1.6h-4.6v2.7h3.9v1.6h-3.9v3.2h4.7v1.6h-6.6V548.2L-339.2,548.2z"/>
	<path class="st0" d="M-354.4,548.2h2l3.3,6l1.1,2.3h0.1c-0.1-1.1-0.2-2.5-0.2-3.7v-4.7h1.8v10.7h-2l-3.3-6l-1.1-2.3h-0.1
		c0.1,1.1,0.2,2.4,0.2,3.6v4.7h-1.8L-354.4,548.2L-354.4,548.2z"/>
	<path class="st0" d="M-363.4,548.2h1.9v10.7h-1.9V548.2z"/>
	<path class="st0" d="M-372.8,548c1.3,0,2.4,0.6,3.1,1.4l-1.1,1.2c-0.5-0.5-1.1-0.9-2-0.9c-1.8,0-3,1.5-3,3.9c0,2.4,1.1,3.9,3,3.9
		c1,0,1.6-0.4,2.2-1.1l1.1,1.2c-0.9,1-2,1.6-3.3,1.6c-2.7,0-4.9-2-4.9-5.5C-377.7,550.1-375.5,548-372.8,548z"/>
	<path class="st0" d="M-386.2,548.2h1.9v10.7h-1.9V548.2z"/>
	<path class="st0" d="M-400.8,548.2h2.9c3.3,0,5.2,1.8,5.2,5.3c0,3.6-1.9,5.4-5.1,5.4h-3L-400.8,548.2L-400.8,548.2z M-398,557.4
		c2.2,0,3.4-1.2,3.4-3.9c0-2.6-1.2-3.8-3.4-3.8h-0.8v7.6H-398z"/>
	<path class="st0" d="M-414,548.2h6.5v1.6h-4.6v2.7h3.9v1.6h-3.9v3.2h4.7v1.6h-6.6V548.2L-414,548.2z"/>
	<path class="st0" d="M-430.5,548.2h2.1l1.9,5.3l0.7,2h0.1l0.7-2l1.9-5.3h2.1v10.7h-1.8V554c0-1,0.1-2.4,0.2-3.4h-0.1l-0.9,2.4
		l-1.9,4.9h-0.9l-1.9-4.9l-0.9-2.4h-0.1c0.1,1,0.2,2.4,0.2,3.4v4.9h-1.8L-430.5,548.2L-430.5,548.2z"/>
</g>
<g>
	<path class="st0" d="M-404.8,542.7c-3.5,0-3.8-2.7-3.8-3.5c0-1,0.3-2.6,2.5-3.5c2.3-0.8,2.8-0.9,4.4-1.4v-0.4c0-0.8,0-1-0.2-1.4
		c-0.3-0.9-1.2-1.5-2.4-1.5c-1.7,0-2.5,1.3-2.5,1.3l-0.1,0.3l-0.6-0.4l0.1-0.2c0.3-1,1.6-2.7,4.3-2.7c1.8,0,3,0.5,3.7,1.6
		c0.5,0.9,0.6,2.1,0.6,3.3c0,1.1,0,2.3-0.1,3.3c0,0.7,0,1.3,0,1.6c0,0.9,0.1,1.6,0.9,1.6c0.2,0,0.3,0,0.4-0.1l0.2-0.2l0.4,0.5
		l-0.1,0.2c-0.7,0.8-1.4,1.4-2.5,1.4c-1,0-1.7-0.5-2-1.3C-402.1,542-403.1,542.7-404.8,542.7z M-401.7,535.9
		c-1.7,0.5-2.3,0.8-2.8,1.1c-0.7,0.4-1.1,1.1-1.1,2c0,0.7,0.2,1.9,1.9,1.9c0.6,0,1.3-0.1,2-0.6
		C-401.7,540.3-401.7,535.9-401.7,535.9z"/>
	<path class="st0" d="M-426.1,542.7c-1.7,0-2.9-0.2-4.3-0.6l-0.2-0.1v-0.9c0-1.2,0-1.7-0.1-2.1l0-0.6l0.8,0l0,0.3
		c0,0.6,0.2,1.2,0.6,1.6c0.5,0.6,1.8,1,3,1c2.5,0,3.6-0.9,3.6-2.9c0-1.7-1.1-2.4-2.5-3.4l-0.2-0.2l-1.5-1c-2.1-1.4-3.2-2.6-3.2-4.8
		c0-1.1,0.4-4.7,5.8-4.7c2.2,0,3.9,0.3,4,0.3l0.2,0l0,0.2c0,0,0,0.7,0,1.5c0,0.6,0,1.1,0,1.7l0,0.4h-0.7l0-0.3
		c0-0.7-0.2-1.2-0.6-1.6c-0.5-0.5-1.7-0.8-2.9-0.8c-2.9,0-3.2,1.5-3.2,2.6c0,1.5,0.8,2,2.5,3.2l2,1.3c1.7,1.1,3.2,2.2,3.2,4.9
		C-419.9,542.2-424.2,542.7-426.1,542.7L-426.1,542.7z"/>
	<path class="st0" d="M-413.3,542.7c-2,0-3.1-0.7-3.6-2.3c-0.2-0.6-0.2-1.9-0.2-2.6c0-2.1,0-3.7,0-5.6l0-0.9h-1.7v-0.5l0.2-0.1
		c0.8-0.3,1.1-0.6,1.4-0.8c1.2-1,2.1-2.6,2.1-2.6l0.3-0.5h0.6v2.9h4.4v1.6h-4.4v6.8c0,2,0.4,3.2,2.3,3.2c0.9,0,1.6-0.3,1.6-0.4
		l0.3-0.1l0.2,0.5l-0.1,0.1C-410,541.4-411,542.7-413.3,542.7L-413.3,542.7z"/>
	<path class="st0" d="M-395.8,542.6V542l0.2,0c0.2,0,0.8-0.1,1.1-0.5c0.4-0.4,0.4-1.5,0.4-3.7V534c0-1.6,0-2.3-0.3-2.6
		c-0.3-0.4-0.8-0.4-1.2-0.4c0,0-0.1,0-0.1,0l-0.2,0v-0.7l0.3,0c0.1,0,0.1,0,0.2,0c0.4,0,1.3-0.1,2.3-0.2c0.8-0.1,1.2-0.4,1.4-0.5
		l0.1-0.1l0.3,0.2v1c0.7-0.5,2-1.2,3.7-1.2c2.3,0,3.8,1.1,4.3,3.1c0.1,0.5,0.2,1.7,0.2,2.3v3.8c0,2.1,0.1,2.7,0.5,3.1
		c0.2,0.2,0.6,0.3,1,0.4l0.3,0v0.6l-0.6,0c-0.9,0-1.7-0.1-2.6-0.1c-1,0-1.8,0-2.9,0.1l-0.3,0V542l0.2,0c0.5-0.1,0.8-0.2,1.1-0.4
		c0.4-0.4,0.4-1.4,0.5-2.3c0-0.1,0-0.3,0-0.4c0-0.5,0-1.5,0-2.2c0-1,0-2-0.1-2.9c-0.2-1.7-1.1-2.4-2.7-2.4c-1.1,0-1.9,0.3-2.4,0.5
		v6.8c0,2.1,0.1,2.7,0.5,3.1c0.2,0.2,0.6,0.3,1,0.4l0.3,0v0.6l-0.7,0c-0.9,0-1.7-0.1-2.5-0.1c-0.9,0-1.8,0-3,0.1L-395.8,542.6
		L-395.8,542.6z"/>
	<path class="st0" d="M-379.7,542.6V542l0.3,0c0.2,0,0.8-0.1,1.1-0.5c0.4-0.4,0.4-1.5,0.4-3.7v-6.4h-1.7v-0.7l0.2-0.1
		c0.7-0.3,1.2-0.5,1.5-0.8c0-1.1,0-2.6,0.2-3.4c0.5-2.7,2.2-4,5.2-4c1.3,0,2.5,0.4,3.1,1l0.1,0.1l0,0.3l-1.3,1.8l-0.3,0l-0.1-0.2
		c-0.5-1.1-1.2-1.5-2.2-1.5c-0.4,0-1,0.1-1.3,0.5c-0.6,0.6-0.7,1.4-0.7,3v2.5h2.9v1.6h-2.9v7.1c0,1.7,0.1,2.5,0.3,2.9
		c0.4,0.5,1.5,0.6,1.8,0.6h0.3v0.7l-0.3,0c-1.4-0.1-2.5-0.1-3.2-0.1c-1,0-2,0-3.2,0.1L-379.7,542.6L-379.7,542.6z"/>
	<path class="st0" d="M-364.9,542.8c-3.9,0-6.3-2.5-6.3-6.6c0-3.2,1.7-6.9,6.6-6.9c3.9,0,6.3,2.5,6.3,6.6
		C-358.3,539.1-360,542.8-364.9,542.8z M-364.7,530.8c-0.8,0-1.4,0.2-1.8,0.6c-1,0.9-1.6,2.4-1.6,4.7c0,0.9,0.2,5.2,3.3,5.2
		c0.8,0,1.4-0.2,1.8-0.6c1-0.9,1.6-2.4,1.6-4.7C-361.4,535.2-361.5,530.8-364.7,530.8L-364.7,530.8z"/>
	<path class="st0" d="M-357.1,542.6v-0.7l0.3,0c0.2,0,0.8-0.1,1.1-0.5c0.4-0.4,0.4-1.5,0.4-3.7V534c0-1.6,0-2.3-0.2-2.6
		c-0.3-0.4-0.8-0.4-1.2-0.4c0,0-0.1,0-0.1,0l-0.3,0v-0.8l0.3,0c0,0,0.1,0,0.2,0c0.4,0,1.3,0,2.3-0.2c0.6-0.1,1.2-0.3,1.4-0.4
		l0.1-0.1l0.2,0.1v1.1c0.6-0.6,1.6-1.2,3-1.2c0.9,0,1.6,0.2,2.2,0.7l0.1,0.1v0.4l-1.1,2h-0.5l-0.1-0.1c-0.3-0.5-0.9-1-2.1-1
		c-0.5,0-1,0.1-1.4,0.4v6.5c0,1.7,0.1,2.5,0.3,2.8c0.4,0.5,1.5,0.6,1.8,0.6h0.3v0.7l-0.3,0c-1.4-0.1-2.5-0.1-3.2-0.1
		c-1,0-2,0-3.2,0.1L-357.1,542.6L-357.1,542.6z"/>
	<path class="st0" d="M-336.8,542.8l-0.3-0.1v-1.1c-0.6,0.5-1.9,1.2-3.6,1.2c-3.5,0-5.8-2.5-5.8-6.3c0-1.3,0.2-2.5,0.7-3.5
		c1.1-2.3,3.3-3.7,6.1-3.7c1,0,2,0.1,2.5,0.2v-2.7c0-1.6,0-2.5-0.3-2.8c-0.3-0.4-0.8-0.4-1.1-0.4c0,0-0.1,0-0.1,0l-0.2,0l0.1-0.6
		h0.3c0.1,0,1.6-0.1,2.8-0.4c0.5-0.1,1-0.2,1.3-0.3l0.1,0l0.2,0.1l0,0.1c-0.1,1.1-0.1,3.3-0.1,5v10.5c0,1.6,0,2.5,0.2,2.9
		c0.3,0.4,0.8,0.4,1.1,0.5c0,0,0.1,0,0.1,0l0.2,0v0.7h-0.3c-0.3,0-1.4,0.1-2.5,0.3c-0.6,0.1-1.1,0.2-1.3,0.3L-336.8,542.8
		L-336.8,542.8z M-339.8,530.9c-2.5,0-3.7,1.7-3.7,5.3c0,1.4,0.4,4.8,4.1,4.8h0.1c0.5,0,1.3-0.1,2-0.5v-8.6
		C-337.4,531.6-338.2,530.9-339.8,530.9L-339.8,530.9z"/>
</g>
<g>
	<path class="st0" d="M-468.5,524c-0.7,1.6-2.3,8-1.1,15.3h14.7V524H-468.5z M-457,535.1c-0.6,0.3-1,0.2-1.3-0.1
		c-0.2,0.3-0.5,0.6-0.7,0.8c0.4,0.1,0.7,0.2,1,0.6c-0.7,0.3-1.2,0.2-1.5-0.1c-0.2,0.2-0.5,0.4-0.7,0.6c0.4,0.2,0.7,0.4,0.9,0.8
		c-0.8,0.2-1.3,0-1.5-0.5c-0.2,0.1-0.4,0.2-0.7,0.2c0.2,0.2,0.4,0.3,0.5,0.6c-0.5,0-0.8-0.1-0.9-0.5c-0.1,0-0.2,0.1-0.3,0.1v1
		l-0.7-0.3v-0.8c-0.1,0-0.2-0.1-0.3-0.1c-0.1,0.3-0.3,0.4-0.8,0.4c0.1-0.3,0.2-0.4,0.4-0.6c-0.2-0.1-0.5-0.2-0.7-0.3
		c-0.2,0.5-0.7,0.7-1.5,0.5c0.2-0.3,0.5-0.6,1-0.8c-0.2-0.1-0.4-0.3-0.6-0.5c-0.3,0.3-0.8,0.5-1.5,0.2c0.3-0.3,0.6-0.5,1-0.6
		c-0.2-0.2-0.4-0.5-0.6-0.7c-0.3,0.3-0.8,0.4-1.4,0.1c0.3-0.3,0.6-0.6,1-0.6c-0.1-0.2-0.2-0.4-0.4-0.6c-0.1,0-0.3,0-0.4-0.2
		c-0.2-0.2-0.3-0.6,0-0.7c0.2-0.1,0.5,0.1,0.6,0.3c0.1,0.2,0.1,0.3,0,0.5c0.1,0.2,0.3,0.4,0.4,0.6c-0.1-0.6,0.1-1.1,0.2-1.4
		c0.5,0.7,0.4,1.3,0.1,1.8c0.2,0.3,0.4,0.5,0.6,0.7c-0.1-0.4,0-1,0.1-1.4c0.5,0.7,0.5,1.3,0.3,1.8c0.2,0.2,0.4,0.3,0.6,0.5
		c-0.1-0.4-0.2-1-0.1-1.4c0.5,0.6,0.7,1.2,0.6,1.7c0.2,0.1,0.5,0.2,0.7,0.3c-0.1-0.2-0.2-0.6-0.2-0.9c0.4,0.3,0.5,0.6,0.5,0.9
		c0.1,0,0.2,0.1,0.3,0.1l0-0.9c-0.4-0.1-1-0.3-1.2-1.1c0.4,0.1,0.9,0.2,1.2,0.5V535c-0.8-0.1-1.6-0.6-2-1.8c0.7,0.1,1.4,0.5,2,0.9
		l0-0.4c-0.7-0.1-1.4-0.7-1.7-1.7c0.6,0.1,1.1,0.4,1.7,0.8v-0.5c-0.7-0.1-1.4-0.6-1.7-1.7c0.6,0.1,1.1,0.4,1.7,0.8v-0.6
		c-0.7,0-1.3-0.4-1.7-1.5c0.6,0.1,1.1,0.4,1.7,0.8v-0.7c-0.5-0.1-1.1-0.4-1.3-1.5c0.5,0.1,0.9,0.3,1.3,0.7l0-0.7
		c-0.4-0.1-0.8-0.2-1-1.1c0.3,0.1,0.6,0.1,1,0.4l0-0.4c-0.3-0.5-0.2-0.7-0.2-1c0-0.3,0.2-0.6,0.5-0.6c0.4,0,0.5,0.3,0.5,0.6
		c0,0.4,0.1,0.6-0.2,1l0,0l0,0.4c0.3-0.2,0.7-0.4,1-0.5c-0.2,0.8-0.6,1-1,1.1l0,0.7c0.4-0.3,0.9-0.7,1.3-0.8c-0.2,1-0.7,1.4-1.3,1.5
		l0,0.7c0.4-0.3,1.1-0.8,1.7-0.9c-0.3,1.1-1,1.5-1.7,1.5l0,0.6c0.4-0.3,1.1-0.7,1.7-0.8c-0.3,1-1,1.6-1.7,1.7l0,0.5
		c0.4-0.3,1.1-0.7,1.7-0.8c-0.3,1.1-1,1.7-1.7,1.7v0.4c0.5-0.3,1.4-0.9,2-1c-0.4,1.2-1.2,1.8-2,1.9v0.5c0.3-0.2,0.9-0.5,1.2-0.5
		c-0.2,0.8-0.8,1.1-1.2,1.2l0,0.9c0.1,0,0.2,0,0.3,0c0-0.3,0.2-0.7,0.6-0.9c0,0.2-0.1,0.6-0.2,0.9c0.2-0.1,0.4-0.1,0.7-0.2
		c-0.1-0.5,0-1.1,0.6-1.7c0.1,0.4,0,1,0,1.4c0.2-0.1,0.5-0.3,0.7-0.5c-0.3-0.4-0.2-1.1,0.3-1.8c0.1,0.3,0.2,1,0.2,1.4
		c0.2-0.2,0.4-0.5,0.6-0.7c-0.4-0.4-0.4-0.9,0.1-1.7c0.1,0.3,0.3,0.9,0.3,1.3c0.2-0.2,0.3-0.4,0.5-0.7c-0.1-0.2,0-0.4,0.1-0.5
		c0.2-0.2,0.4-0.4,0.6-0.2c0.3,0.1,0.1,0.5,0,0.7c-0.1,0.2-0.2,0.3-0.4,0.3c-0.1,0.3-0.4,0.6-0.5,0.8
		C-457.5,534.7-457.2,534.8-457,535.1z"/>
	<g>
		<path class="st0" d="M-449.3,543.9c0,0.3,0.5,0.6,1.2,0.9c0-0.8-0.1-1.6-0.1-2.2C-449,543.2-449.3,543.6-449.3,543.9z"/>
		<path class="st0" d="M-447.4,546.3c-0.1,0-0.2-0.1-0.3-0.1l0,0c0,0.9,0,1.8,0.1,2.9c0.1,0.1,0.2,0.1,0.2,0.2
			C-447.4,548.2-447.4,547.3-447.4,546.3z"/>
		<path class="st0" d="M-449.8,529.9c-0.5-0.2-0.5-0.4-0.6-0.5c0-0.1,0-0.1-0.1-0.1c-0.1,0-0.7,0-0.9,0.4c-0.2,0.4-0.1,1.4,2.4,3.6
			c0.2,0.1,0.3,0.3,0.4,0.4l0-3.5C-448.9,530.2-449.3,530.1-449.8,529.9z"/>
		<path class="st0" d="M-447.9,529.9l0.3,0.1l0.5,0.1l0-1v0l-1.1-0.6l0,0.7C-448,529.5-447.9,529.7-447.9,529.9z"/>
		<path class="st0" d="M-447.6,550.1c0,0.3,0,0.6,0,1v0c0.1,0.1,0.2,0.1,0.2,0c0-0.3,0-0.6,0-0.9
			C-447.4,550.1-447.5,550.1-447.6,550.1z"/>
		<path class="st0" d="M-446.2,547.2c0-0.2-0.3-0.4-0.8-0.7c0,0.4,0,0.8,0,1.2C-446.3,547.5-446.2,547.3-446.2,547.2z"/>
		<path class="st0" d="M-446.9,540.6c0.8-0.4,1.3-0.8,1.4-1.3v0c0.1-0.7-0.5-1.4-1.3-2.2C-446.9,538-446.9,539.2-446.9,540.6z"/>
		<path class="st0" d="M-448.1,535.8l0,1l-0.6-0.4l-0.2,0.4c0.5,0.4,1,1.4,1.3,8.2c0.1,0,0.2,0.1,0.3,0.1c0-3.8,0-6.6,0.1-8.5
			c-0.2-0.2-0.4-0.4-0.7-0.6C-448,536-448.1,535.9-448.1,535.8z"/>
		<path class="st0" d="M-440.7,524h-13.6v35.8C-434.6,548.8-439.3,527.2-440.7,524z M-444.2,539.5c-0.1,1-1.2,1.7-2.7,2.5
			c0,1,0,2.2,0,3.4c0.1,0,0.1,0,0.2,0.1c1.5,0.6,1.7,1.3,1.7,1.7c-0.1,0.7-1,1.3-1.8,1.5c0,0.3,0,0.6,0,0.9c0.2,0.2,0.3,0.5,0.3,0.7
			c0,0.2-0.1,0.4-0.3,0.6c0,0.1,0,0.2,0,0.3v0l0,0c-0.1,0.3-0.3,0.4-0.5,0.4c-0.2,0-0.5-0.2-0.6-0.4c0,0-0.1,0-0.1,0
			c-0.2,0.1-0.3,0.1-0.4,0.1c-0.1,0-0.1-0.1-0.2-0.1c0-0.1,0-0.2,0.1-0.3c0.2-0.2,0.3-0.3,0.5-0.4c0-0.2,0-0.4,0-0.6
			c-0.1,0-0.1,0-0.2-0.1c-0.5-0.3-0.7-0.7-0.6-1c0.1-0.4,0.5-0.7,0.8-0.8c0-0.7,0-1.4,0-2c-0.3-0.1-0.6-0.2-0.8-0.3
			c-1.4-0.5-1.6-1.3-1.6-1.8c0-1.1,1.2-2.3,2.2-2.7c-0.3-3.3-0.6-3.9-1-4.1l-0.2-0.1l0.5-1.2l0.4,0.3l0-0.6
			c-0.2-0.2-0.5-0.5-0.7-0.7c-0.3-0.4-1.9-2-2.1-2.2c-0.4-0.6-0.8-1.2-0.9-1.6c-0.3-0.7-0.2-1.5,0.1-2c0.4-0.5,1.1-0.7,2-0.6
			c0.2,0.1,0.3,0.1,0.4,0c0.1,0,0.2,0,0.3,0c0.2,0,0.4,0.1,0.6,0.2c0.1,0,0.2,0.2,0.3,0.3l0-1l2,1.2l0,1.3c0.2-0.2,0.5-0.5,0.8-0.5
			l0.2,0l0.3,1.8l-0.1,0.1c-0.6,0.5-1,1.3-1.2,3.9h0C-444.9,537.2-444.1,538.4-444.2,539.5z"/>
		<path class="st0" d="M-445.8,531.3l-0.2-1c-0.3,0.2-0.6,0.6-0.7,0.8l-0.4-0.1l0-0.6l-0.2,0l0,0.4l-0.1,0l-0.4-0.6l-0.3-0.1
			c0,0-0.1,0-0.1,0.1l0,3.9c0.4,0.3,0.7,0.7,1,1l0,0C-446.9,532.6-446.5,531.8-445.8,531.3z"/>
	</g>
	<g>
		<rect x="-463.4" y="543.2" class="st0" width="2.4" height="1"/>
		<rect x="-461.7" y="545" class="st0" width="0.7" height="0.7"/>
		<rect x="-463.4" y="545.1" class="st0" width="0.9" height="2.4"/>
		<rect x="-461.6" y="546.5" class="st0" width="2.4" height="1"/>
		<rect x="-460.2" y="543.2" class="st0" width="1" height="2.4"/>
		<path class="st0" d="M-454.9,559.8v-20h-14.6C-468.2,546.8-464.4,554.5-454.9,559.8c0.1,0.1,0.2,0.1,0.3,0.2h0
			C-454.7,559.9-454.8,559.9-454.9,559.8z M-456.6,551.5h-5.8v-3.3h-1.8v-5.8h5.8l0,3.3h1.8V551.5z"/>
		<rect x="-459.9" y="548.2" class="st0" width="0.7" height="0.7"/>
		<rect x="-459.9" y="549.7" class="st0" width="2.4" height="1"/>
		<rect x="-458.4" y="546.5" class="st0" width="0.9" height="2.4"/>
		<rect x="-461.6" y="548.2" class="st0" width="1" height="2.4"/>
	</g>
</g>
</svg>
