<?xml version="1.0" encoding="utf-8"?>
<!-- Generator: Adobe Illustrator 19.0.0, SVG Export Plug-In . SVG Version: 6.00 Build 0)  -->
<svg version="1.1" id="Layer_1" xmlns="http://www.w3.org/2000/svg" xmlns:xlink="http://www.w3.org/1999/xlink" x="0px" y="0px"
	 viewBox="0 352.9 1149 376.1" style="enable-background:new 0 352.9 1149 376.1;" xml:space="preserve">
<style type="text/css">
	.st0{fill:#002646;}
</style>
<g id="XMLID_212_">
	<g id="XMLID_60_">
		<path id="XMLID_91_" class="st0" d="M348,591.3c-13.9,17.7-35.4,35.4-62.4,35.4c-29.3,0-51.6-18.5-51.6-47.4
			c0-37.7,36.6-51.6,74.7-61.6c13.5-3.1,27.3-6.2,36.6-8.5v-30.8c0-29.3-18.5-41.6-37.7-41.6c-13.5,0-25.4,6.5-31.2,11.2
			c12.7,2.7,21.9,13.5,21.9,27c0,15.4-12.3,27.7-27.7,27.7c-15.4,0-27.7-12.3-27.7-27.7c0-23.1,28.9-48.5,73.5-48.5
			c48.1,0,88.9,26.2,88.9,80.1v66.2c0,17.7,2.7,26.9,11.2,26.9c6.5,0,13.5-7.7,15-9.2l6.5,4.6c-10.4,16.9-26.6,31.6-47,31.6
			C369.6,626.7,353.8,614,348,591.3z M345.3,569.8v-50.4c-8.9,2.7-20.8,5.8-30.8,10.8c-15.8,7.7-23.9,22.3-23.9,37.7
			c0,14.6,8.5,29.3,23.9,29.3c11.2,0,24.3-7.7,31.6-17.3C345.7,576.7,345.3,573.2,345.3,569.8z"/>
		<path class="st0" d="M775.8,590.5c-1.5,1.5-8.5,9.2-15,9.2c-8.5,0-11.2-9.2-11.2-26.9v-66.2c0-49.3-30.4-80.1-90.5-80.1
			c-13.1,0-26.2,1.5-35.4,5c-6.9-3.5-16.9-5-24.3-5c-28.5,0-53.5,18.9-67.4,35.8v-35.8h-8.5c-14.6,20.4-46.2,30.4-75.9,30.4
			c-0.8,1.9-0.4,5.4,1.9,6.9c4.2,3.1,8.9,3.1,14.6,6.9c4.6,3.5,7.7,8.5,7.7,18.9v100.5c0,11.6-2.7,15.8-8.1,19.3
			c-7.3,4.6-12.3,3.5-17.3,6.5c-2.3,1.9-2.7,5.8-1.9,6.9c1.5,1.9,26.6-1.9,57.8-1.9s54.3,3.8,55.8,1.9c0.8-1.2,0.8-5-1.9-6.9
			c-4.6-3.1-8.9-1.9-16.2-6.5c-5.4-3.5-8.1-7.7-8.1-19.3V483.9c8.5-20.8,37.7-48.1,65.5-48.1c4.6,0,8.9,0.8,11.5,1.9
			c-12.3,6.9-18.1,18.5-18.1,30.8c0,16.9,12.7,28.5,29.3,28.5c16.2,0,29.6-10.8,29.6-28.5c0-11.9-6.2-23.1-15-30.8
			c1.9-0.8,9.2-1.9,13.5-1.9c25.8,0,41.2,16.6,41.2,44.7v28.9c-9.2,2.3-23.1,5.4-36.2,8.5c-38.5,10-75.1,24.3-75.1,62.8
			c0,26.2,22.3,46.2,51.6,46.2c26.6,0,48.1-17.7,62.4-35.8c5.8,22.7,21.6,35.8,43.1,35.8c20.4,0,36.6-14.6,47-31.6L775.8,590.5z
			 M660.3,597.1c-16.6-0.4-25.4-14.6-25.4-29.3c0-15.4,8.1-30,23.9-37.7c10-5,21.9-8.1,30.8-10.8v50.4c0,3.8,0.4,7.7,0.8,11.5
			C683.8,590.2,669.9,597.5,660.3,597.1z"/>
		<path class="st0" d="M270.7,353.8h-19.6c-6.5,0.5-14.8,1-25.5,1c-10.6,0-19-0.4-25.6-1h-19.8c-0.3,1.6,0,4.4,2.2,6
			c4.6,3.1,19.3,2.7,25.4,7.3c4.6,3.5,8.1,8.1-0.4,25.8L164,481.8L150.2,458l0,0l-45.8-79c-2.3-5.5-2.2-9-0.2-12.1
			c2.7-4.2,10-3.5,14.6-6.9c2.5-1.4,2.9-4.7,2.1-6.1H98.6c-2.7,0.2-5.5,0.4-8.5,0.5l-0.3-0.5l-0.1,0.5c-8.8,0.5-18.9,0.9-29.4,0.9
			c-14.2,0-27.6-0.8-38-1.5H0.4c-0.8,1.4-0.4,4.7,2.1,6.5c3.9,2.3,5.8,1.5,15,6.2c8.1,3.8,11.5,9.6,17.3,19.6l4.7,8h0.1
			c1.5,2.5,3,5.1,4.6,7.7c12,19.3,44.5,69.2,69,83.8l0,0.1c0.8,0.5,1.6,0.9,2.4,1.3c0.1,0.1,0.2,0.1,0.3,0.2c0,0,0,0,0,0
			c3.3,1.6,6.4,2.6,9.2,2.6c0,0-1,1.1-2.5,3.4c0,0,0,0,0,0c0,0,0,0.1-0.1,0.1c-0.1,0.2-0.2,0.3-0.3,0.4l0,0
			c-5.4,8.3-16.4,30.6-16.4,74.5c0,15.2,0,29.6,0,39.6c0,0-4.1,6.9-13.8,6.9v6.9h13.8h31.3h31.7h13.4v-6.9c-8.1,0-12.3-4.9-13.4-6.4
			v-96.8c0.5-4.6,2.9-15.1,13.3-36.4l33.8-68.6c13.5-26.6,18.9-33.1,28.9-38.1c8.5-4.2,18.5-5,23.5-8.5
			C270.5,358.2,271.2,355.4,270.7,353.8z"/>
	</g>
	<path class="st0" d="M1096.3,708.7c-18.3-9.7-32.9-30-44.2-50.7c-7.5-13.1-11.4-23.1-11.4-23.1c-3.9-8.5-7.1-16.4-9.7-22.6
		c-2.7-6.3-5.2-12.5-7.7-18.5l1.8-1.8l33.5-38.1c10-11.2,16.2-17.7,25.4-21.9c11.9-5.8,19.3-5.8,24.3-8.9c4.2-1.9,3.8-6.5,3.5-7.7
		c-1.9-1.9-16.9,1.9-44.3,1.9c-27.3,0-43.1-3.9-44.7-1.9c-0.8,1.5-0.8,5,1.9,6.9c3.5,1.9,10.8,2.7,17.3,4.6
		c7.3,1.9,11.2,4.2,11.2,9.2c0,3.8-1.5,8.1-7.3,15.4l-25.8,32l-0.7,0.7c-13.2-31.9-24.9-57.9-43.8-73.2
		c-13.1-10.4-25.8-13.5-37.7-15c36.6-5.8,77-29.6,77-73.5c0-34.3-29.6-68.1-85.9-68.1c-32,0-53.5,1.9-84.7,1.9
		c-31.2,0-53.1-3.9-54.7-1.9c-1.2,1.2-0.8,5,1.9,6.9c4.6,3.1,9.6,1.9,16.9,6.5c5.4,3.5,8.5,7.7,8.1,19.3v204.1
		c0,11.6-3.1,15.8-8.1,19.3c-7.7,4.6-13.5,3.5-18.1,6.5c-2.7,1.9-2.7,5.8-1.9,6.9c1.5,1.9,28.5-1.9,59.7-1.9
		c31.2,0,57.8,3.8,59.3,1.9c0.8-1.2,0.4-5-1.9-6.9c-5-3.5-9.6-2.3-16.9-6.5c-5.4-3.5-8.1-7.7-8.1-19.3v-93.6h4.6
		c40.4,0,57.8,63.1,92,122.1c0.7,1.2,1.5,2.5,2.2,3.7l-1.5,1.5l-39.3,45c-10,11.2-16.2,17.7-25.4,22.3c-11.9,5.4-19.3,5.4-24.3,8.5
		c-4.2,2.3-3.9,6.9-3.1,7.7c1.5,1.9,16.9-1.9,44.3-1.9s42.7,3.8,44.3,1.9c0.8-1.2,1.2-5-1.9-6.9c-3.5-1.9-10.8-2.3-17.3-4.2
		c-7.3-2.3-11.2-4.6-11.2-9.6c0-3.5,1.5-7.7,7.3-15l32-39.7l1.2-1.1c31.7,52.2,65.7,96.1,124,96.1c16.1,0,30.1-4.1,40.7-11.2
		C1128.9,723,1111.3,718.4,1096.3,708.7z M910,484.5h-29.6l0.4-92c0-20,8.5-24.6,19.3-24.6c15.8,0,33.1,10.8,42.7,35.4
		C955.8,436,948.1,484.5,910,484.5z"/>
</g>
</svg>
