<?xml version="1.0" encoding="utf-8"?>
<!-- Generator: Adobe Illustrator 19.0.0, SVG Export Plug-In . SVG Version: 6.00 Build 0)  -->
<svg version="1.1" id="Layer_1" xmlns="http://www.w3.org/2000/svg" xmlns:xlink="http://www.w3.org/1999/xlink" x="0px" y="0px"
	 viewBox="-778 353 1078 376.1" style="enable-background:new -778 353 1078 376.1;" xml:space="preserve">
<style type="text/css">
	.st0{fill:#002646;}
</style>
<g id="XMLID_265_">
	<g id="XMLID_270_">
		<path id="XMLID_282_" class="st0" d="M-298.4,680.3c-19.1,24.4-48.8,48.8-85.9,48.8c-40.3,0-71.1-25.5-71.1-65.3
			c0-52,50.4-71.1,102.9-84.9c18.6-4.2,37.7-8.5,50.4-11.7v-42.4c0-40.3-25.5-57.3-52-57.3c-18.6,0-35,9-43,15.4
			c17.5,3.7,30.2,18.6,30.2,37.1c0,21.2-17,38.2-38.2,38.2c-21.2,0-38.2-17-38.2-38.2c0-31.8,39.8-66.8,101.3-66.8
			c66.3,0,122.6,36.1,122.6,110.3v91.3c0,24.4,3.7,37.1,15.4,37.1c9,0,18.6-10.6,20.7-12.7l9,6.4c-14.3,23.3-36.6,43.5-64.7,43.5
			C-268.7,729.1-290.5,711.6-298.4,680.3z M-302.1,650.6v-69.5c-12.2,3.7-28.6,8-42.4,14.9c-21.8,10.6-32.9,30.8-32.9,52
			c0,20.2,11.7,40.3,32.9,40.3c15.4,0,33.4-10.6,43.5-23.9C-301.6,660.1-302.1,655.3-302.1,650.6z"/>
		<path id="XMLID_279_" class="st0" d="M81.4,460.1c12.7-4.8,30.8-6.9,48.8-6.9c82.8,0,124.7,42.4,124.7,110.3v91.3
			c0,24.4,3.7,37.1,15.4,37.1c9,0,18.6-10.6,20.7-12.7l9,6.4c-14.3,23.3-36.6,43.5-64.7,43.5c-29.7,0-51.5-18-59.4-49.3
			c-19.6,24.9-49.3,49.3-85.9,49.3c-40.3,0-71.1-27.6-71.1-63.7c0-53.1,50.4-72.7,103.5-86.5c18-4.2,37.1-8.5,49.9-11.7v-39.8
			c0-38.7-21.2-61.5-56.8-61.5c-5.8,0-15.9,1.6-18.6,2.6c12.2,10.6,20.7,26,20.7,42.4c0,24.4-18.6,39.3-40.9,39.3
			c-22.8,0-40.3-15.9-40.3-39.3c0-17,8-32.9,24.9-42.4c-3.7-1.6-9.5-2.6-15.9-2.6c-38.2,0-78.5,37.7-90.2,66.3v146.4
			c0,15.9,3.7,21.8,11.1,26.5c10.1,6.4,15.9,4.8,22.3,9c3.7,2.7,3.7,8,2.7,9.6c-2.1,2.6-34-2.7-76.9-2.7s-77.5,5.3-79.6,2.7
			c-1.1-1.6-0.5-6.9,2.7-9.6c6.9-4.2,13.8-2.6,23.9-9c7.4-4.8,11.1-10.6,11.1-26.5V540.2c0-14.3-4.2-21.2-10.6-26
			c-8-5.3-14.3-5.3-20.2-9.6c-3.2-2.1-3.7-6.9-2.7-9.6c40.9,0,84.4-13.8,104.5-41.9h11.7v49.3c19.1-23.3,53.6-49.3,92.8-49.3
			C58.1,453.2,71.9,455.3,81.4,460.1z M172.1,650.6v-69.5c-12.2,3.7-28.6,8-42.4,14.9c-21.8,10.6-32.9,30.8-32.9,52
			c0,20.2,12.2,39.8,35,40.3c13.3,0.5,32.4-9.6,41.4-21.8C172.7,661.2,172.1,655.9,172.1,650.6z"/>
		<path id="XMLID_2_" class="st0" d="M-405,353h-27c-9,0.7-20.5,1.3-35.1,1.3c-14.6,0-26.2-0.6-35.2-1.3h-27.3
			c-0.5,2.2,0,6.1,3.1,8.2c6.4,4.2,26.5,3.7,35,10.1c6.4,4.8,11.1,11.1-0.5,35.5l-60,122.6v0l-19.1-32.9l0,0l-63.1-108.9
			c-3.2-7.6-3-12.4-0.3-16.7c3.7-5.8,13.8-4.8,20.2-9.6c3.4-1.9,4-6.4,2.9-8.4h-30.7c-3.7,0.2-7.6,0.5-11.7,0.7l-0.4-0.7l-0.2,0.8
			c-12.2,0.7-26.1,1.3-40.5,1.3c-19.6,0-38-1.1-52.4-2.1h-30.1c-1.1,2-0.5,6.5,2.9,8.9c5.3,3.2,8,2.1,20.7,8.5
			c11.1,5.3,15.9,13.3,23.9,27.1l6.5,11h0.2c2,3.5,4.1,7,6.3,10.7c16.5,26.6,61.4,95.4,95,115.4l0.1,0.2c1.1,0.7,2.2,1.2,3.3,1.8
			c0.1,0.1,0.3,0.2,0.5,0.3c0,0,0,0,0,0c4.5,2.2,8.8,3.5,12.7,3.5c0,0-1.4,1.5-3.4,4.6c0,0,0,0,0,0c0,0-0.1,0.1-0.1,0.1
			c-0.1,0.2-0.3,0.4-0.4,0.6l0,0c-7.4,11.4-22.7,42.2-22.7,102.7c0,21,0,40.7,0,54.5c0,0-5.7,9.5-19,9.5v9.5h62.2h62.2v-9.5
			c-11.2,0-16.9-6.7-18.5-8.8V570.2c0.6-6.4,4-20.9,18.4-50.2l0,0l46.5-94.6c18.6-36.6,26-45.6,39.8-52.5
			c11.7-5.8,25.5-6.9,32.4-11.7C-405.2,359.1-404.4,355.2-405,353z"/>
	</g>
</g>
</svg>
